<svg width="671" height="60" viewBox="0 0 671 60" fill="none" xmlns="http://www.w3.org/2000/svg">
<path d="M32.872 2.032C35.512 2.032 38.24 2.26666 41.056 2.736C43.9307 3.20533 46.1893 3.85067 47.832 4.672C48.36 4.848 48.6827 5.08266 48.8 5.376C48.976 5.61066 49.0933 6.05066 49.152 6.696L50.208 18.136C50.208 18.312 50.0613 18.4293 49.768 18.488C49.4747 18.5467 49.2987 18.4587 49.24 18.224C47.5387 13.648 44.9573 10.1573 41.496 7.752C38.0933 5.34666 34.0747 4.144 29.44 4.144C23.3387 4.144 18.5573 6.28533 15.096 10.568C11.6347 14.8507 9.904 20.6 9.904 27.816C9.904 33.2133 10.8427 38.1707 12.72 42.688C14.656 47.2053 17.296 50.784 20.64 53.424C24.0427 56.064 27.8267 57.384 31.992 57.384C39.912 57.384 45.9253 52.456 50.032 42.6C50.0907 42.3653 50.2667 42.2773 50.56 42.336C50.912 42.3947 51.088 42.512 51.088 42.688L49.768 53.952C49.6507 54.656 49.504 55.1253 49.328 55.36C49.2107 55.536 48.888 55.7413 48.36 55.976C43.256 58.0293 37.8293 59.056 32.08 59.056C24.9227 59.056 18.968 57.648 14.216 54.832C9.464 51.9573 5.944 48.32 3.656 43.92C1.42667 39.52 0.312 34.944 0.312 30.192C0.312 24.6773 1.808 19.7787 4.8 15.496C7.85067 11.2133 11.8693 7.89866 16.856 5.552C21.8427 3.20533 27.1813 2.032 32.872 2.032ZM117.435 56.944C117.729 56.944 117.875 57.12 117.875 57.472C117.875 57.824 117.729 58 117.435 58C116.321 58 114.531 57.9413 112.067 57.824C109.603 57.7067 107.814 57.648 106.699 57.648C105.233 57.648 103.502 57.7067 101.507 57.824C99.5125 57.9413 97.9579 58 96.8432 58C96.6085 58 96.4912 57.824 96.4912 57.472C96.4912 57.12 96.6085 56.944 96.8432 56.944C98.5445 56.944 99.7765 56.768 100.539 56.416C101.361 56.0053 101.771 55.36 101.771 54.48C101.771 53.6 101.273 52.104 100.275 49.992L90.7712 30.72H74.8432L68.0672 45.944C67.3045 47.704 66.9232 49.288 66.9232 50.696C66.9232 52.7493 67.6565 54.304 69.1232 55.36C70.5899 56.416 72.6432 56.944 75.2832 56.944C75.5765 56.944 75.7232 57.12 75.7232 57.472C75.7232 57.824 75.5765 58 75.2832 58C74.2272 58 72.7019 57.9413 70.7072 57.824C68.4779 57.7067 66.5419 57.648 64.8992 57.648C63.3152 57.648 61.4672 57.7067 59.3552 57.824C57.4779 57.9413 55.9232 58 54.6912 58C54.3979 58 54.2512 57.824 54.2512 57.472C54.2512 57.12 54.3979 56.944 54.6912 56.944C56.3339 56.944 57.7125 56.6213 58.8272 55.976C59.9419 55.3307 61.0272 54.1867 62.0832 52.544C63.1392 50.8427 64.4005 48.3493 65.8672 45.064L84.7872 2.472C84.9045 2.296 85.1685 2.208 85.5792 2.208C85.9899 2.208 86.2245 2.296 86.2832 2.472L107.843 45.944C109.897 50.168 111.598 53.072 112.947 54.656C114.355 56.1813 115.851 56.944 117.435 56.944ZM75.8112 28.52H89.7152L82.4112 13.736L75.8112 28.52ZM135.734 50.52C135.734 52.3973 135.939 53.776 136.35 54.656C136.819 55.4773 137.67 56.064 138.902 56.416C140.192 56.768 142.187 56.944 144.886 56.944C145.062 56.944 145.15 57.12 145.15 57.472C145.15 57.824 145.062 58 144.886 58C142.48 58 140.603 57.9707 139.254 57.912L131.598 57.824L125.262 57.912C124.147 57.9707 122.622 58 120.686 58C120.51 58 120.422 57.824 120.422 57.472C120.422 57.12 120.51 56.944 120.686 56.944C122.68 56.944 124.118 56.7973 124.998 56.504C125.878 56.2107 126.464 55.6533 126.758 54.832C127.11 54.0107 127.286 52.6907 127.286 50.872V10.128C127.286 8.368 127.11 7.07733 126.758 6.256C126.464 5.43466 125.848 4.87733 124.91 4.584C124.03 4.232 122.622 4.056 120.686 4.056C120.51 4.056 120.422 3.88 120.422 3.528C120.422 3.176 120.51 3 120.686 3L125.262 3.088C127.843 3.20533 129.926 3.264 131.51 3.264C132.859 3.264 134.502 3.176 136.438 3C137.142 2.94133 138.08 2.88266 139.254 2.824C140.486 2.76533 141.923 2.736 143.566 2.736C149.374 2.736 153.95 3.968 157.294 6.432C160.696 8.896 162.398 12.68 162.398 17.784C162.398 21.48 161.43 24.6187 159.494 27.2C157.616 29.7813 155.182 31.7173 152.19 33.008C149.256 34.2987 146.235 34.944 143.126 34.944C141.483 34.944 140.104 34.7973 138.99 34.504C138.814 34.504 138.726 34.3573 138.726 34.064C138.726 33.888 138.755 33.712 138.814 33.536C138.931 33.36 139.048 33.3013 139.166 33.36C140.104 33.5947 141.131 33.712 142.246 33.712C145.296 33.712 147.878 32.4507 149.99 29.928C152.102 27.4053 153.158 23.7973 153.158 19.104C153.158 14.4693 152.072 10.8907 149.902 8.368C147.731 5.78666 144.739 4.496 140.926 4.496C139.518 4.496 138.432 4.64266 137.67 4.936C136.966 5.22933 136.467 5.78666 136.174 6.608C135.88 7.37066 135.734 8.60266 135.734 10.304V50.52ZM184.997 50.872C184.997 52.6907 185.143 54.0107 185.437 54.832C185.73 55.6533 186.317 56.2107 187.197 56.504C188.135 56.7973 189.602 56.944 191.597 56.944C191.773 56.944 191.861 57.12 191.861 57.472C191.861 57.824 191.773 58 191.597 58C189.719 58 188.223 57.9707 187.109 57.912L180.597 57.824L174.261 57.912C173.146 57.9707 171.621 58 169.685 58C169.509 58 169.421 57.824 169.421 57.472C169.421 57.12 169.509 56.944 169.685 56.944C171.679 56.944 173.117 56.7973 173.997 56.504C174.935 56.2107 175.581 55.6533 175.933 54.832C176.285 53.952 176.461 52.632 176.461 50.872V10.128C176.461 8.368 176.285 7.07733 175.933 6.256C175.581 5.43466 174.935 4.87733 173.997 4.584C173.117 4.232 171.679 4.056 169.685 4.056C169.509 4.056 169.421 3.88 169.421 3.528C169.421 3.176 169.509 3 169.685 3L174.261 3.088C176.842 3.20533 178.954 3.264 180.597 3.264C182.415 3.264 184.615 3.20533 187.197 3.088L191.597 3C191.773 3 191.861 3.176 191.861 3.528C191.861 3.88 191.773 4.056 191.597 4.056C189.661 4.056 188.223 4.232 187.285 4.584C186.405 4.936 185.789 5.552 185.437 6.432C185.143 7.25333 184.997 8.544 184.997 10.304V50.872ZM214.201 4.848C210.622 4.848 207.659 5.96266 205.313 8.192C203.025 10.3627 201.265 13.6773 200.033 18.136C200.033 18.2533 199.857 18.312 199.505 18.312C199.211 18.312 199.065 18.224 199.065 18.048C199.299 15.76 199.563 12.8267 199.857 9.248C200.15 5.61066 200.297 2.88266 200.297 1.064C200.297 0.770666 200.443 0.623999 200.737 0.623999C201.089 0.623999 201.265 0.770666 201.265 1.064C201.265 2.35467 202.907 3 206.193 3C211.238 3.176 217.134 3.264 223.881 3.264C227.342 3.264 231.009 3.20533 234.881 3.088L240.865 3C243.094 3 244.707 2.85333 245.705 2.56C246.761 2.26666 247.435 1.68 247.729 0.799997C247.787 0.56533 247.963 0.447996 248.257 0.447996C248.55 0.447996 248.697 0.56533 248.697 0.799997C248.521 2.61866 248.345 5.376 248.169 9.072C247.993 12.768 247.905 15.76 247.905 18.048C247.905 18.224 247.729 18.312 247.377 18.312C247.083 18.312 246.907 18.224 246.849 18.048C246.262 13.5307 244.883 10.216 242.713 8.104C240.542 5.93333 237.609 4.848 233.913 4.848C232.27 4.848 231.038 4.99466 230.217 5.288C229.454 5.58133 228.926 6.10933 228.633 6.872C228.398 7.576 228.281 8.72 228.281 10.304V50.872C228.281 52.6907 228.457 54.0107 228.809 54.832C229.161 55.6533 229.865 56.2107 230.921 56.504C231.977 56.7973 233.649 56.944 235.937 56.944C236.113 56.944 236.201 57.12 236.201 57.472C236.201 57.824 236.113 58 235.937 58C233.883 58 232.27 57.9707 231.097 57.912L223.881 57.824L217.017 57.912C215.785 57.9707 214.083 58 211.913 58C211.795 58 211.737 57.824 211.737 57.472C211.737 57.12 211.795 56.944 211.913 56.944C214.201 56.944 215.873 56.7973 216.929 56.504C218.043 56.2107 218.777 55.6533 219.129 54.832C219.539 53.952 219.745 52.632 219.745 50.872V10.128C219.745 8.60266 219.598 7.488 219.305 6.784C219.011 6.08 218.483 5.58133 217.721 5.288C216.958 4.99466 215.785 4.848 214.201 4.848ZM308.302 56.944C308.596 56.944 308.742 57.12 308.742 57.472C308.742 57.824 308.596 58 308.302 58C307.188 58 305.398 57.9413 302.934 57.824C300.47 57.7067 298.681 57.648 297.566 57.648C296.1 57.648 294.369 57.7067 292.374 57.824C290.38 57.9413 288.825 58 287.71 58C287.476 58 287.358 57.824 287.358 57.472C287.358 57.12 287.476 56.944 287.71 56.944C289.412 56.944 290.644 56.768 291.406 56.416C292.228 56.0053 292.638 55.36 292.638 54.48C292.638 53.6 292.14 52.104 291.142 49.992L281.638 30.72H265.71L258.934 45.944C258.172 47.704 257.79 49.288 257.79 50.696C257.79 52.7493 258.524 54.304 259.99 55.36C261.457 56.416 263.51 56.944 266.15 56.944C266.444 56.944 266.59 57.12 266.59 57.472C266.59 57.824 266.444 58 266.15 58C265.094 58 263.569 57.9413 261.574 57.824C259.345 57.7067 257.409 57.648 255.766 57.648C254.182 57.648 252.334 57.7067 250.222 57.824C248.345 57.9413 246.79 58 245.558 58C245.265 58 245.118 57.824 245.118 57.472C245.118 57.12 245.265 56.944 245.558 56.944C247.201 56.944 248.58 56.6213 249.694 55.976C250.809 55.3307 251.894 54.1867 252.95 52.544C254.006 50.8427 255.268 48.3493 256.734 45.064L275.654 2.472C275.772 2.296 276.036 2.208 276.446 2.208C276.857 2.208 277.092 2.296 277.15 2.472L298.71 45.944C300.764 50.168 302.465 53.072 303.814 54.656C305.222 56.1813 306.718 56.944 308.302 56.944ZM266.678 28.52H280.582L273.278 13.736L266.678 28.52ZM326.249 50.52C326.249 52.104 326.366 53.248 326.601 53.952C326.894 54.656 327.422 55.1253 328.185 55.36C328.948 55.5947 330.18 55.712 331.881 55.712H337.161C341.326 55.712 344.846 54.568 347.721 52.28C350.596 49.9333 352.502 46.7947 353.441 42.864C353.5 42.688 353.676 42.6293 353.969 42.688C354.262 42.688 354.409 42.776 354.409 42.952C353.881 48.4667 353.617 53.0427 353.617 56.68C353.617 57.1493 353.529 57.5013 353.353 57.736C353.177 57.912 352.825 58 352.297 58H311.113C310.996 58 310.937 57.824 310.937 57.472C310.937 57.12 310.996 56.944 311.113 56.944C313.108 56.944 314.545 56.7973 315.425 56.504C316.364 56.2107 316.98 55.6533 317.273 54.832C317.625 53.952 317.801 52.632 317.801 50.872V10.128C317.801 8.368 317.625 7.07733 317.273 6.256C316.98 5.43466 316.364 4.87733 315.425 4.584C314.486 4.232 313.049 4.056 311.113 4.056C310.996 4.056 310.937 3.88 310.937 3.528C310.937 3.176 310.996 3 311.113 3L315.601 3.088C318.182 3.20533 320.294 3.264 321.937 3.264C323.697 3.264 325.868 3.20533 328.449 3.088L332.849 3C333.025 3 333.113 3.176 333.113 3.528C333.113 3.88 333.025 4.056 332.849 4.056C330.913 4.056 329.476 4.232 328.537 4.584C327.657 4.87733 327.041 5.464 326.689 6.344C326.396 7.16533 326.249 8.456 326.249 10.216V50.52ZM412.435 59.056C405.982 59.056 400.35 57.824 395.539 55.36C390.787 52.896 387.15 49.552 384.627 45.328C382.105 41.0453 380.843 36.2933 380.843 31.072C380.843 25.44 382.281 20.424 385.155 16.024C388.089 11.5653 392.078 8.13333 397.123 5.728C402.227 3.264 407.947 2.032 414.283 2.032C417.041 2.032 419.798 2.26666 422.555 2.736C425.313 3.20533 427.542 3.85067 429.243 4.672C429.713 4.90666 430.006 5.14133 430.123 5.376C430.299 5.61066 430.417 6.05066 430.475 6.696L431.531 18.136C431.531 18.312 431.385 18.4293 431.091 18.488C430.798 18.5467 430.593 18.4587 430.475 18.224C428.715 13.824 426.075 10.392 422.555 7.928C419.035 5.464 414.899 4.232 410.147 4.232C403.694 4.232 398.737 6.344 395.275 10.568C391.814 14.7333 390.083 20.4827 390.083 27.816C390.083 33.5653 391.139 38.6987 393.251 43.216C395.363 47.7333 398.267 51.2533 401.963 53.776C405.718 56.2987 409.913 57.56 414.547 57.56C417.129 57.56 419.123 57.296 420.531 56.768C421.939 56.24 422.966 55.2133 423.611 53.688C424.315 52.1627 424.667 49.904 424.667 46.912C424.667 43.8613 424.491 41.7493 424.139 40.576C423.787 39.344 422.995 38.5227 421.763 38.112C420.59 37.7013 418.507 37.496 415.515 37.496C415.163 37.496 414.987 37.2613 414.987 36.792C414.987 36.616 415.017 36.4693 415.075 36.352C415.193 36.176 415.31 36.088 415.427 36.088C420.297 36.3813 424.198 36.528 427.131 36.528C430.065 36.528 433.115 36.44 436.283 36.264C436.401 36.264 436.489 36.352 436.547 36.528C436.665 36.6453 436.723 36.7627 436.723 36.88C436.723 37.2907 436.577 37.496 436.283 37.496C435.11 37.4373 434.289 37.6427 433.819 38.112C433.35 38.5227 433.027 39.4027 432.851 40.752C432.734 42.1013 432.675 44.448 432.675 47.792C432.675 50.432 432.763 52.3093 432.939 53.424C433.174 54.5387 433.291 55.2427 433.291 55.536C433.291 55.888 433.203 56.1227 433.027 56.24C432.91 56.2987 432.646 56.416 432.235 56.592C424.843 58.2347 418.243 59.056 412.435 59.056ZM501.121 56.944C501.297 56.944 501.385 57.12 501.385 57.472C501.385 57.824 501.297 58 501.121 58H486.953C485.604 58 483.081 55.5653 479.385 50.696C475.748 45.768 471.289 38.904 466.009 30.104C465.071 30.28 464.103 30.368 463.105 30.368C460.935 30.368 459.409 30.3387 458.529 30.28V50.872C458.529 52.6907 458.676 54.0107 458.969 54.832C459.321 55.6533 459.937 56.2107 460.817 56.504C461.756 56.7973 463.223 56.944 465.217 56.944C465.335 56.944 465.393 57.12 465.393 57.472C465.393 57.824 465.335 58 465.217 58C463.281 58 461.785 57.9707 460.729 57.912L454.217 57.824L447.881 57.912C446.767 57.9707 445.241 58 443.305 58C443.129 58 443.041 57.824 443.041 57.472C443.041 57.12 443.129 56.944 443.305 56.944C445.3 56.944 446.737 56.7973 447.617 56.504C448.556 56.2107 449.201 55.6533 449.553 54.832C449.905 53.952 450.081 52.632 450.081 50.872V10.128C450.081 8.368 449.905 7.07733 449.553 6.256C449.26 5.43466 448.644 4.87733 447.705 4.584C446.767 4.232 445.329 4.056 443.393 4.056C443.276 4.056 443.217 3.88 443.217 3.528C443.217 3.176 443.276 3 443.393 3L447.969 3.088C450.551 3.20533 452.633 3.264 454.217 3.264C455.977 3.264 457.825 3.176 459.761 3C460.465 2.94133 461.316 2.88266 462.313 2.824C463.311 2.76533 464.396 2.736 465.569 2.736C470.791 2.736 474.809 3.704 477.625 5.64C480.441 7.576 481.849 10.304 481.849 13.824C481.849 16.5813 481.028 19.192 479.385 21.656C477.743 24.12 475.601 26.1147 472.961 27.64C477.772 35.032 481.791 40.84 485.017 45.064C488.303 49.2293 491.207 52.2507 493.729 54.128C496.252 56.0053 498.716 56.944 501.121 56.944ZM458.529 27.816C459.937 28.0507 461.639 28.168 463.633 28.168C467.153 28.168 469.617 27.376 471.025 25.792C472.433 24.208 473.137 21.304 473.137 17.08C473.137 12.328 472.345 9.04267 470.761 7.224C469.177 5.34666 466.948 4.408 464.073 4.408C461.961 4.408 460.495 4.81866 459.673 5.64C458.911 6.46133 458.529 8.016 458.529 10.304V27.816ZM528.45 59.056C522.994 59.056 518.125 57.7947 513.842 55.272C509.618 52.6907 506.333 49.2293 503.986 44.888C501.698 40.488 500.554 35.7067 500.554 30.544C500.554 24.5013 502.08 19.3387 505.13 15.056C508.181 10.7147 512.082 7.45866 516.834 5.288C521.645 3.11733 526.544 2.032 531.53 2.032C537.104 2.032 542.002 3.352 546.226 5.992C550.45 8.57333 553.677 12.0053 555.906 16.288C558.194 20.5707 559.338 25.1173 559.338 29.928C559.338 35.2667 557.93 40.1653 555.114 44.624C552.298 49.0827 548.514 52.6027 543.762 55.184C539.069 57.7653 533.965 59.056 528.45 59.056ZM531.442 56.944C534.962 56.944 538.101 56.0053 540.858 54.128C543.674 52.192 545.874 49.376 547.458 45.68C549.101 41.984 549.922 37.584 549.922 32.48C549.922 27.0827 549.013 22.2427 547.194 17.96C545.434 13.6773 542.882 10.3333 539.538 7.928C536.253 5.52267 532.381 4.32 527.922 4.32C522.232 4.32 517.802 6.37333 514.634 10.48C511.525 14.528 509.97 20.16 509.97 27.376C509.97 32.9493 510.88 37.9947 512.698 42.512C514.576 47.0293 517.128 50.5787 520.354 53.16C523.64 55.6827 527.336 56.944 531.442 56.944ZM613.865 13.736C613.865 10.6853 613.161 8.30933 611.753 6.608C610.404 4.90666 608.439 4.056 605.857 4.056C605.74 4.056 605.681 3.88 605.681 3.528C605.681 3.176 605.74 3 605.857 3L609.905 3.088C612.135 3.20533 613.895 3.264 615.185 3.264C616.241 3.264 617.825 3.20533 619.937 3.088L623.809 3C623.927 3 623.985 3.176 623.985 3.528C623.985 3.88 623.927 4.056 623.809 4.056C621.521 4.056 619.732 4.90666 618.441 6.608C617.209 8.30933 616.593 10.6853 616.593 13.736V38.376C616.593 42.6 615.684 46.296 613.865 49.464C612.105 52.5733 609.583 54.9787 606.297 56.68C603.071 58.3813 599.316 59.232 595.033 59.232C590.751 59.232 586.937 58.4107 583.593 56.768C580.249 55.0667 577.639 52.6613 575.761 49.552C573.943 46.384 573.033 42.688 573.033 38.464V10.128C573.033 8.368 572.857 7.07733 572.505 6.256C572.153 5.43466 571.508 4.87733 570.569 4.584C569.689 4.232 568.281 4.056 566.345 4.056C566.169 4.056 566.081 3.88 566.081 3.528C566.081 3.176 566.169 3 566.345 3L570.921 3.088C573.503 3.20533 575.585 3.264 577.169 3.264C578.929 3.264 581.1 3.20533 583.681 3.088L588.081 3C588.257 3 588.345 3.176 588.345 3.528C588.345 3.88 588.257 4.056 588.081 4.056C586.145 4.056 584.708 4.232 583.769 4.584C582.889 4.936 582.273 5.552 581.921 6.432C581.569 7.25333 581.393 8.544 581.393 10.304V35.384C581.393 42.3653 582.831 47.5867 585.705 51.048C588.639 54.4507 592.716 56.152 597.937 56.152C602.924 56.152 606.825 54.6267 609.641 51.576C612.457 48.4667 613.865 44.096 613.865 38.464V13.736ZM643.624 50.52C643.624 52.3973 643.83 53.776 644.24 54.656C644.71 55.4773 645.56 56.064 646.792 56.416C648.083 56.768 650.078 56.944 652.776 56.944C652.952 56.944 653.04 57.12 653.04 57.472C653.04 57.824 652.952 58 652.776 58C650.371 58 648.494 57.9707 647.144 57.912L639.488 57.824L633.152 57.912C632.038 57.9707 630.512 58 628.576 58C628.4 58 628.312 57.824 628.312 57.472C628.312 57.12 628.4 56.944 628.576 56.944C630.571 56.944 632.008 56.7973 632.888 56.504C633.768 56.2107 634.355 55.6533 634.648 54.832C635 54.0107 635.176 52.6907 635.176 50.872V10.128C635.176 8.368 635 7.07733 634.648 6.256C634.355 5.43466 633.739 4.87733 632.8 4.584C631.92 4.232 630.512 4.056 628.576 4.056C628.4 4.056 628.312 3.88 628.312 3.528C628.312 3.176 628.4 3 628.576 3L633.152 3.088C635.734 3.20533 637.816 3.264 639.4 3.264C640.75 3.264 642.392 3.176 644.328 3C645.032 2.94133 645.971 2.88266 647.144 2.824C648.376 2.76533 649.814 2.736 651.456 2.736C657.264 2.736 661.84 3.968 665.184 6.432C668.587 8.896 670.288 12.68 670.288 17.784C670.288 21.48 669.32 24.6187 667.384 27.2C665.507 29.7813 663.072 31.7173 660.08 33.008C657.147 34.2987 654.126 34.944 651.016 34.944C649.374 34.944 647.995 34.7973 646.88 34.504C646.704 34.504 646.616 34.3573 646.616 34.064C646.616 33.888 646.646 33.712 646.704 33.536C646.822 33.36 646.939 33.3013 647.056 33.36C647.995 33.5947 649.022 33.712 650.136 33.712C653.187 33.712 655.768 32.4507 657.88 29.928C659.992 27.4053 661.048 23.7973 661.048 19.104C661.048 14.4693 659.963 10.8907 657.792 8.368C655.622 5.78666 652.63 4.496 648.816 4.496C647.408 4.496 646.323 4.64266 645.56 4.936C644.856 5.22933 644.358 5.78666 644.064 6.608C643.771 7.37066 643.624 8.60266 643.624 10.304V50.52Z" fill="#F2F4F5"/>
</svg>
