<svg width="398" height="56" viewBox="0 0 398 56" fill="none" xmlns="http://www.w3.org/2000/svg">
<path d="M16.184 48.872C16.184 50.6907 16.3307 52.0107 16.624 52.832C16.9173 53.6533 17.504 54.2107 18.384 54.504C19.3227 54.7973 20.7893 54.944 22.784 54.944C22.96 54.944 23.048 55.12 23.048 55.472C23.048 55.824 22.96 56 22.784 56C20.9067 56 19.4107 55.9707 18.296 55.912L11.784 55.824L5.448 55.912C4.33333 55.9707 2.808 56 0.872 56C0.696 56 0.608 55.824 0.608 55.472C0.608 55.12 0.696 54.944 0.872 54.944C2.86667 54.944 4.304 54.7973 5.184 54.504C6.12267 54.2107 6.768 53.6533 7.12 52.832C7.472 51.952 7.648 50.632 7.648 48.872V8.128C7.648 6.368 7.472 5.07733 7.12 4.256C6.768 3.43466 6.12267 2.87733 5.184 2.584C4.304 2.232 2.86667 2.056 0.872 2.056C0.696 2.056 0.608 1.88 0.608 1.528C0.608 1.176 0.696 1 0.872 1L5.448 1.088C8.02933 1.20533 10.1413 1.264 11.784 1.264C13.6027 1.264 15.8027 1.20533 18.384 1.088L22.784 1C22.96 1 23.048 1.176 23.048 1.528C23.048 1.88 22.96 2.056 22.784 2.056C20.848 2.056 19.4107 2.232 18.472 2.584C17.592 2.936 16.976 3.552 16.624 4.432C16.3307 5.25333 16.184 6.544 16.184 8.304V48.872ZM99.5083 54.944C99.6257 54.944 99.6843 55.12 99.6843 55.472C99.6843 55.824 99.6257 56 99.5083 56C97.5723 56 96.0177 55.9707 94.8443 55.912L88.5083 55.824L82.3483 55.912C81.2923 55.9707 79.7963 56 77.8603 56C77.743 56 77.6843 55.824 77.6843 55.472C77.6843 55.12 77.743 54.944 77.8603 54.944C80.4416 54.944 82.1723 54.6507 83.0523 54.064C83.9323 53.4773 84.3723 52.2453 84.3723 50.368L84.2843 48.872L82.5243 11.56L63.7803 55.384C63.663 55.6187 63.4283 55.736 63.0763 55.736C62.783 55.736 62.519 55.6187 62.2843 55.384L40.2843 11.912L39.4923 45.352C39.4336 48.4613 40.0203 50.8373 41.2523 52.48C42.543 54.1227 44.4496 54.944 46.9723 54.944C47.1483 54.944 47.2363 55.12 47.2363 55.472C47.2363 55.824 47.1483 56 46.9723 56C45.3883 56 44.1563 55.9707 43.2763 55.912L38.4363 55.824L33.2443 55.912C32.3643 55.9707 31.1323 56 29.5483 56C29.3723 56 29.2843 55.824 29.2843 55.472C29.2843 55.12 29.3723 54.944 29.5483 54.944C31.9536 54.944 33.8016 54.1227 35.0923 52.48C36.4416 50.8373 37.1456 48.4613 37.2043 45.352L37.9963 7.512C36.9403 5.63467 35.767 4.256 34.4763 3.376C33.2443 2.496 31.807 2.056 30.1643 2.056C29.9883 2.056 29.9003 1.88 29.9003 1.528C29.9003 1.176 29.9883 1 30.1643 1L33.9483 1.088C34.711 1.14666 35.7083 1.176 36.9403 1.176L41.0763 1.088C41.5456 1.02933 42.1323 1 42.8363 1C43.599 1 44.215 1.29333 44.6843 1.88C45.1536 2.408 45.887 3.64 46.8843 5.576L66.2443 43.328L83.7563 3.2C84.1083 2.37866 84.4896 1.82133 84.9003 1.528C85.311 1.176 85.8097 1 86.3963 1C86.807 1 87.335 1.02933 87.9803 1.088C88.6256 1.14666 89.4176 1.176 90.3563 1.176L95.1083 1.088C95.871 1.02933 97.015 1 98.5403 1C98.6576 1 98.7163 1.176 98.7163 1.528C98.7163 1.88 98.6576 2.056 98.5403 2.056C95.7243 2.056 93.671 2.584 92.3803 3.64C91.1483 4.63733 90.591 6.30933 90.7083 8.656L92.7323 48.872C92.8496 50.6907 93.055 52.0107 93.3483 52.832C93.7003 53.6533 94.3163 54.2107 95.1963 54.504C96.0763 54.7973 97.5137 54.944 99.5083 54.944ZM119.89 48.52C119.89 50.3973 120.095 51.776 120.506 52.656C120.975 53.4773 121.826 54.064 123.058 54.416C124.349 54.768 126.343 54.944 129.042 54.944C129.218 54.944 129.306 55.12 129.306 55.472C129.306 55.824 129.218 56 129.042 56C126.637 56 124.759 55.9707 123.41 55.912L115.754 55.824L109.418 55.912C108.303 55.9707 106.778 56 104.842 56C104.666 56 104.578 55.824 104.578 55.472C104.578 55.12 104.666 54.944 104.842 54.944C106.837 54.944 108.274 54.7973 109.154 54.504C110.034 54.2107 110.621 53.6533 110.914 52.832C111.266 52.0107 111.442 50.6907 111.442 48.872V8.128C111.442 6.368 111.266 5.07733 110.914 4.256C110.621 3.43466 110.005 2.87733 109.066 2.584C108.186 2.232 106.778 2.056 104.842 2.056C104.666 2.056 104.578 1.88 104.578 1.528C104.578 1.176 104.666 1 104.842 1L109.418 1.088C111.999 1.20533 114.082 1.264 115.666 1.264C117.015 1.264 118.658 1.176 120.594 1C121.298 0.941331 122.237 0.882663 123.41 0.823997C124.642 0.765331 126.079 0.735998 127.722 0.735998C133.53 0.735998 138.106 1.968 141.45 4.432C144.853 6.896 146.554 10.68 146.554 15.784C146.554 19.48 145.586 22.6187 143.65 25.2C141.773 27.7813 139.338 29.7173 136.346 31.008C133.413 32.2987 130.391 32.944 127.282 32.944C125.639 32.944 124.261 32.7973 123.146 32.504C122.97 32.504 122.882 32.3573 122.882 32.064C122.882 31.888 122.911 31.712 122.97 31.536C123.087 31.36 123.205 31.3013 123.322 31.36C124.261 31.5947 125.287 31.712 126.402 31.712C129.453 31.712 132.034 30.4507 134.146 27.928C136.258 25.4053 137.314 21.7973 137.314 17.104C137.314 12.4693 136.229 8.89066 134.058 6.368C131.887 3.78666 128.895 2.496 125.082 2.496C123.674 2.496 122.589 2.64266 121.826 2.936C121.122 3.22933 120.623 3.78666 120.33 4.608C120.037 5.37066 119.89 6.60266 119.89 8.304V48.52ZM193.001 42.272C193.001 42.1547 193.118 42.096 193.353 42.096C193.529 42.096 193.675 42.1547 193.793 42.272C193.969 42.3307 194.057 42.3893 194.057 42.448C193.47 46.9067 193.177 50.984 193.177 54.68C193.177 55.1493 193.089 55.5013 192.913 55.736C192.737 55.912 192.385 56 191.857 56H153.665C153.489 56 153.401 55.824 153.401 55.472C153.401 55.12 153.489 54.944 153.665 54.944C155.659 54.944 157.097 54.7973 157.977 54.504C158.915 54.2107 159.531 53.6533 159.825 52.832C160.177 51.952 160.353 50.632 160.353 48.872V8.128C160.353 6.368 160.177 5.07733 159.825 4.256C159.531 3.43466 158.915 2.87733 157.977 2.584C157.038 2.232 155.601 2.056 153.665 2.056C153.489 2.056 153.401 1.88 153.401 1.528C153.401 1.176 153.489 1 153.665 1H190.273C190.859 1 191.153 1.264 191.153 1.792L191.329 13.232C191.329 13.3493 191.153 13.4373 190.801 13.496C190.507 13.5547 190.331 13.496 190.273 13.32C188.865 6.632 184.787 3.288 178.041 3.288H174.521C172.409 3.288 170.913 3.66933 170.033 4.432C169.153 5.19467 168.713 6.48533 168.713 8.304V26.256H177.161C183.614 26.256 186.841 24.0853 186.841 19.744C186.841 19.568 186.987 19.48 187.281 19.48C187.633 19.48 187.809 19.568 187.809 19.744L187.721 27.4L187.809 31.536C187.926 33.4133 187.985 34.9387 187.985 36.112C187.985 36.2293 187.809 36.288 187.457 36.288C187.105 36.288 186.929 36.2293 186.929 36.112C186.929 31.0667 183.643 28.544 177.073 28.544H168.713V48.52C168.713 50.456 169.065 51.8053 169.769 52.568C170.531 53.3307 171.851 53.712 173.729 53.712H178.041C185.902 53.712 190.889 49.8987 193.001 42.272ZM259.606 54.944C259.782 54.944 259.87 55.12 259.87 55.472C259.87 55.824 259.782 56 259.606 56H245.438C244.088 56 241.566 53.5653 237.87 48.696C234.232 43.768 229.774 36.904 224.494 28.104C223.555 28.28 222.587 28.368 221.59 28.368C219.419 28.368 217.894 28.3387 217.014 28.28V48.872C217.014 50.6907 217.16 52.0107 217.454 52.832C217.806 53.6533 218.422 54.2107 219.302 54.504C220.24 54.7973 221.707 54.944 223.702 54.944C223.819 54.944 223.878 55.12 223.878 55.472C223.878 55.824 223.819 56 223.702 56C221.766 56 220.27 55.9707 219.214 55.912L212.702 55.824L206.366 55.912C205.251 55.9707 203.726 56 201.79 56C201.614 56 201.526 55.824 201.526 55.472C201.526 55.12 201.614 54.944 201.79 54.944C203.784 54.944 205.222 54.7973 206.102 54.504C207.04 54.2107 207.686 53.6533 208.038 52.832C208.39 51.952 208.566 50.632 208.566 48.872V8.128C208.566 6.368 208.39 5.07733 208.038 4.256C207.744 3.43466 207.128 2.87733 206.19 2.584C205.251 2.232 203.814 2.056 201.878 2.056C201.76 2.056 201.702 1.88 201.702 1.528C201.702 1.176 201.76 1 201.878 1L206.454 1.088C209.035 1.20533 211.118 1.264 212.702 1.264C214.462 1.264 216.31 1.176 218.246 1C218.95 0.941331 219.8 0.882663 220.798 0.823997C221.795 0.765331 222.88 0.735998 224.054 0.735998C229.275 0.735998 233.294 1.704 236.11 3.64C238.926 5.576 240.334 8.304 240.334 11.824C240.334 14.5813 239.512 17.192 237.87 19.656C236.227 22.12 234.086 24.1147 231.446 25.64C236.256 33.032 240.275 38.84 243.502 43.064C246.787 47.2293 249.691 50.2507 252.214 52.128C254.736 54.0053 257.2 54.944 259.606 54.944ZM217.014 25.816C218.422 26.0507 220.123 26.168 222.118 26.168C225.638 26.168 228.102 25.376 229.51 23.792C230.918 22.208 231.622 19.304 231.622 15.08C231.622 10.328 230.83 7.04267 229.246 5.224C227.662 3.34666 225.432 2.408 222.558 2.408C220.446 2.408 218.979 2.81866 218.158 3.64C217.395 4.46133 217.014 6.016 217.014 8.304V25.816ZM278.036 48.872C278.036 50.6907 278.182 52.0107 278.476 52.832C278.769 53.6533 279.356 54.2107 280.236 54.504C281.174 54.7973 282.641 54.944 284.636 54.944C284.812 54.944 284.9 55.12 284.9 55.472C284.9 55.824 284.812 56 284.636 56C282.758 56 281.262 55.9707 280.148 55.912L273.636 55.824L267.3 55.912C266.185 55.9707 264.66 56 262.724 56C262.548 56 262.46 55.824 262.46 55.472C262.46 55.12 262.548 54.944 262.724 54.944C264.718 54.944 266.156 54.7973 267.036 54.504C267.974 54.2107 268.62 53.6533 268.972 52.832C269.324 51.952 269.5 50.632 269.5 48.872V8.128C269.5 6.368 269.324 5.07733 268.972 4.256C268.62 3.43466 267.974 2.87733 267.036 2.584C266.156 2.232 264.718 2.056 262.724 2.056C262.548 2.056 262.46 1.88 262.46 1.528C262.46 1.176 262.548 1 262.724 1L267.3 1.088C269.881 1.20533 271.993 1.264 273.636 1.264C275.454 1.264 277.654 1.20533 280.236 1.088L284.636 1C284.812 1 284.9 1.176 284.9 1.528C284.9 1.88 284.812 2.056 284.636 2.056C282.7 2.056 281.262 2.232 280.324 2.584C279.444 2.936 278.828 3.552 278.476 4.432C278.182 5.25333 278.036 6.544 278.036 8.304V48.872ZM351.24 54.944C351.533 54.944 351.68 55.12 351.68 55.472C351.68 55.824 351.533 56 351.24 56C350.125 56 348.336 55.9413 345.872 55.824C343.408 55.7067 341.619 55.648 340.504 55.648C339.037 55.648 337.307 55.7067 335.312 55.824C333.317 55.9413 331.763 56 330.648 56C330.413 56 330.296 55.824 330.296 55.472C330.296 55.12 330.413 54.944 330.648 54.944C332.349 54.944 333.581 54.768 334.344 54.416C335.165 54.0053 335.576 53.36 335.576 52.48C335.576 51.6 335.077 50.104 334.08 47.992L324.576 28.72H308.648L301.872 43.944C301.109 45.704 300.728 47.288 300.728 48.696C300.728 50.7493 301.461 52.304 302.928 53.36C304.395 54.416 306.448 54.944 309.088 54.944C309.381 54.944 309.528 55.12 309.528 55.472C309.528 55.824 309.381 56 309.088 56C308.032 56 306.507 55.9413 304.512 55.824C302.283 55.7067 300.347 55.648 298.704 55.648C297.12 55.648 295.272 55.7067 293.16 55.824C291.283 55.9413 289.728 56 288.496 56C288.203 56 288.056 55.824 288.056 55.472C288.056 55.12 288.203 54.944 288.496 54.944C290.139 54.944 291.517 54.6213 292.632 53.976C293.747 53.3307 294.832 52.1867 295.888 50.544C296.944 48.8427 298.205 46.3493 299.672 43.064L318.592 0.471996C318.709 0.295999 318.973 0.208 319.384 0.208C319.795 0.208 320.029 0.295999 320.088 0.471996L341.648 43.944C343.701 48.168 345.403 51.072 346.752 52.656C348.16 54.1813 349.656 54.944 351.24 54.944ZM309.616 26.52H323.52L316.216 11.736L309.616 26.52ZM369.186 48.52C369.186 50.104 369.304 51.248 369.538 51.952C369.832 52.656 370.36 53.1253 371.122 53.36C371.885 53.5947 373.117 53.712 374.818 53.712H380.098C384.264 53.712 387.784 52.568 390.658 50.28C393.533 47.9333 395.44 44.7947 396.378 40.864C396.437 40.688 396.613 40.6293 396.906 40.688C397.2 40.688 397.346 40.776 397.346 40.952C396.818 46.4667 396.554 51.0427 396.554 54.68C396.554 55.1493 396.466 55.5013 396.29 55.736C396.114 55.912 395.762 56 395.234 56H354.05C353.933 56 353.874 55.824 353.874 55.472C353.874 55.12 353.933 54.944 354.05 54.944C356.045 54.944 357.482 54.7973 358.362 54.504C359.301 54.2107 359.917 53.6533 360.21 52.832C360.562 51.952 360.738 50.632 360.738 48.872V8.128C360.738 6.368 360.562 5.07733 360.21 4.256C359.917 3.43466 359.301 2.87733 358.362 2.584C357.424 2.232 355.986 2.056 354.05 2.056C353.933 2.056 353.874 1.88 353.874 1.528C353.874 1.176 353.933 1 354.05 1L358.538 1.088C361.12 1.20533 363.232 1.264 364.874 1.264C366.634 1.264 368.805 1.20533 371.386 1.088L375.786 1C375.962 1 376.05 1.176 376.05 1.528C376.05 1.88 375.962 2.056 375.786 2.056C373.85 2.056 372.413 2.232 371.474 2.584C370.594 2.87733 369.978 3.464 369.626 4.344C369.333 5.16533 369.186 6.456 369.186 8.216V48.52Z" fill="#F2F4F5"/>
</svg>
