<svg width="24" height="24" viewBox="0 0 24 24" fill="none" xmlns="http://www.w3.org/2000/svg">
<path d="M20.9733 5.71334C20.9754 5.36146 20.8879 5.01485 20.719 4.70613C20.5501 4.39742 20.3055 4.13676 20.0081 3.94871C19.7106 3.76066 19.3703 3.65139 19.0189 3.63121C18.6676 3.61103 18.317 3.68059 18 3.83334C17.979 3.47898 17.8697 3.1355 17.682 2.83422C17.4943 2.53294 17.2342 2.28343 16.9253 2.10846C16.6164 1.93348 16.2687 1.8386 15.9138 1.83247C15.5589 1.82634 15.208 1.90914 14.8933 2.07334C14.8578 1.56375 14.6456 1.08254 14.2932 0.71272C13.9408 0.342902 13.4704 0.107674 12.9631 0.0476226C12.4559 -0.012429 11.9435 0.106462 11.5145 0.383783C11.0856 0.661103 10.7668 1.07946 10.6133 1.56667C10.279 1.36616 9.8965 1.26017 9.50665 1.26001C9.21981 1.26088 8.93595 1.31835 8.67136 1.42913C8.40677 1.53991 8.16664 1.70182 7.96474 1.90558C7.76284 2.10934 7.60314 2.35094 7.49479 2.61653C7.38644 2.88213 7.33156 3.1665 7.33332 3.45334V11.8933C6.47999 10.8267 5.64665 9.77334 5.51999 9.59334C5.32719 9.28719 5.05947 9.03529 4.74216 8.86147C4.42485 8.68765 4.06844 8.59766 3.70665 8.60001C3.39978 8.59073 3.09426 8.64444 2.80896 8.75784C2.52365 8.87123 2.26462 9.0419 2.04784 9.2593C1.83106 9.4767 1.66114 9.73623 1.54857 10.0219C1.436 10.3075 1.38316 10.6132 1.39332 10.92C1.45332 12.12 3.77332 16.36 5.33332 18.6667C7.69332 22.16 9.94665 22.6667 10.0467 22.6667H17.06C17.1927 22.6652 17.3214 22.6208 17.4267 22.54C18.6238 21.4368 19.4896 20.0215 19.9267 18.4533C20.5933 16.3933 20.9467 13.4333 20.98 9.41334L20.9733 5.71334ZM18.7867 18.08C18.4123 19.3489 17.7403 20.51 16.8267 21.4667H10.22C9.90665 21.3733 8.17332 20.7333 6.30665 17.9667C4.43999 15.2 2.62665 11.5133 2.59332 10.86C2.58795 10.7205 2.61187 10.5813 2.66354 10.4516C2.71521 10.3218 2.79348 10.2043 2.89332 10.1067C2.99166 10.0055 3.11006 9.92589 3.24094 9.87308C3.37181 9.82027 3.51227 9.79538 3.65332 9.80001C3.82944 9.78976 4.00494 9.82858 4.1603 9.91214C4.31567 9.99571 4.4448 10.1207 4.53332 10.2733C4.72665 10.56 6.10665 12.2733 6.91332 13.2933L8.53332 12.2V3.45334C8.52212 3.3174 8.53922 3.18061 8.58356 3.05162C8.62789 2.92262 8.69849 2.80422 8.79089 2.70389C8.88329 2.60356 8.9955 2.52347 9.12042 2.4687C9.24533 2.41392 9.38025 2.38564 9.51665 2.38564C9.65305 2.38564 9.78797 2.41392 9.91289 2.4687C10.0378 2.52347 10.15 2.60356 10.2424 2.70389C10.3348 2.80422 10.4054 2.92262 10.4498 3.05162C10.4941 3.18061 10.5112 3.3174 10.5 3.45334V10.88H11.7V2.21334C11.7284 1.96802 11.8459 1.74169 12.0303 1.5774C12.2147 1.41311 12.453 1.32233 12.7 1.32233C12.9469 1.32233 13.1853 1.41311 13.3697 1.5774C13.5541 1.74169 13.6716 1.96802 13.7 2.21334V10.9667H14.9V4.00001C14.889 3.86856 14.9053 3.73626 14.9481 3.61147C14.9908 3.48668 15.059 3.37211 15.1483 3.27502C15.2376 3.17793 15.346 3.10043 15.4668 3.04741C15.5876 2.99439 15.7181 2.96702 15.85 2.96702C15.9819 2.96702 16.1124 2.99439 16.2331 3.04741C16.3539 3.10043 16.4624 3.17793 16.5517 3.27502C16.641 3.37211 16.7092 3.48668 16.7519 3.61147C16.7946 3.73626 16.811 3.86856 16.8 4.00001V11.6267H18V5.69334C18.0192 5.47231 18.1206 5.26652 18.2841 5.11659C18.4477 4.96666 18.6615 4.88348 18.8833 4.88348C19.1052 4.88348 19.319 4.96666 19.4825 5.11659C19.646 5.26652 19.7474 5.47231 19.7667 5.69334V9.39334C19.7467 13.3333 19.4267 16.14 18.7867 18.08V18.08Z" fill="#8C8F90"/>
</svg>
