<svg width="24" height="24" viewBox="0 0 24 24" fill="none" xmlns="http://www.w3.org/2000/svg">
<mask id="mask0_695_12400" style="mask-type:alpha" maskUnits="userSpaceOnUse" x="2" y="2" width="20" height="20">
<path fill-rule="evenodd" clip-rule="evenodd" d="M2 2H21.4768V21.477H2V2Z" fill="white"/>
</mask>
<g mask="url(#mask0_695_12400)">
<path fill-rule="evenodd" clip-rule="evenodd" d="M11.5003 3.46326C7.06856 3.46326 3.46308 7.06776 3.46308 11.4995C3.46308 15.9312 7.06856 19.5367 11.5003 19.5367C15.9311 19.5367 19.5366 15.9312 19.5366 11.4995C19.5366 7.06776 15.9311 3.46326 11.5003 3.46326M11.5003 21C6.26182 21 1.99982 16.738 1.99982 11.4995C1.99982 6.26103 6.26182 2 11.5003 2C16.7388 2 20.9998 6.26103 20.9998 11.4995C20.9998 16.738 16.7388 21 11.5003 21" fill="#8C8F90"/>
</g>
<mask id="mask1_695_12400" style="mask-type:alpha" maskUnits="userSpaceOnUse" x="17" y="17" width="6" height="6">
<path fill-rule="evenodd" clip-rule="evenodd" d="M17.2399 17.7069H22.264V22.7217H17.2399V17.7069Z" fill="white"/>
</mask>
<g mask="url(#mask1_695_12400)">
<path fill-rule="evenodd" clip-rule="evenodd" d="M21.5142 22.7217C21.3232 22.7217 21.1312 22.6487 20.9842 22.5027L17.4602 18.9887C17.1672 18.6957 17.1662 18.2207 17.4592 17.9277C17.7512 17.6327 18.2262 17.6347 18.5202 17.9257L22.0442 21.4407C22.3372 21.7337 22.3382 22.2077 22.0452 22.5007C21.8992 22.6487 21.7062 22.7217 21.5142 22.7217" fill="#8C8F90"/>
</g>
<path fill-rule="evenodd" clip-rule="evenodd" d="M11.4165 16.1543C11.0025 16.1543 10.6665 15.8183 10.6665 15.4043V8.0773C10.6665 7.6633 11.0025 7.3273 11.4165 7.3273C11.8305 7.3273 12.1665 7.6633 12.1665 8.0773V15.4043C12.1665 15.8183 11.8305 16.1543 11.4165 16.1543" fill="#8C8F90"/>
<path fill-rule="evenodd" clip-rule="evenodd" d="M15.083 12.4902H7.75C7.335 12.4902 7 12.1542 7 11.7402C7 11.3262 7.335 10.9902 7.75 10.9902H15.083C15.497 10.9902 15.833 11.3262 15.833 11.7402C15.833 12.1542 15.497 12.4902 15.083 12.4902" fill="#8C8F90"/>
</svg>
