<svg width="202" height="35" viewBox="0 0 202 35" fill="none" xmlns="http://www.w3.org/2000/svg">
<path d="M48.952 14.461C48.952 14.841 48.99 15.126 49.066 15.316C49.142 15.4933 49.2813 15.6137 49.484 15.677C49.6993 15.7403 50.035 15.772 50.491 15.772C50.5163 15.772 50.529 15.81 50.529 15.886C50.529 15.962 50.5163 16 50.491 16C50.0857 16 49.769 15.9937 49.541 15.981L48.173 15.962L46.843 15.981C46.6023 15.9937 46.273 16 45.855 16C45.8297 16 45.817 15.962 45.817 15.886C45.817 15.81 45.8297 15.772 45.855 15.772C46.311 15.772 46.6467 15.7403 46.862 15.677C47.0773 15.6137 47.223 15.4933 47.299 15.316C47.375 15.126 47.413 14.841 47.413 14.461V5.664C47.413 5.284 47.375 5.00533 47.299 4.828C47.223 4.65067 47.0773 4.53033 46.862 4.467C46.6467 4.391 46.311 4.353 45.855 4.353C45.8297 4.353 45.817 4.315 45.817 4.239C45.817 4.163 45.8297 4.125 45.855 4.125L46.843 4.144C47.4003 4.16933 47.8437 4.182 48.173 4.182C48.5403 4.182 49.0027 4.16933 49.56 4.144L50.491 4.125C50.5163 4.125 50.529 4.163 50.529 4.239C50.529 4.315 50.5163 4.353 50.491 4.353C50.0477 4.353 49.7183 4.391 49.503 4.467C49.2877 4.543 49.142 4.676 49.066 4.866C48.99 5.04333 48.952 5.322 48.952 5.702V14.461ZM67.8753 15.772C67.9006 15.772 67.9133 15.81 67.9133 15.886C67.9133 15.962 67.9006 16 67.8753 16C67.4699 16 67.1469 15.9937 66.9063 15.981L65.5573 15.962L64.2843 15.981C64.0689 15.9937 63.7713 16 63.3913 16C63.3533 16 63.3343 15.962 63.3343 15.886C63.3343 15.81 63.3533 15.772 63.3913 15.772C63.9486 15.772 64.3223 15.7087 64.5123 15.582C64.7149 15.4553 64.8163 15.1893 64.8163 14.784L64.7973 14.461L64.4363 6.101L60.2373 15.867C60.2119 15.9177 60.1613 15.943 60.0853 15.943C60.0093 15.943 59.9586 15.9177 59.9333 15.867L55.2023 6.177L55.0503 13.815C55.0376 14.4863 55.1579 14.9803 55.4113 15.297C55.6646 15.6137 56.0763 15.772 56.6463 15.772C56.6843 15.772 56.7033 15.81 56.7033 15.886C56.7033 15.962 56.6843 16 56.6463 16C56.3043 16 56.0383 15.9937 55.8483 15.981L54.8033 15.962L53.7583 15.981C53.5809 15.9937 53.3213 16 52.9793 16C52.9539 16 52.9413 15.962 52.9413 15.886C52.9413 15.81 52.9539 15.772 52.9793 15.772C54.0306 15.772 54.5626 15.1197 54.5753 13.815L54.7463 5.303C54.3409 4.66967 53.7963 4.353 53.1123 4.353C53.0869 4.353 53.0743 4.315 53.0743 4.239C53.0743 4.163 53.0869 4.125 53.1123 4.125L53.8723 4.144C54.0243 4.15667 54.2206 4.163 54.4613 4.163C54.7399 4.163 54.9679 4.15667 55.1453 4.144C55.3226 4.13133 55.4619 4.125 55.5633 4.125C55.7279 4.125 55.8609 4.182 55.9623 4.296C56.0636 4.41 56.2219 4.68233 56.4373 5.113L60.6553 13.682L64.6263 4.6C64.7529 4.28333 64.9429 4.125 65.1963 4.125C65.2723 4.125 65.3736 4.13133 65.5003 4.144C65.6269 4.15667 65.7916 4.163 65.9943 4.163L66.9633 4.144C67.1153 4.13133 67.3369 4.125 67.6283 4.125C67.6663 4.125 67.6853 4.163 67.6853 4.239C67.6853 4.315 67.6663 4.353 67.6283 4.353C67.0076 4.353 66.5579 4.45433 66.2793 4.657C66.0133 4.85967 65.8866 5.21433 65.8993 5.721L66.3173 14.461C66.3426 14.8537 66.3933 15.1387 66.4693 15.316C66.5453 15.4933 66.6846 15.6137 66.8873 15.677C67.0899 15.7403 67.4193 15.772 67.8753 15.772ZM73.0584 14.385C73.0584 14.7903 73.1091 15.088 73.2104 15.278C73.3117 15.4553 73.5017 15.582 73.7804 15.658C74.0717 15.734 74.5341 15.772 75.1674 15.772C75.2054 15.772 75.2244 15.81 75.2244 15.886C75.2244 15.962 75.2054 16 75.1674 16C74.6481 16 74.2427 15.9937 73.9514 15.981L72.2984 15.962L70.9874 15.981C70.7467 15.9937 70.4174 16 69.9994 16C69.9741 16 69.9614 15.962 69.9614 15.886C69.9614 15.81 69.9741 15.772 69.9994 15.772C70.4554 15.772 70.7847 15.7403 70.9874 15.677C71.2027 15.6137 71.3484 15.4933 71.4244 15.316C71.5004 15.126 71.5384 14.841 71.5384 14.461V5.664C71.5384 5.284 71.5004 5.00533 71.4244 4.828C71.3484 4.65067 71.2027 4.53033 70.9874 4.467C70.7847 4.391 70.4554 4.353 69.9994 4.353C69.9741 4.353 69.9614 4.315 69.9614 4.239C69.9614 4.163 69.9741 4.125 69.9994 4.125L70.9874 4.144C71.5194 4.16933 71.9501 4.182 72.2794 4.182C72.5834 4.182 72.9444 4.163 73.3624 4.125C73.5144 4.125 73.7487 4.11867 74.0654 4.106C74.3947 4.08067 74.6797 4.068 74.9204 4.068C76.1111 4.068 77.0674 4.334 77.7894 4.866C78.5114 5.38533 78.8724 6.177 78.8724 7.241C78.8724 8.06433 78.6634 8.761 78.2454 9.331C77.8401 9.901 77.3144 10.3253 76.6684 10.604C76.0351 10.8827 75.3764 11.022 74.6924 11.022C74.3251 11.022 74.0211 10.9903 73.7804 10.927C73.7424 10.927 73.7234 10.8953 73.7234 10.832C73.7234 10.794 73.7297 10.756 73.7424 10.718C73.7677 10.68 73.7931 10.6673 73.8184 10.68C74.0211 10.7307 74.2491 10.756 74.5024 10.756C75.2497 10.756 75.8831 10.4837 76.4024 9.939C76.9217 9.39433 77.1814 8.609 77.1814 7.583C77.1814 6.58233 76.9281 5.80333 76.4214 5.246C75.9147 4.676 75.2434 4.391 74.4074 4.391C74.0274 4.391 73.7424 4.42267 73.5524 4.486C73.3751 4.53667 73.2484 4.657 73.1724 4.847C73.0964 5.02433 73.0584 5.30933 73.0584 5.702V14.385ZM89.7385 13.112C89.7385 13.0867 89.7638 13.074 89.8145 13.074C89.8525 13.074 89.8841 13.0867 89.9095 13.112C89.9475 13.1247 89.9665 13.1373 89.9665 13.15C89.8398 14.062 89.7765 14.917 89.7765 15.715C89.7765 15.8163 89.7575 15.8923 89.7195 15.943C89.6815 15.981 89.6055 16 89.4915 16H81.3975C81.3595 16 81.3405 15.962 81.3405 15.886C81.3405 15.81 81.3595 15.772 81.3975 15.772C81.8535 15.772 82.1828 15.7403 82.3855 15.677C82.5881 15.6137 82.7275 15.4933 82.8035 15.316C82.8795 15.126 82.9175 14.841 82.9175 14.461V5.664C82.9175 5.284 82.8795 5.00533 82.8035 4.828C82.7275 4.65067 82.5818 4.53033 82.3665 4.467C82.1638 4.391 81.8408 4.353 81.3975 4.353C81.3595 4.353 81.3405 4.315 81.3405 4.239C81.3405 4.163 81.3595 4.125 81.3975 4.125H89.1495C89.2761 4.125 89.3395 4.182 89.3395 4.296L89.3775 6.69C89.3775 6.728 89.3395 6.75333 89.2635 6.766C89.2001 6.766 89.1621 6.747 89.1495 6.709C89.0608 6.01233 88.8138 5.48667 88.4085 5.132C88.0031 4.76467 87.4711 4.581 86.8125 4.581H85.8435C85.2861 4.581 84.9125 4.66333 84.7225 4.828C84.5325 4.98 84.4375 5.284 84.4375 5.74V9.597H86.5275C87.1735 9.597 87.6485 9.48933 87.9525 9.274C88.2565 9.046 88.4085 8.69767 88.4085 8.229C88.4085 8.20367 88.4401 8.191 88.5035 8.191C88.5795 8.191 88.6175 8.20367 88.6175 8.229L88.5985 9.825L88.6175 10.68C88.6428 11.0853 88.6555 11.402 88.6555 11.63C88.6555 11.6553 88.6175 11.668 88.5415 11.668C88.4655 11.668 88.4275 11.6553 88.4275 11.63C88.4275 11.0853 88.2691 10.6863 87.9525 10.433C87.6485 10.167 87.1545 10.034 86.4705 10.034H84.4375V14.385C84.4375 14.841 84.5198 15.1513 84.6845 15.316C84.8618 15.4807 85.2101 15.563 85.7295 15.563H86.9645C87.6865 15.563 88.2818 15.354 88.7505 14.936C89.2318 14.5053 89.5611 13.8973 89.7385 13.112ZM104.957 15.772C104.983 15.772 104.995 15.81 104.995 15.886C104.995 15.962 104.983 16 104.957 16H102.202C101.898 16 101.322 15.4617 100.473 14.385C99.6373 13.2957 98.6367 11.8073 97.4713 9.92C97.18 9.98333 96.9013 10.015 96.6353 10.015C96.3947 10.015 96.0843 10.0023 95.7043 9.977V14.461C95.7043 14.841 95.7423 15.126 95.8183 15.316C95.8943 15.4933 96.0337 15.6137 96.2363 15.677C96.4517 15.7403 96.7873 15.772 97.2433 15.772C97.2813 15.772 97.3003 15.81 97.3003 15.886C97.3003 15.962 97.2813 16 97.2433 16C96.8507 16 96.5403 15.9937 96.3123 15.981L94.9443 15.962L93.6143 15.981C93.3737 15.9937 93.0507 16 92.6453 16C92.6073 16 92.5883 15.962 92.5883 15.886C92.5883 15.81 92.6073 15.772 92.6453 15.772C93.1013 15.772 93.437 15.7403 93.6523 15.677C93.8677 15.6137 94.0133 15.4933 94.0893 15.316C94.1653 15.126 94.2033 14.841 94.2033 14.461V5.664C94.2033 5.284 94.1653 5.00533 94.0893 4.828C94.0133 4.65067 93.8677 4.53033 93.6523 4.467C93.4497 4.391 93.1203 4.353 92.6643 4.353C92.639 4.353 92.6263 4.315 92.6263 4.239C92.6263 4.163 92.639 4.125 92.6643 4.125L93.6143 4.144C94.1717 4.16933 94.615 4.182 94.9443 4.182C95.1723 4.182 95.3877 4.17567 95.5903 4.163C95.793 4.15033 95.9703 4.13767 96.1223 4.125C96.5403 4.087 96.933 4.068 97.3003 4.068C98.377 4.068 99.2067 4.28333 99.7893 4.714C100.372 5.132 100.663 5.71467 100.663 6.462C100.663 7.05733 100.486 7.621 100.131 8.153C99.7767 8.685 99.3143 9.11567 98.7443 9.445C99.8083 11.0537 100.695 12.314 101.404 13.226C102.126 14.1253 102.766 14.7777 103.323 15.183C103.881 15.5757 104.425 15.772 104.957 15.772ZM95.7043 9.483C96.1857 9.53367 96.5593 9.559 96.8253 9.559C97.636 9.559 98.2123 9.38167 98.5543 9.027C98.909 8.65967 99.0863 8.03267 99.0863 7.146C99.0863 6.14533 98.8963 5.436 98.5163 5.018C98.1363 4.6 97.6107 4.391 96.9393 4.391C96.61 4.391 96.3567 4.42267 96.1793 4.486C96.0147 4.54933 95.8943 4.676 95.8183 4.866C95.7423 5.04333 95.7043 5.322 95.7043 5.702V9.483ZM109.663 14.461C109.663 14.841 109.701 15.126 109.777 15.316C109.853 15.4933 109.992 15.6137 110.195 15.677C110.41 15.7403 110.746 15.772 111.202 15.772C111.227 15.772 111.24 15.81 111.24 15.886C111.24 15.962 111.227 16 111.202 16C110.797 16 110.48 15.9937 110.252 15.981L108.884 15.962L107.554 15.981C107.313 15.9937 106.984 16 106.566 16C106.541 16 106.528 15.962 106.528 15.886C106.528 15.81 106.541 15.772 106.566 15.772C107.022 15.772 107.358 15.7403 107.573 15.677C107.788 15.6137 107.934 15.4933 108.01 15.316C108.086 15.126 108.124 14.841 108.124 14.461V5.664C108.124 5.284 108.086 5.00533 108.01 4.828C107.934 4.65067 107.788 4.53033 107.573 4.467C107.358 4.391 107.022 4.353 106.566 4.353C106.541 4.353 106.528 4.315 106.528 4.239C106.528 4.163 106.541 4.125 106.566 4.125L107.554 4.144C108.111 4.16933 108.555 4.182 108.884 4.182C109.251 4.182 109.714 4.16933 110.271 4.144L111.202 4.125C111.227 4.125 111.24 4.163 111.24 4.239C111.24 4.315 111.227 4.353 111.202 4.353C110.759 4.353 110.429 4.391 110.214 4.467C109.999 4.543 109.853 4.676 109.777 4.866C109.701 5.04333 109.663 5.322 109.663 5.702V14.461ZM126.42 15.772C126.471 15.772 126.496 15.81 126.496 15.886C126.496 15.962 126.471 16 126.42 16C126.18 16 125.793 15.9873 125.261 15.962C124.755 15.9367 124.381 15.924 124.14 15.924C123.849 15.924 123.488 15.9367 123.057 15.962C122.627 15.9873 122.304 16 122.088 16C122.038 16 122.012 15.962 122.012 15.886C122.012 15.81 122.038 15.772 122.088 15.772C122.519 15.772 122.829 15.734 123.019 15.658C123.209 15.5693 123.304 15.4173 123.304 15.202C123.304 14.9867 123.209 14.689 123.019 14.309L120.891 9.901H117.395L115.837 13.492C115.66 13.91 115.571 14.2583 115.571 14.537C115.571 15.3603 116.186 15.772 117.414 15.772C117.478 15.772 117.509 15.81 117.509 15.886C117.509 15.962 117.478 16 117.414 16C117.186 16 116.857 15.9873 116.426 15.962C115.945 15.9367 115.527 15.924 115.172 15.924C114.843 15.924 114.45 15.9367 113.994 15.962C113.589 15.9873 113.26 16 113.006 16C112.956 16 112.93 15.962 112.93 15.886C112.93 15.81 112.956 15.772 113.006 15.772C113.361 15.772 113.659 15.7023 113.899 15.563C114.153 15.4237 114.393 15.183 114.621 14.841C114.849 14.499 115.109 13.9923 115.4 13.321L119.447 3.992C119.46 3.954 119.504 3.935 119.58 3.935C119.656 3.92233 119.701 3.94133 119.713 3.992L124.292 13.397C124.723 14.3217 125.09 14.9487 125.394 15.278C125.698 15.6073 126.04 15.772 126.42 15.772ZM117.566 9.464H120.682L119.048 6.044L117.566 9.464ZM131.076 14.385C131.076 14.7397 131.108 14.9993 131.171 15.164C131.247 15.316 131.38 15.4237 131.57 15.487C131.76 15.5377 132.058 15.563 132.463 15.563H134.078C134.876 15.563 135.535 15.3287 136.054 14.86C136.586 14.3787 136.941 13.7327 137.118 12.922C137.118 12.884 137.15 12.8713 137.213 12.884C137.289 12.884 137.327 12.903 137.327 12.941C137.213 14.0557 137.156 14.9803 137.156 15.715C137.156 15.8163 137.131 15.8923 137.08 15.943C137.042 15.981 136.973 16 136.871 16H128.017C127.992 16 127.979 15.962 127.979 15.886C127.979 15.81 127.992 15.772 128.017 15.772C128.473 15.772 128.803 15.7403 129.005 15.677C129.221 15.6137 129.366 15.4933 129.442 15.316C129.518 15.126 129.556 14.841 129.556 14.461V5.664C129.556 5.284 129.518 5.00533 129.442 4.828C129.366 4.65067 129.221 4.53033 129.005 4.467C128.803 4.391 128.473 4.353 128.017 4.353C127.992 4.353 127.979 4.315 127.979 4.239C127.979 4.163 127.992 4.125 128.017 4.125L128.967 4.144C129.525 4.16933 129.974 4.182 130.316 4.182C130.658 4.182 131.108 4.16933 131.665 4.144L132.615 4.125C132.641 4.125 132.653 4.163 132.653 4.239C132.653 4.315 132.641 4.353 132.615 4.353C132.172 4.353 131.843 4.391 131.627 4.467C131.412 4.53033 131.266 4.657 131.19 4.847C131.114 5.02433 131.076 5.303 131.076 5.683V14.385ZM52.923 20.916C53.5057 20.916 54.1073 20.973 54.728 21.087C55.3487 21.1883 55.8427 21.334 56.21 21.524C56.3113 21.5747 56.3747 21.6317 56.4 21.695C56.438 21.7457 56.4697 21.8407 56.495 21.98L56.704 24.279C56.704 24.317 56.6723 24.3423 56.609 24.355C56.5457 24.355 56.5077 24.336 56.495 24.298C56.1657 23.31 55.6273 22.5753 54.88 22.094C54.1327 21.6 53.2333 21.353 52.182 21.353C51.2573 21.353 50.453 21.5683 49.769 21.999C49.085 22.417 48.5593 23.0123 48.192 23.785C47.8373 24.5577 47.66 25.4507 47.66 26.464C47.66 27.642 47.888 28.725 48.344 29.713C48.8 30.701 49.4143 31.4863 50.187 32.069C50.9723 32.639 51.8273 32.924 52.752 32.924C54.576 32.924 55.8807 31.879 56.666 29.789C56.666 29.751 56.6913 29.732 56.742 29.732C56.78 29.732 56.8117 29.7383 56.837 29.751C56.875 29.7637 56.894 29.7827 56.894 29.808L56.628 32.107C56.6027 32.259 56.571 32.3603 56.533 32.411C56.5077 32.449 56.438 32.4933 56.324 32.544C55.1587 33 53.968 33.228 52.752 33.228C51.2193 33.228 49.94 32.924 48.914 32.316C47.888 31.6953 47.1343 30.91 46.653 29.96C46.1717 29.01 45.931 28.0157 45.931 26.977C45.931 25.799 46.254 24.754 46.9 23.842C47.5587 22.9173 48.42 22.2017 49.484 21.695C50.5607 21.1757 51.707 20.916 52.923 20.916ZM72.055 32.772C72.1056 32.772 72.131 32.81 72.131 32.886C72.131 32.962 72.1056 33 72.055 33C71.8143 33 71.428 32.9873 70.896 32.962C70.3893 32.9367 70.0156 32.924 69.775 32.924C69.4836 32.924 69.1226 32.9367 68.692 32.962C68.2613 32.9873 67.9383 33 67.723 33C67.6723 33 67.647 32.962 67.647 32.886C67.647 32.81 67.6723 32.772 67.723 32.772C68.1536 32.772 68.464 32.734 68.654 32.658C68.844 32.5693 68.939 32.4173 68.939 32.202C68.939 31.9867 68.844 31.689 68.654 31.309L66.526 26.901H63.03L61.472 30.492C61.2946 30.91 61.206 31.2583 61.206 31.537C61.206 32.3603 61.8203 32.772 63.049 32.772C63.1123 32.772 63.144 32.81 63.144 32.886C63.144 32.962 63.1123 33 63.049 33C62.821 33 62.4916 32.9873 62.061 32.962C61.5796 32.9367 61.1616 32.924 60.807 32.924C60.4776 32.924 60.085 32.9367 59.629 32.962C59.2236 32.9873 58.8943 33 58.641 33C58.5903 33 58.565 32.962 58.565 32.886C58.565 32.81 58.5903 32.772 58.641 32.772C58.9956 32.772 59.2933 32.7023 59.534 32.563C59.7873 32.4237 60.028 32.183 60.256 31.841C60.484 31.499 60.7436 30.9923 61.035 30.321L65.082 20.992C65.0946 20.954 65.139 20.935 65.215 20.935C65.291 20.9223 65.3353 20.9413 65.348 20.992L69.927 30.397C70.3576 31.3217 70.725 31.9487 71.029 32.278C71.333 32.6073 71.675 32.772 72.055 32.772ZM63.201 26.464H66.317L64.683 23.044L63.201 26.464ZM76.825 31.385C76.825 31.7903 76.8757 32.088 76.977 32.278C77.0783 32.4553 77.2683 32.582 77.547 32.658C77.8383 32.734 78.3007 32.772 78.934 32.772C78.972 32.772 78.991 32.81 78.991 32.886C78.991 32.962 78.972 33 78.934 33C78.4147 33 78.0093 32.9937 77.718 32.981L76.065 32.962L74.754 32.981C74.5133 32.9937 74.184 33 73.766 33C73.7407 33 73.728 32.962 73.728 32.886C73.728 32.81 73.7407 32.772 73.766 32.772C74.222 32.772 74.5513 32.7403 74.754 32.677C74.9693 32.6137 75.115 32.4933 75.191 32.316C75.267 32.126 75.305 31.841 75.305 31.461V22.664C75.305 22.284 75.267 22.0053 75.191 21.828C75.115 21.6507 74.9693 21.5303 74.754 21.467C74.5513 21.391 74.222 21.353 73.766 21.353C73.7407 21.353 73.728 21.315 73.728 21.239C73.728 21.163 73.7407 21.125 73.766 21.125L74.754 21.144C75.286 21.1693 75.7167 21.182 76.046 21.182C76.35 21.182 76.711 21.163 77.129 21.125C77.281 21.125 77.5153 21.1187 77.832 21.106C78.1613 21.0807 78.4463 21.068 78.687 21.068C79.8777 21.068 80.834 21.334 81.556 21.866C82.278 22.3853 82.639 23.177 82.639 24.241C82.639 25.0643 82.43 25.761 82.012 26.331C81.6067 26.901 81.081 27.3253 80.435 27.604C79.8017 27.8827 79.143 28.022 78.459 28.022C78.0917 28.022 77.7877 27.9903 77.547 27.927C77.509 27.927 77.49 27.8953 77.49 27.832C77.49 27.794 77.4963 27.756 77.509 27.718C77.5343 27.68 77.5597 27.6673 77.585 27.68C77.7877 27.7307 78.0157 27.756 78.269 27.756C79.0163 27.756 79.6497 27.4837 80.169 26.939C80.6883 26.3943 80.948 25.609 80.948 24.583C80.948 23.5823 80.6947 22.8033 80.188 22.246C79.6813 21.676 79.01 21.391 78.174 21.391C77.794 21.391 77.509 21.4227 77.319 21.486C77.1417 21.5367 77.015 21.657 76.939 21.847C76.863 22.0243 76.825 22.3093 76.825 22.702V31.385ZM88.2991 31.461C88.2991 31.841 88.3371 32.126 88.4131 32.316C88.4891 32.4933 88.6284 32.6137 88.8311 32.677C89.0464 32.7403 89.3821 32.772 89.8381 32.772C89.8634 32.772 89.8761 32.81 89.8761 32.886C89.8761 32.962 89.8634 33 89.8381 33C89.4327 33 89.1161 32.9937 88.8881 32.981L87.5201 32.962L86.1901 32.981C85.9494 32.9937 85.6201 33 85.2021 33C85.1767 33 85.1641 32.962 85.1641 32.886C85.1641 32.81 85.1767 32.772 85.2021 32.772C85.6581 32.772 85.9937 32.7403 86.2091 32.677C86.4244 32.6137 86.5701 32.4933 86.6461 32.316C86.7221 32.126 86.7601 31.841 86.7601 31.461V22.664C86.7601 22.284 86.7221 22.0053 86.6461 21.828C86.5701 21.6507 86.4244 21.5303 86.2091 21.467C85.9937 21.391 85.6581 21.353 85.2021 21.353C85.1767 21.353 85.1641 21.315 85.1641 21.239C85.1641 21.163 85.1767 21.125 85.2021 21.125L86.1901 21.144C86.7474 21.1693 87.1907 21.182 87.5201 21.182C87.8874 21.182 88.3497 21.1693 88.9071 21.144L89.8381 21.125C89.8634 21.125 89.8761 21.163 89.8761 21.239C89.8761 21.315 89.8634 21.353 89.8381 21.353C89.3947 21.353 89.0654 21.391 88.8501 21.467C88.6347 21.543 88.4891 21.676 88.4131 21.866C88.3371 22.0433 88.2991 22.322 88.2991 22.702V31.461ZM95.4423 21.505C94.657 21.505 94.0427 21.7267 93.5993 22.17C93.156 22.6007 92.8267 23.2973 92.6113 24.26C92.5987 24.2853 92.5543 24.298 92.4783 24.298C92.415 24.298 92.3833 24.2853 92.3833 24.26C92.434 23.8927 92.491 23.31 92.5543 22.512C92.6177 21.714 92.6493 21.1123 92.6493 20.707C92.6493 20.6437 92.6873 20.612 92.7633 20.612C92.8393 20.612 92.8773 20.6437 92.8773 20.707C92.8773 20.9857 93.2257 21.125 93.9223 21.125C94.999 21.163 96.272 21.182 97.7413 21.182C98.4887 21.182 99.2803 21.1693 100.116 21.144L101.408 21.125C101.877 21.125 102.219 21.0933 102.434 21.03C102.65 20.9667 102.789 20.84 102.852 20.65C102.865 20.5993 102.903 20.574 102.966 20.574C103.042 20.574 103.08 20.5993 103.08 20.65C103.042 21.0047 102.998 21.5747 102.947 22.36C102.909 23.1453 102.89 23.7787 102.89 24.26C102.89 24.2853 102.852 24.298 102.776 24.298C102.713 24.298 102.681 24.2853 102.681 24.26C102.593 23.2847 102.339 22.5817 101.921 22.151C101.503 21.7203 100.883 21.505 100.059 21.505C99.5907 21.505 99.255 21.5367 99.0523 21.6C98.8497 21.6507 98.7103 21.7583 98.6343 21.923C98.5583 22.075 98.5203 22.3347 98.5203 22.702V31.461C98.5203 31.8537 98.5583 32.1387 98.6343 32.316C98.723 32.4933 98.8877 32.6137 99.1283 32.677C99.369 32.7403 99.7553 32.772 100.287 32.772C100.313 32.772 100.325 32.81 100.325 32.886C100.325 32.962 100.313 33 100.287 33C99.844 33 99.4957 32.9937 99.2423 32.981L97.7413 32.962L96.2783 32.981C96.025 32.9937 95.6703 33 95.2143 33C95.1763 33 95.1573 32.962 95.1573 32.886C95.1573 32.81 95.1763 32.772 95.2143 32.772C95.7337 32.772 96.1137 32.7403 96.3543 32.677C96.595 32.6137 96.7597 32.4933 96.8483 32.316C96.937 32.126 96.9813 31.841 96.9813 31.461V22.664C96.9813 22.3093 96.9433 22.056 96.8673 21.904C96.7913 21.7393 96.652 21.6317 96.4493 21.581C96.2467 21.5303 95.911 21.505 95.4423 21.505ZM116.768 32.772C116.819 32.772 116.844 32.81 116.844 32.886C116.844 32.962 116.819 33 116.768 33C116.527 33 116.141 32.9873 115.609 32.962C115.102 32.9367 114.729 32.924 114.488 32.924C114.197 32.924 113.836 32.9367 113.405 32.962C112.974 32.9873 112.651 33 112.436 33C112.385 33 112.36 32.962 112.36 32.886C112.36 32.81 112.385 32.772 112.436 32.772C112.867 32.772 113.177 32.734 113.367 32.658C113.557 32.5693 113.652 32.4173 113.652 32.202C113.652 31.9867 113.557 31.689 113.367 31.309L111.239 26.901H107.743L106.185 30.492C106.008 30.91 105.919 31.2583 105.919 31.537C105.919 32.3603 106.533 32.772 107.762 32.772C107.825 32.772 107.857 32.81 107.857 32.886C107.857 32.962 107.825 33 107.762 33C107.534 33 107.205 32.9873 106.774 32.962C106.293 32.9367 105.875 32.924 105.52 32.924C105.191 32.924 104.798 32.9367 104.342 32.962C103.937 32.9873 103.607 33 103.354 33C103.303 33 103.278 32.962 103.278 32.886C103.278 32.81 103.303 32.772 103.354 32.772C103.709 32.772 104.006 32.7023 104.247 32.563C104.5 32.4237 104.741 32.183 104.969 31.841C105.197 31.499 105.457 30.9923 105.748 30.321L109.795 20.992C109.808 20.954 109.852 20.935 109.928 20.935C110.004 20.9223 110.048 20.9413 110.061 20.992L114.64 30.397C115.071 31.3217 115.438 31.9487 115.742 32.278C116.046 32.6073 116.388 32.772 116.768 32.772ZM107.914 26.464H111.03L109.396 23.044L107.914 26.464ZM121.424 31.385C121.424 31.7397 121.456 31.9993 121.519 32.164C121.595 32.316 121.728 32.4237 121.918 32.487C122.108 32.5377 122.406 32.563 122.811 32.563H124.426C125.224 32.563 125.883 32.3287 126.402 31.86C126.934 31.3787 127.289 30.7327 127.466 29.922C127.466 29.884 127.498 29.8713 127.561 29.884C127.637 29.884 127.675 29.903 127.675 29.941C127.561 31.0557 127.504 31.9803 127.504 32.715C127.504 32.8163 127.479 32.8923 127.428 32.943C127.39 32.981 127.32 33 127.219 33H118.365C118.34 33 118.327 32.962 118.327 32.886C118.327 32.81 118.34 32.772 118.365 32.772C118.821 32.772 119.15 32.7403 119.353 32.677C119.568 32.6137 119.714 32.4933 119.79 32.316C119.866 32.126 119.904 31.841 119.904 31.461V22.664C119.904 22.284 119.866 22.0053 119.79 21.828C119.714 21.6507 119.568 21.5303 119.353 21.467C119.15 21.391 118.821 21.353 118.365 21.353C118.34 21.353 118.327 21.315 118.327 21.239C118.327 21.163 118.34 21.125 118.365 21.125L119.315 21.144C119.872 21.1693 120.322 21.182 120.664 21.182C121.006 21.182 121.456 21.1693 122.013 21.144L122.963 21.125C122.988 21.125 123.001 21.163 123.001 21.239C123.001 21.315 122.988 21.353 122.963 21.353C122.52 21.353 122.19 21.391 121.975 21.467C121.76 21.5303 121.614 21.657 121.538 21.847C121.462 22.0243 121.424 22.303 121.424 22.683V31.385ZM142.01 33.228C140.63 33.228 139.426 32.962 138.4 32.43C137.374 31.898 136.589 31.176 136.044 30.264C135.5 29.352 135.227 28.3323 135.227 27.205C135.227 25.9763 135.538 24.887 136.158 23.937C136.792 22.987 137.653 22.246 138.742 21.714C139.844 21.182 141.079 20.916 142.447 20.916C143.055 20.916 143.644 20.973 144.214 21.087C144.797 21.201 145.272 21.353 145.639 21.543C145.741 21.6063 145.804 21.6633 145.829 21.714C145.855 21.7647 145.874 21.8533 145.886 21.98L146.133 24.279C146.133 24.317 146.095 24.3423 146.019 24.355C145.956 24.355 145.918 24.336 145.905 24.298C145.576 23.3607 145.038 22.6387 144.29 22.132C143.543 21.6253 142.644 21.372 141.592 21.372C140.098 21.372 138.945 21.828 138.134 22.74C137.324 23.652 136.918 24.906 136.918 26.502C136.918 27.7433 137.159 28.8517 137.64 29.827C138.122 30.7897 138.78 31.5433 139.616 32.088C140.465 32.6327 141.421 32.905 142.485 32.905C143.093 32.905 143.562 32.848 143.891 32.734C144.221 32.62 144.461 32.3983 144.613 32.069C144.765 31.7397 144.841 31.252 144.841 30.606C144.841 29.9473 144.797 29.4913 144.708 29.238C144.632 28.972 144.455 28.7947 144.176 28.706C143.91 28.6173 143.442 28.573 142.77 28.573C142.694 28.573 142.656 28.5223 142.656 28.421C142.656 28.383 142.663 28.3513 142.675 28.326C142.701 28.288 142.726 28.269 142.751 28.269C143.765 28.3323 144.588 28.364 145.221 28.364C145.817 28.364 146.45 28.345 147.121 28.307C147.147 28.307 147.166 28.326 147.178 28.364C147.204 28.3893 147.216 28.4147 147.216 28.44C147.216 28.5287 147.185 28.573 147.121 28.573C146.843 28.5603 146.646 28.6047 146.532 28.706C146.418 28.7947 146.342 28.9847 146.304 29.276C146.279 29.5673 146.266 30.074 146.266 30.796C146.266 31.366 146.285 31.7713 146.323 32.012C146.374 32.2527 146.399 32.4047 146.399 32.468C146.399 32.544 146.38 32.5947 146.342 32.62C146.317 32.6327 146.26 32.658 146.171 32.696C144.613 33.0507 143.226 33.228 142.01 33.228ZM161.976 32.772C162.001 32.772 162.014 32.81 162.014 32.886C162.014 32.962 162.001 33 161.976 33H159.221C158.917 33 158.341 32.4617 157.492 31.385C156.656 30.2957 155.655 28.8073 154.49 26.92C154.199 26.9833 153.92 27.015 153.654 27.015C153.413 27.015 153.103 27.0023 152.723 26.977V31.461C152.723 31.841 152.761 32.126 152.837 32.316C152.913 32.4933 153.052 32.6137 153.255 32.677C153.47 32.7403 153.806 32.772 154.262 32.772C154.3 32.772 154.319 32.81 154.319 32.886C154.319 32.962 154.3 33 154.262 33C153.869 33 153.559 32.9937 153.331 32.981L151.963 32.962L150.633 32.981C150.392 32.9937 150.069 33 149.664 33C149.626 33 149.607 32.962 149.607 32.886C149.607 32.81 149.626 32.772 149.664 32.772C150.12 32.772 150.456 32.7403 150.671 32.677C150.886 32.6137 151.032 32.4933 151.108 32.316C151.184 32.126 151.222 31.841 151.222 31.461V22.664C151.222 22.284 151.184 22.0053 151.108 21.828C151.032 21.6507 150.886 21.5303 150.671 21.467C150.468 21.391 150.139 21.353 149.683 21.353C149.658 21.353 149.645 21.315 149.645 21.239C149.645 21.163 149.658 21.125 149.683 21.125L150.633 21.144C151.19 21.1693 151.634 21.182 151.963 21.182C152.191 21.182 152.406 21.1757 152.609 21.163C152.812 21.1503 152.989 21.1377 153.141 21.125C153.559 21.087 153.952 21.068 154.319 21.068C155.396 21.068 156.225 21.2833 156.808 21.714C157.391 22.132 157.682 22.7147 157.682 23.462C157.682 24.0573 157.505 24.621 157.15 25.153C156.795 25.685 156.333 26.1157 155.763 26.445C156.827 28.0537 157.714 29.314 158.423 30.226C159.145 31.1253 159.785 31.7777 160.342 32.183C160.899 32.5757 161.444 32.772 161.976 32.772ZM152.723 26.483C153.204 26.5337 153.578 26.559 153.844 26.559C154.655 26.559 155.231 26.3817 155.573 26.027C155.928 25.6597 156.105 25.0327 156.105 24.146C156.105 23.1453 155.915 22.436 155.535 22.018C155.155 21.6 154.629 21.391 153.958 21.391C153.629 21.391 153.375 21.4227 153.198 21.486C153.033 21.5493 152.913 21.676 152.837 21.866C152.761 22.0433 152.723 22.322 152.723 22.702V26.483ZM168.793 33.228C167.615 33.228 166.564 32.9557 165.639 32.411C164.727 31.8537 164.018 31.1063 163.511 30.169C163.017 29.219 162.77 28.1867 162.77 27.072C162.77 25.7673 163.099 24.6527 163.758 23.728C164.417 22.7907 165.259 22.0877 166.285 21.619C167.324 21.1503 168.381 20.916 169.458 20.916C170.661 20.916 171.719 21.201 172.631 21.771C173.543 22.3283 174.24 23.0693 174.721 23.994C175.215 24.9187 175.462 25.9003 175.462 26.939C175.462 28.0917 175.158 29.1493 174.55 30.112C173.942 31.0747 173.125 31.8347 172.099 32.392C171.086 32.9493 169.984 33.228 168.793 33.228ZM169.458 32.81C170.269 32.81 170.997 32.601 171.643 32.183C172.289 31.765 172.796 31.157 173.163 30.359C173.543 29.5483 173.733 28.5857 173.733 27.471C173.733 26.293 173.524 25.2417 173.106 24.317C172.701 23.3923 172.112 22.6703 171.339 22.151C170.579 21.6317 169.692 21.372 168.679 21.372C167.362 21.372 166.336 21.8217 165.601 22.721C164.866 23.6077 164.499 24.8363 164.499 26.407C164.499 27.6103 164.708 28.6997 165.126 29.675C165.544 30.6503 166.127 31.4167 166.874 31.974C167.634 32.5313 168.495 32.81 169.458 32.81ZM188.204 23.329C188.204 22.683 188.058 22.1953 187.767 21.866C187.488 21.524 187.07 21.353 186.513 21.353C186.475 21.353 186.456 21.315 186.456 21.239C186.456 21.163 186.475 21.125 186.513 21.125L187.368 21.144C187.824 21.1693 188.185 21.182 188.451 21.182C188.679 21.182 189.008 21.1693 189.439 21.144L190.256 21.125C190.281 21.125 190.294 21.163 190.294 21.239C190.294 21.315 190.281 21.353 190.256 21.353C189.23 21.353 188.717 22.0117 188.717 23.329V28.687C188.717 30.1057 188.299 31.2203 187.463 32.031C186.639 32.8417 185.537 33.247 184.157 33.247C183.219 33.247 182.396 33.0697 181.687 32.715C180.977 32.3477 180.426 31.8283 180.034 31.157C179.641 30.473 179.445 29.675 179.445 28.763V22.664C179.445 22.284 179.407 22.0053 179.331 21.828C179.255 21.6507 179.109 21.5303 178.894 21.467C178.691 21.391 178.362 21.353 177.906 21.353C177.868 21.353 177.849 21.315 177.849 21.239C177.849 21.163 177.868 21.125 177.906 21.125L178.856 21.144C179.413 21.1693 179.856 21.182 180.186 21.182C180.54 21.182 180.996 21.1693 181.554 21.144L182.466 21.125C182.504 21.125 182.523 21.163 182.523 21.239C182.523 21.315 182.504 21.353 182.466 21.353C182.022 21.353 181.693 21.391 181.478 21.467C181.275 21.543 181.136 21.676 181.06 21.866C180.984 22.0433 180.946 22.322 180.946 22.702V28.098C180.946 29.5927 181.269 30.7263 181.915 31.499C182.573 32.259 183.492 32.639 184.67 32.639C185.772 32.639 186.633 32.297 187.254 31.613C187.887 30.9163 188.204 29.9473 188.204 28.706V23.329ZM195.389 31.385C195.389 31.7903 195.44 32.088 195.541 32.278C195.643 32.4553 195.833 32.582 196.111 32.658C196.403 32.734 196.865 32.772 197.498 32.772C197.536 32.772 197.555 32.81 197.555 32.886C197.555 32.962 197.536 33 197.498 33C196.979 33 196.574 32.9937 196.282 32.981L194.629 32.962L193.318 32.981C193.078 32.9937 192.748 33 192.33 33C192.305 33 192.292 32.962 192.292 32.886C192.292 32.81 192.305 32.772 192.33 32.772C192.786 32.772 193.116 32.7403 193.318 32.677C193.534 32.6137 193.679 32.4933 193.755 32.316C193.831 32.126 193.869 31.841 193.869 31.461V22.664C193.869 22.284 193.831 22.0053 193.755 21.828C193.679 21.6507 193.534 21.5303 193.318 21.467C193.116 21.391 192.786 21.353 192.33 21.353C192.305 21.353 192.292 21.315 192.292 21.239C192.292 21.163 192.305 21.125 192.33 21.125L193.318 21.144C193.85 21.1693 194.281 21.182 194.61 21.182C194.914 21.182 195.275 21.163 195.693 21.125C195.845 21.125 196.08 21.1187 196.396 21.106C196.726 21.0807 197.011 21.068 197.251 21.068C198.442 21.068 199.398 21.334 200.12 21.866C200.842 22.3853 201.203 23.177 201.203 24.241C201.203 25.0643 200.994 25.761 200.576 26.331C200.171 26.901 199.645 27.3253 198.999 27.604C198.366 27.8827 197.707 28.022 197.023 28.022C196.656 28.022 196.352 27.9903 196.111 27.927C196.073 27.927 196.054 27.8953 196.054 27.832C196.054 27.794 196.061 27.756 196.073 27.718C196.099 27.68 196.124 27.6673 196.149 27.68C196.352 27.7307 196.58 27.756 196.833 27.756C197.581 27.756 198.214 27.4837 198.733 26.939C199.253 26.3943 199.512 25.609 199.512 24.583C199.512 23.5823 199.259 22.8033 198.752 22.246C198.246 21.676 197.574 21.391 196.738 21.391C196.358 21.391 196.073 21.4227 195.883 21.486C195.706 21.5367 195.579 21.657 195.503 21.847C195.427 22.0243 195.389 22.3093 195.389 22.702V31.385Z" fill="#F2F4F5"/>
<path fill-rule="evenodd" clip-rule="evenodd" d="M16.2522 20.3995C16.3882 20.153 16.551 20.243 16.7143 20.2853C21.6845 21.5602 26.6551 22.838 31.6245 24.1162C32.4488 24.3277 33.2731 24.5388 34.1379 24.7606C34.0481 24.3581 33.8531 24.055 33.7448 23.7194C33.6674 23.4779 33.519 23.3649 33.2723 23.2955C27.613 21.7109 21.9565 20.1169 16.2995 18.5224C15.8539 18.3963 15.9373 18.3934 15.7247 18.775C14.519 20.9511 13.3156 23.1292 12.1115 25.3061C11.7252 26.0051 11.3393 26.7046 10.9326 27.4394C11.7116 27.5413 12.45 27.6361 13.1873 27.7364C14.8054 27.9553 16.4227 28.1804 18.0416 28.3976C19.6605 28.6137 21.2798 28.8191 22.8983 29.0359C24.7261 29.2811 26.554 29.5251 28.3791 29.7888C28.8147 29.8504 29.1966 29.7987 29.582 29.5723C30.008 29.3218 30.4669 29.1324 30.9061 28.9049C31.0108 28.8503 31.152 28.8396 31.217 28.672C25.2404 27.7002 19.2726 26.7297 13.2406 25.7488C14.2771 23.9112 15.2727 22.1599 16.2522 20.3995Z" fill="#F2F4F5"/>
<path fill-rule="evenodd" clip-rule="evenodd" d="M8.97412 28.8937C11.175 24.8431 13.3567 20.8273 15.5372 16.8145C21.3722 18.5946 27.1791 20.3657 33.0823 22.1667C32.9359 21.8152 32.812 21.5576 32.7217 21.2882C32.6174 20.981 32.4405 20.8117 32.1232 20.7086C27.4687 19.1967 22.8198 17.6688 18.1685 16.1462C17.2327 15.8394 16.2929 15.5478 15.3615 15.2291C15.1685 15.1629 15.0739 15.1855 15.0069 15.3728C14.988 15.4258 14.9531 15.4735 14.9263 15.524C12.3651 20.3176 9.80483 25.1109 7.24612 29.9053C7.18114 30.0269 7.08969 30.139 7.07324 30.3009C7.4904 30.4089 7.91598 30.3933 8.33395 30.4339C9.4699 30.5444 10.6067 30.6418 11.743 30.742C12.9215 30.8463 14.1 30.9469 15.2788 31.0505C16.4152 31.1494 17.552 31.2505 18.6887 31.3503C19.8395 31.4505 20.9903 31.5495 22.1407 31.6514C22.9542 31.7228 23.7688 31.7943 24.5819 31.8703C24.8133 31.892 25.0191 31.846 25.2273 31.7343C25.6753 31.4965 26.1362 31.2846 26.5883 31.0533C26.6617 31.0164 26.7976 31.0201 26.7664 30.8397C20.8575 30.1945 14.9415 29.5472 8.97412 28.8937Z" fill="#F2F4F5"/>
<path fill-rule="evenodd" clip-rule="evenodd" d="M5.4517 31.5425C5.43245 31.4119 5.47417 31.3696 5.50064 31.3199C8.53146 25.5442 11.5607 19.7689 14.5907 13.9932C14.7616 13.6679 14.764 13.6695 15.131 13.7977C20.6154 15.7133 26.0987 17.6302 31.5851 19.5393C31.7079 19.582 31.8294 19.6863 32.0119 19.6239C31.8932 19.3401 31.7608 19.0735 31.6726 18.793C31.5903 18.5285 31.4235 18.4114 31.1796 18.3223C29.2903 17.6335 27.4051 16.9303 25.5187 16.2333C21.9163 14.9017 18.3134 13.5713 14.7098 12.2406C14.3805 12.1194 14.3781 12.119 14.2112 12.4402C13.8426 13.1516 13.4764 13.8646 13.1086 14.5764C10.0609 20.4729 7.01324 26.3697 3.96678 32.2658C3.89016 32.4141 3.82037 32.5652 3.72852 32.7546C3.91784 32.7739 4.06746 32.794 4.21747 32.803C4.83639 32.838 5.45572 32.87 6.07504 32.9016C8.52384 33.0248 10.9726 33.1431 13.4211 33.2717C15.8979 33.4019 18.374 33.5403 20.8501 33.6804C21.1373 33.6968 21.3996 33.6652 21.6599 33.5177C22.027 33.3082 22.4128 33.1337 22.7895 32.9431C22.8573 32.9086 22.97 32.909 22.9307 32.762C17.1037 32.3471 11.2691 31.9619 5.4517 31.5425Z" fill="#F2F4F5"/>
<path fill-rule="evenodd" clip-rule="evenodd" d="M2.50675 33.4196C6.28766 25.985 10.0718 18.5516 13.8551 11.1181C14.0408 10.7542 14.042 10.7538 14.407 10.8955C19.8253 13.0013 25.2427 15.108 30.6622 17.2081C30.7677 17.2487 30.874 17.3633 31.0228 17.2799C30.9181 17.0236 30.8078 16.776 30.7172 16.5213C30.6301 16.2753 30.4789 16.1336 30.2338 16.0342C26.2403 14.4188 22.2508 12.7935 18.2609 11.1695C16.8266 10.5862 15.3918 10.005 13.9618 9.4099C13.7504 9.32159 13.6208 9.31584 13.5478 9.56146C13.5318 9.61568 13.4965 9.66373 13.4708 9.71466C12.1038 12.4395 10.7364 15.1643 9.37023 17.889C6.75456 23.1082 4.14009 28.329 1.51921 33.5461C1.39807 33.7868 1.33389 34.016 1.37641 34.2867C1.39847 34.4284 1.43698 34.4888 1.58018 34.4904C1.83368 34.4929 2.08719 34.5142 2.34069 34.5208C5.08793 34.6001 7.83556 34.6748 10.5828 34.7562C13.0761 34.8297 15.5703 34.8909 18.0632 34.9981C18.6556 35.024 19.1129 34.7878 19.5838 34.4596C13.8423 34.2423 8.1003 34.0242 2.35714 33.8057C2.36396 33.6353 2.4498 33.5322 2.50675 33.4196Z" fill="#F2F4F5"/>
<path fill-rule="evenodd" clip-rule="evenodd" d="M13.1682 8.42247C13.3659 8.022 13.3663 8.02241 13.7747 8.19574C19.1267 10.4687 24.4792 12.7417 29.8309 15.0151C29.9043 15.0459 29.9717 15.1153 30.0756 15.0287C29.9865 14.8122 29.8766 14.5962 29.8084 14.367C29.7258 14.0902 29.5437 13.9608 29.2958 13.8515C24.026 11.5264 18.7593 9.19382 13.4919 6.86292C13.0302 6.65878 13.0302 6.65878 12.8052 7.12045C9.04914 14.8262 5.29631 22.534 1.52905 30.2336C1.26953 30.7638 1.05894 31.2674 1.20535 31.8711C1.24466 32.0338 1.21136 32.2149 1.21136 32.4236C1.39066 32.3595 1.39788 32.2412 1.43839 32.1591C5.35087 24.2488 9.25973 16.3352 13.1682 8.42247Z" fill="#F2F4F5"/>
<path fill-rule="evenodd" clip-rule="evenodd" d="M29.2338 13.0309C29.1107 12.7307 29.0172 12.5368 28.9519 12.3335C28.8616 12.0538 28.6847 11.9022 28.4204 11.777C23.2612 9.33846 18.1065 6.88804 12.9506 4.44007C12.8234 4.3797 12.6971 4.31603 12.5683 4.25853C12.4825 4.22033 12.4063 4.22608 12.3597 4.32836C12.3244 4.40639 12.2799 4.47992 12.243 4.55713C8.52188 12.3894 4.80155 20.2208 1.08161 28.0522C1.02104 28.1804 0.95566 28.3044 0.961275 28.4597C0.974913 28.84 1.0066 29.2166 1.12694 29.6052C4.99569 21.5647 8.86443 13.5255 12.7404 5.46978C18.2224 7.98346 23.6832 10.4865 29.2338 13.0309Z" fill="#F2F4F5"/>
<path fill-rule="evenodd" clip-rule="evenodd" d="M34.9102 26.507C34.8187 26.2868 34.7702 26.0597 34.4678 25.9968C33.4357 25.7812 32.4097 25.5368 31.382 25.2998C28.3131 24.5909 25.2445 23.8783 22.1752 23.1702C20.4625 22.7751 18.7473 22.391 17.0361 21.9864C16.8472 21.9417 16.7622 21.9733 16.6695 22.1388C16.3362 22.7389 15.988 23.3295 15.6318 23.9477C15.7798 24.0352 15.9054 24.0504 16.0297 24.0754C17.286 24.319 18.5423 24.565 19.7986 24.8115C21.9386 25.2304 24.0777 25.6489 26.2177 26.0687C28.3568 26.4881 30.4975 26.9029 32.6351 27.3317C33.6443 27.535 33.6415 27.5482 34.5456 27.0955C34.6086 27.0643 34.6727 27.0356 34.7353 27.0031C35.0506 26.8429 35.0502 26.8429 34.9102 26.507Z" fill="#F2F4F5"/>
<path fill-rule="evenodd" clip-rule="evenodd" d="M20.2441 7.03424C22.9284 8.34735 25.6118 9.66334 28.3863 11.0229C28.3001 10.8122 28.2423 10.7 28.2074 10.5805C28.0839 10.1558 27.8212 9.90485 27.4225 9.70605C23.5469 7.7752 19.6817 5.82135 15.8142 3.87325C14.5928 3.25797 13.373 2.64023 12.1516 2.02413C11.854 1.87422 11.8536 1.87627 11.7032 2.19541C11.6907 2.22129 11.6775 2.24675 11.6655 2.27263C8.10037 9.95906 4.53887 17.6463 0.962528 25.327C0.699798 25.8922 0.83738 26.4216 0.933648 26.9806C4.67043 19.0186 8.40722 11.0561 12.15 3.08136C14.874 4.41172 17.5595 5.72154 20.2441 7.03424Z" fill="#F2F4F5"/>
<path fill-rule="evenodd" clip-rule="evenodd" d="M5.61031 13.893C7.55531 9.65178 9.49951 5.40974 11.4445 1.16853C11.5957 0.838299 11.5985 0.839121 11.9166 1.00095C11.9668 1.02641 12.0185 1.05065 12.0683 1.07652C16.9185 3.5865 21.7684 6.09731 26.6183 8.60688C26.9039 8.75433 27.1899 8.89973 27.4751 9.04595C27.3972 8.67506 27.3275 8.35756 26.9749 8.17274C22.4631 5.8061 17.9586 3.4255 13.4521 1.04818C12.8284 0.718776 12.203 0.392244 11.5833 0.0550337C11.4313 -0.0279341 11.3318 -0.0279341 11.2335 0.130608C11.0984 0.347885 10.9267 0.536822 10.8184 0.777921C9.9267 2.76299 9.0262 4.74313 8.1277 6.72491C5.66847 12.1482 3.20923 17.5715 0.749599 22.994C0.582334 23.3636 0.578724 24.0874 0.751605 24.4743C0.792519 24.3897 0.831026 24.3137 0.866324 24.2356C2.44792 20.7888 4.02951 17.3411 5.61031 13.893Z" fill="#F2F4F5"/>
<path fill-rule="evenodd" clip-rule="evenodd" d="M8.50137 3.70141C8.1532 4.18648 7.71799 4.60707 7.4693 5.16731C5.19418 10.2932 2.92147 15.4208 0.629898 20.5394C0.38923 21.0766 0.473063 21.5806 0.526411 22.172C1.21793 20.8992 9.02483 3.36789 9.04689 3.03931C8.81625 3.22619 8.66543 3.47304 8.50137 3.70141Z" fill="#F2F4F5"/>
<path fill-rule="evenodd" clip-rule="evenodd" d="M5.90879 7.11646C5.69059 7.298 5.54338 7.54649 5.37451 7.77034C5.04198 8.21229 4.68981 8.63411 4.46358 9.16026C3.1423 12.2342 1.8086 15.3032 0.456842 18.3635C0.237031 18.8617 0.299204 19.3296 0.429165 19.8348C2.28312 15.6161 4.13787 11.3971 5.99182 7.17848C5.96455 7.15794 5.93687 7.1374 5.90879 7.11646Z" fill="#F2F4F5"/>
<path fill-rule="evenodd" clip-rule="evenodd" d="M1.99038 12.3343C1.44406 13.6252 0.915796 14.9248 0.335784 16.1997C0.123594 16.665 0.109956 17.0992 0.235104 17.6274C0.555194 17.1435 3.18811 10.9784 3.18971 10.6548C2.78018 11.2072 2.26795 11.6796 1.99038 12.3343Z" fill="#F2F4F5"/>
<path fill-rule="evenodd" clip-rule="evenodd" d="M0.823148 13.6958C0.575259 14.0182 0.328173 14.3415 0.0794817 14.6631C0.034958 14.721 -0.00475239 14.7814 0.000462102 14.8561C0.01771 15.112 0.0397712 15.3683 0.0602281 15.6242C0.0850972 15.6262 0.109164 15.6287 0.134033 15.6316C0.395961 15.0007 0.657889 14.3702 0.919416 13.7398C0.887326 13.725 0.855237 13.7102 0.823148 13.6958Z" fill="#F2F4F5"/>
</svg>
