<svg width="545" height="445" viewBox="0 0 745 645" fill="none" xmlns="http://www.w3.org/2000/svg">
<path fill-rule="evenodd" clip-rule="evenodd" d="M345.944 423.725C348.838 418.606 352.305 420.474 355.78 421.353C461.574 447.835 567.377 474.376 673.155 500.926C690.7 505.32 708.246 509.705 726.654 514.312C724.741 505.951 720.592 499.655 718.287 492.685C716.639 487.668 713.48 485.322 708.229 483.881C587.766 450.966 467.363 417.855 346.951 384.736C337.466 382.117 339.242 382.057 334.717 389.983C309.051 435.183 283.437 480.425 257.806 525.642C249.584 540.163 241.37 554.692 232.713 569.955C249.294 572.07 265.012 574.041 280.705 576.123C315.147 580.67 349.573 585.345 384.032 589.859C418.492 594.346 452.959 598.612 487.41 603.117C526.318 608.21 565.226 613.278 604.074 618.755C613.346 620.035 621.474 618.96 629.679 614.259C638.747 609.054 648.514 605.121 657.863 600.395C660.092 599.26 663.097 599.038 664.48 595.558C537.264 575.372 410.235 555.212 281.841 534.839C303.903 496.669 325.094 460.291 345.944 423.725Z" fill="#E7E7E7"/>
<path fill-rule="evenodd" clip-rule="evenodd" d="M191.013 600.164C237.861 516.026 284.3 432.614 330.712 349.261C454.915 386.237 578.52 423.024 704.174 460.435C701.057 453.132 698.419 447.783 696.498 442.186C694.278 435.804 690.513 432.289 683.759 430.148C584.684 398.744 485.728 367.007 386.722 335.38C366.803 329.007 346.798 322.95 326.973 316.33C322.866 314.956 320.851 315.425 319.425 319.316C319.024 320.416 318.281 321.406 317.709 322.455C263.194 422.026 208.696 521.589 154.232 621.177C152.848 623.702 150.902 626.031 150.552 629.392C159.431 631.636 168.49 631.312 177.387 632.157C201.566 634.452 225.763 636.474 249.951 638.555C275.036 640.722 300.121 642.812 325.214 644.962C349.402 647.018 373.599 649.117 397.796 651.19C422.291 653.272 446.787 655.328 471.274 657.444C488.589 658.928 505.929 660.413 523.236 661.991C528.162 662.443 532.542 661.488 536.974 659.167C546.511 654.228 556.321 649.825 565.943 645.022C567.506 644.254 570.4 644.331 569.734 640.586C443.961 627.183 318.033 613.737 191.013 600.164Z" fill="#E7E7E7"/>
<path fill-rule="evenodd" clip-rule="evenodd" d="M116.042 655.183C115.632 652.47 116.52 651.591 117.083 650.559C181.596 530.589 246.076 410.627 310.572 290.658C314.209 283.901 314.26 283.935 322.072 286.597C438.813 326.388 555.527 366.204 672.31 405.858C674.923 406.746 677.51 408.913 681.395 407.616C678.867 401.721 676.05 396.184 674.171 390.357C672.421 384.862 668.869 382.431 663.678 380.58C623.464 366.272 583.335 351.666 543.181 337.188C466.501 309.529 389.813 281.896 313.107 254.254C306.098 251.737 306.046 251.729 302.495 258.4C294.648 273.177 286.853 287.987 279.024 302.772C214.152 425.25 149.28 547.737 84.4339 670.206C82.8031 673.286 81.3175 676.426 79.3623 680.359C83.3922 680.76 86.5769 681.178 89.7701 681.366C102.944 682.091 116.127 682.756 129.31 683.413C181.434 685.973 233.559 688.43 285.675 691.1C338.397 693.805 391.102 696.68 443.807 699.589C449.921 699.93 455.504 699.273 461.046 696.21C468.858 691.859 477.071 688.234 485.089 684.275C486.531 683.558 488.931 683.567 488.094 680.513C364.062 671.896 239.868 663.893 116.042 655.183Z" fill="#E7E7E7"/>
<path fill-rule="evenodd" clip-rule="evenodd" d="M53.3552 694.173C133.835 539.745 214.382 385.342 294.913 230.939C298.866 223.38 298.891 223.372 306.661 226.315C421.992 270.056 537.307 313.814 652.664 357.436C654.909 358.28 657.172 360.66 660.34 358.929C658.111 353.605 655.763 348.46 653.834 343.171C651.981 338.061 648.762 335.117 643.545 333.053C558.541 299.498 473.622 265.739 388.694 232.006C358.162 219.891 327.622 207.819 297.184 195.457C292.684 193.622 289.926 193.503 288.373 198.605C288.031 199.731 287.28 200.729 286.733 201.787C257.636 258.385 228.53 314.983 199.449 371.581C143.773 479.99 88.122 588.434 32.3347 696.801C29.7562 701.8 28.3901 706.561 29.2951 712.183C29.7647 715.127 30.5844 716.381 33.6324 716.415C39.0285 716.466 44.4245 716.91 49.8205 717.046C108.297 718.693 166.783 720.246 225.26 721.935C278.332 723.462 331.421 724.733 384.485 726.96C397.096 727.497 406.829 722.592 416.853 715.775C294.639 711.262 172.418 706.732 50.1706 702.193C50.3157 698.652 52.1429 696.511 53.3552 694.173Z" fill="#E7E7E7"/>
<path fill-rule="evenodd" clip-rule="evenodd" d="M280.296 174.946C284.505 166.628 284.514 166.636 293.205 170.237C407.128 217.45 521.059 264.663 634.973 311.885C636.536 312.525 637.97 313.966 640.181 312.166C638.286 307.67 635.947 303.183 634.495 298.422C632.736 292.672 628.86 289.984 623.584 287.715C511.411 239.418 399.307 190.968 287.186 142.552C277.359 138.312 277.359 138.312 272.569 147.901C192.619 307.96 112.737 468.062 32.5482 627.993C27.0241 639.007 22.5417 649.467 25.6581 662.008C26.4948 665.387 25.7861 669.149 25.7861 673.483C29.6026 672.152 29.7563 669.695 30.6186 667.989C113.898 503.681 197.101 339.305 280.296 174.946Z" fill="#E7E7E7"/>
<path fill-rule="evenodd" clip-rule="evenodd" d="M622.269 270.67C619.648 264.433 617.658 260.407 616.267 256.184C614.346 250.374 610.58 247.225 604.954 244.623C495.138 193.972 385.416 143.073 275.668 92.2254C272.962 90.9712 270.272 89.6489 267.532 88.4545C265.704 87.661 264.082 87.7805 263.092 89.9048C262.341 91.5258 261.393 93.0529 260.607 94.6569C181.4 257.344 102.21 420.014 23.0286 582.684C21.7393 585.345 20.3476 587.922 20.4672 591.147C20.7574 599.047 21.432 606.87 23.9934 614.941C106.342 447.929 188.692 280.942 271.194 113.614C387.883 165.827 504.12 217.817 622.269 270.67Z" fill="#E7E7E7"/>
<path fill-rule="evenodd" clip-rule="evenodd" d="M743.09 550.588C741.144 546.016 740.111 541.298 733.673 539.992C711.705 535.513 689.864 530.437 667.99 525.514C602.666 510.789 537.35 495.987 472.017 481.279C435.56 473.071 399.051 465.094 362.628 456.691C358.607 455.761 356.796 456.418 354.824 459.856C347.729 472.321 340.318 484.589 332.736 497.429C335.887 499.246 338.559 499.562 341.206 500.082C367.947 505.141 394.688 510.252 421.429 515.37C466.98 524.073 512.513 532.766 558.063 541.485C603.596 550.196 649.164 558.813 694.663 567.72C716.144 571.943 716.085 572.216 735.329 562.814C736.67 562.166 738.036 561.568 739.368 560.894C746.079 557.567 746.07 557.567 743.09 550.588Z" fill="#E7E7E7"/>
<path fill-rule="evenodd" clip-rule="evenodd" d="M430.914 146.11C488.05 173.385 545.17 200.72 604.227 228.959C602.391 224.583 601.162 222.253 600.419 219.771C597.789 210.949 592.197 205.736 583.71 201.607C501.216 161.501 418.944 120.916 336.62 80.4516C310.622 67.6715 284.658 54.8401 258.66 42.0429C252.324 38.9289 252.316 38.9716 249.114 45.6005C248.85 46.138 248.568 46.667 248.312 47.2044C172.426 206.863 96.6168 366.538 20.4919 526.077C14.8995 537.816 17.828 548.813 19.8771 560.424C99.4172 395.042 178.957 229.65 258.626 64.0029C316.607 91.6364 373.769 118.843 430.914 146.11Z" fill="#E7E7E7"/>
<path fill-rule="evenodd" clip-rule="evenodd" d="M119.414 288.577C160.815 200.481 202.199 112.368 243.6 24.272C246.818 17.4127 246.878 17.4297 253.649 20.7911C254.716 21.3201 255.818 21.8235 256.876 22.3609C360.118 74.4968 463.351 126.65 566.584 178.777C572.663 181.84 578.751 184.86 584.821 187.897C583.165 180.193 581.679 173.599 574.174 169.759C478.139 120.601 382.257 71.1525 286.332 21.7723C273.056 14.93 259.745 8.14748 246.554 1.14313C243.318 -0.580231 241.2 -0.580231 239.109 2.71292C236.231 7.22608 232.577 11.1506 230.272 16.1585C211.292 57.3912 192.124 98.5215 172.999 139.686C120.652 252.336 68.3057 364.985 15.9506 477.618C12.3902 485.296 12.3134 500.329 15.9933 508.366C16.8642 506.608 17.6838 505.03 18.4352 503.409C52.1005 431.813 85.7659 360.199 119.414 288.577Z" fill="#E7E7E7"/>
<path fill-rule="evenodd" clip-rule="evenodd" d="M180.956 76.8861C173.545 86.9617 164.281 95.698 158.988 107.335C110.56 213.808 62.1837 320.315 13.406 426.634C8.28322 437.794 10.0677 448.262 11.2032 460.547C25.9227 434.108 192.098 69.9585 192.568 63.1333C187.658 67.0151 184.448 72.1426 180.956 76.8861Z" fill="#E7E7E7"/>
<path fill-rule="evenodd" clip-rule="evenodd" d="M125.783 147.817C121.139 151.588 118.005 156.749 114.411 161.399C107.333 170.579 99.8365 179.341 95.021 190.27C66.8968 254.119 38.5079 317.866 9.73482 381.435C5.05599 391.783 6.37938 401.501 9.14569 411.994C48.6084 324.367 88.0882 236.732 127.551 149.105C126.97 148.679 126.381 148.252 125.783 147.817Z" fill="#E7E7E7"/>
<path fill-rule="evenodd" clip-rule="evenodd" d="M42.3673 256.2C30.7385 283.015 19.4939 310.008 7.14796 336.49C2.63135 346.156 2.34106 355.174 5.00492 366.146C11.8183 356.095 67.8618 228.038 67.8959 221.315C59.1786 232.79 48.2756 242.601 42.3673 256.2Z" fill="#E7E7E7"/>
<path fill-rule="evenodd" clip-rule="evenodd" d="M17.5213 284.482C12.2448 291.179 6.98539 297.893 1.69182 304.574C0.744105 305.777 -0.101158 307.031 0.00983617 308.583C0.376971 313.899 0.846559 319.222 1.282 324.537C1.81135 324.58 2.32363 324.631 2.85299 324.691C8.42831 311.586 14.0036 298.491 19.5704 285.395C18.8874 285.088 18.2043 284.781 17.5213 284.482Z" fill="#E7E7E7"/>
</svg>
