<svg width="40" height="40" viewBox="0 0 40 40" fill="none" xmlns="http://www.w3.org/2000/svg">
<path fill-rule="evenodd" clip-rule="evenodd" d="M18.5742 23.3136C18.7296 23.032 18.9157 23.1348 19.1023 23.1831C24.7826 24.6402 30.4632 26.1005 36.1426 27.5613C37.0846 27.803 38.0267 28.0443 39.015 28.2978C38.9123 27.8378 38.6895 27.4914 38.5658 27.1078C38.4773 26.8318 38.3077 26.7027 38.0257 26.6234C31.5579 24.8124 25.0934 22.9907 18.6283 21.1684C18.119 21.0243 18.2144 21.021 17.9714 21.4571C16.5934 23.944 15.2181 26.4333 13.842 28.9212C13.4005 29.7201 12.9595 30.5195 12.4947 31.3593C13.3849 31.4757 14.2289 31.5841 15.0715 31.6987C16.9207 31.9488 18.769 32.2061 20.6192 32.4544C22.4694 32.7013 24.32 32.936 26.1697 33.1839C28.2587 33.4641 30.3477 33.7429 32.4335 34.0443C32.9314 34.1147 33.3678 34.0556 33.8083 33.7969C34.2952 33.5106 34.8196 33.2942 35.3215 33.0341C35.4412 32.9717 35.6026 32.9595 35.6768 32.768C28.8464 31.6573 22.0261 30.5481 15.1324 29.4272C16.317 27.3271 17.4548 25.3255 18.5742 23.3136Z" fill="#15181B"/>
<path fill-rule="evenodd" clip-rule="evenodd" d="M10.2557 33.0214C12.7711 28.3921 15.2644 23.8027 17.7564 19.2166C24.425 21.251 31.0614 23.2751 37.808 25.3334C37.6406 24.9316 37.499 24.6373 37.3959 24.3294C37.2767 23.9783 37.0745 23.7849 36.7119 23.667C31.3924 21.9391 26.0794 20.1929 20.7636 18.4529C19.6941 18.1022 18.62 17.7689 17.5556 17.4047C17.3351 17.3291 17.2269 17.3549 17.1503 17.569C17.1288 17.6295 17.0889 17.684 17.0582 17.7417C14.1312 23.2202 11.2051 28.6981 8.28089 34.1775C8.20663 34.3165 8.10211 34.4446 8.08331 34.6296C8.56007 34.753 9.04645 34.7352 9.52412 34.7817C10.8224 34.9079 12.1215 35.0192 13.4202 35.1337C14.767 35.253 16.1139 35.368 17.4611 35.4863C18.7598 35.5994 20.059 35.7149 21.3581 35.8289C22.6733 35.9435 23.9885 36.0566 25.3033 36.173C26.2329 36.2547 27.164 36.3363 28.0932 36.4232C28.3577 36.4481 28.5929 36.3955 28.8308 36.2678C29.3428 35.996 29.8696 35.7538 30.3862 35.4895C30.4701 35.4473 30.6255 35.4515 30.5897 35.2454C23.8368 34.508 17.0756 33.7682 10.2557 33.0214Z" fill="#15181B"/>
<path fill-rule="evenodd" clip-rule="evenodd" d="M6.23041 36.0485C6.2084 35.8993 6.25608 35.8509 6.28633 35.7941C9.75013 29.1933 13.2121 22.5929 16.675 15.9921C16.8703 15.6204 16.873 15.6222 17.2925 15.7687C23.5604 17.958 29.8269 20.1487 36.0972 22.3305C36.2374 22.3794 36.3763 22.4986 36.5849 22.4272C36.4492 22.1029 36.298 21.7982 36.1971 21.4776C36.1031 21.1753 35.9124 21.0416 35.6337 20.9397C33.4746 20.1525 31.32 19.3489 29.1641 18.5523C25.047 17.0305 20.9295 15.5101 16.8111 13.9892C16.4348 13.8507 16.432 13.8502 16.2413 14.2173C15.82 15.0303 15.4015 15.8452 14.9811 16.6587C11.4981 23.3975 8.01502 30.1368 4.53335 36.8751C4.44579 37.0446 4.36602 37.2173 4.26105 37.4337C4.47742 37.4558 4.64841 37.4788 4.81986 37.4891C5.52719 37.529 6.23499 37.5656 6.94279 37.6018C9.74142 37.7426 12.5401 37.8778 15.3382 38.0247C18.169 38.1735 20.9988 38.3317 23.8286 38.4918C24.1568 38.5106 24.4566 38.4744 24.7541 38.3059C25.1736 38.0665 25.6146 37.867 26.045 37.6492C26.1225 37.6098 26.2513 37.6102 26.2064 37.4422C19.547 36.9681 12.8788 36.5278 6.23041 36.0485Z" fill="#15181B"/>
<path fill-rule="evenodd" clip-rule="evenodd" d="M2.86469 38.1939C7.18572 29.6971 11.5104 21.2018 15.8342 12.7064C16.0465 12.2905 16.0478 12.2901 16.465 12.452C22.6573 14.8587 28.8487 17.2662 35.0423 19.6663C35.1629 19.7128 35.2844 19.8438 35.4545 19.7485C35.3348 19.4556 35.2087 19.1725 35.1051 18.8815C35.0057 18.6003 34.8328 18.4384 34.5528 18.3248C29.9888 16.4786 25.4293 14.6211 20.8695 12.7651C19.2302 12.0985 17.5904 11.4343 15.9562 10.7542C15.7146 10.6532 15.5665 10.6467 15.4831 10.9274C15.4647 10.9893 15.4244 11.0442 15.3951 11.1025C13.8328 14.2165 12.27 17.3306 10.7087 20.4446C7.71932 26.4094 4.73136 32.376 1.73606 38.3384C1.59762 38.6135 1.52428 38.8754 1.57287 39.1848C1.59808 39.3467 1.64209 39.4157 1.80574 39.4176C2.09546 39.4204 2.38518 39.4448 2.6749 39.4523C5.8146 39.5429 8.95476 39.6284 12.0945 39.7213C14.944 39.8053 17.7944 39.8753 20.6435 39.9978C21.3205 40.0274 21.8431 39.7575 22.3813 39.3824C15.8195 39.1341 9.25731 38.8848 2.6937 38.6351C2.70149 38.4403 2.79959 38.3225 2.86469 38.1939Z" fill="#15181B"/>
<path fill-rule="evenodd" clip-rule="evenodd" d="M15.0494 9.62569C15.2754 9.16802 15.2759 9.16849 15.7426 9.36658C21.8592 11.9643 27.9763 14.562 34.0925 17.1602C34.1764 17.1954 34.2534 17.2747 34.3722 17.1756C34.2704 16.9283 34.1448 16.6814 34.0669 16.4194C33.9724 16.103 33.7643 15.9552 33.481 15.8303C27.4583 13.173 21.4393 10.5072 15.4194 7.84335C14.8917 7.61005 14.8918 7.61006 14.6346 8.13767C10.342 16.9442 6.05302 25.7531 1.74757 34.5526C1.45097 35.1587 1.2103 35.7341 1.37763 36.4242C1.42255 36.6101 1.3845 36.8171 1.3845 37.0555C1.58941 36.9823 1.59767 36.8471 1.64397 36.7532C6.11536 27.7129 10.5826 18.6688 15.0494 9.62569Z" fill="#15181B"/>
<path fill-rule="evenodd" clip-rule="evenodd" d="M33.4104 14.8925C33.2697 14.5493 33.1628 14.3278 33.0881 14.0954C32.985 13.7757 32.7828 13.6025 32.4807 13.4594C26.5846 10.6725 20.6935 7.87201 14.801 5.07434C14.6557 5.00533 14.5113 4.93257 14.3641 4.86686C14.266 4.8232 14.1789 4.82977 14.1257 4.94666C14.0854 5.03584 14.0345 5.11987 13.9923 5.20812C9.73959 14.1593 5.48778 23.1094 1.23642 32.0596C1.1672 32.2061 1.09248 32.3479 1.0989 32.5253C1.11448 32.96 1.1507 33.3904 1.28822 33.8345C5.70965 24.6453 10.1311 15.4576 14.5608 6.25114C20.8259 9.12392 27.0668 11.9845 33.4104 14.8925Z" fill="#15181B"/>
<path fill-rule="evenodd" clip-rule="evenodd" d="M39.8975 30.2937C39.793 30.0421 39.7375 29.7825 39.3918 29.7107C38.2123 29.4642 37.0397 29.1849 35.8652 28.9141C32.3579 28.1039 28.851 27.2895 25.3432 26.4802C23.3858 26.0286 21.4256 25.5898 19.47 25.1274C19.2541 25.0762 19.1569 25.1124 19.051 25.3015C18.67 25.9873 18.2721 26.6623 17.8651 27.3688C18.0342 27.4688 18.1777 27.4862 18.3198 27.5148C19.7556 27.7932 21.1913 28.0743 22.6271 28.356C25.0727 28.8348 27.5175 29.3131 29.9631 29.7928C32.4079 30.2721 34.8544 30.7462 37.2973 31.2363C38.4507 31.4686 38.4475 31.4836 39.4808 30.9664C39.5527 30.9307 39.6261 30.8978 39.6976 30.8607C40.0579 30.6777 40.0575 30.6777 39.8975 30.2937Z" fill="#15181B"/>
<path fill-rule="evenodd" clip-rule="evenodd" d="M23.1364 8.03901C26.2041 9.53971 29.2709 11.0437 32.4418 12.5974C32.3432 12.3566 32.2772 12.2285 32.2373 12.0919C32.0961 11.6065 31.7959 11.3197 31.3402 11.0925C26.911 8.88582 22.4937 6.65285 18.0736 4.42645C16.6777 3.72328 15.2837 3.01729 13.8878 2.31317C13.5477 2.14184 13.5472 2.14419 13.3753 2.50892C13.3611 2.53849 13.346 2.56759 13.3322 2.59717C9.2578 11.3817 5.18751 20.1671 1.10027 28.945C0.800004 29.5909 0.957241 30.196 1.06726 30.8349C5.33787 21.7354 9.60848 12.6355 13.886 3.52143C16.9991 5.04184 20.0682 6.53878 23.1364 8.03901Z" fill="#15181B"/>
<path fill-rule="evenodd" clip-rule="evenodd" d="M6.41152 15.8777C8.63438 11.0306 10.8563 6.18256 13.0792 1.33546C13.252 0.958056 13.2552 0.958995 13.6187 1.14394C13.676 1.17304 13.7352 1.20074 13.792 1.23031C19.3352 4.09886 24.8779 6.96835 30.4206 9.83643C30.747 10.0049 31.0739 10.1711 31.3998 10.3382C31.3109 9.91435 31.2311 9.5515 30.8282 9.34027C25.6719 6.63554 20.5239 3.91486 15.3736 1.19792C14.6607 0.821458 13.9461 0.448279 13.2378 0.0628957C13.0641 -0.0319247 12.9504 -0.0319247 12.8381 0.149267C12.6836 0.397583 12.4874 0.613511 12.3636 0.889053C11.3445 3.1577 10.3154 5.42072 9.28854 7.68561C6.47799 13.8837 3.66743 20.0817 0.856423 26.2788C0.665263 26.7013 0.661138 27.5284 0.858715 27.9706C0.905474 27.8739 0.949482 27.7871 0.989823 27.6979C2.79736 23.7586 4.6049 19.8184 6.41152 15.8777Z" fill="#15181B"/>
<path fill-rule="evenodd" clip-rule="evenodd" d="M9.71574 4.23032C9.31783 4.78469 8.82045 5.26536 8.53623 5.90563C5.93609 11.7638 3.3387 17.6239 0.719771 23.4737C0.444721 24.0877 0.54053 24.6636 0.601499 25.3396C1.39181 23.8849 10.314 3.84916 10.3392 3.47363C10.0756 3.68721 9.90323 3.96933 9.71574 4.23032Z" fill="#15181B"/>
<path fill-rule="evenodd" clip-rule="evenodd" d="M6.75345 8.13293C6.50407 8.34041 6.33583 8.6244 6.14284 8.88023C5.76281 9.38531 5.36032 9.8674 5.10177 10.4687C3.59175 13.9818 2.06751 17.4892 0.522646 20.9867C0.271434 21.5561 0.342488 22.0908 0.491015 22.6681C2.60982 17.8469 4.72954 13.0251 6.84834 8.20382C6.81717 8.18035 6.78554 8.15687 6.75345 8.13293Z" fill="#15181B"/>
<path fill-rule="evenodd" clip-rule="evenodd" d="M2.27476 14.0963C1.65039 15.5716 1.04666 17.0568 0.383788 18.5139C0.141285 19.0457 0.125699 19.5419 0.268725 20.1455C0.634542 19.5926 3.64359 12.5468 3.64542 12.1769C3.17738 12.8082 2.59198 13.3481 2.27476 14.0963Z" fill="#15181B"/>
<path fill-rule="evenodd" clip-rule="evenodd" d="M0.940741 15.6523C0.657439 16.0208 0.375055 16.3903 0.0908362 16.7578C0.039952 16.824 -0.0054313 16.893 0.000528117 16.9784C0.02024 17.2709 0.0454528 17.5638 0.0688321 17.8562C0.0972539 17.8586 0.124759 17.8614 0.153181 17.8647C0.452527 17.1437 0.751873 16.4231 1.05076 15.7026C1.01409 15.6857 0.977414 15.6688 0.940741 15.6523Z" fill="#15181B"/>
</svg>
