<svg width="545" height="445" viewBox="0 0 745 645" fill="none" xmlns="http://www.w3.org/2000/svg">
<path fill-rule="evenodd" clip-rule="evenodd" d="M345.728 423.884C348.621 418.763 352.085 420.632 355.558 421.511C461.286 448.003 567.023 474.554 672.734 501.114C690.269 505.51 707.804 509.896 726.2 514.505C724.289 506.141 720.142 499.842 717.838 492.87C716.191 487.851 713.034 485.504 707.786 484.062C587.399 451.135 467.071 418.012 346.735 384.88C337.255 382.26 339.03 382.2 334.508 390.129C308.858 435.346 283.26 480.605 257.645 525.839C249.428 540.365 241.22 554.9 232.568 570.168C249.138 572.285 264.847 574.256 280.53 576.339C314.951 580.888 349.354 585.565 383.792 590.08C418.23 594.569 452.677 598.836 487.106 603.343C525.989 608.438 564.873 613.507 603.696 618.987C612.963 620.267 621.086 619.192 629.286 614.489C638.348 609.283 648.109 605.348 657.452 600.62C659.679 599.485 662.683 599.263 664.065 595.781C536.928 575.588 409.979 555.42 281.665 535.04C303.713 496.855 324.891 460.463 345.728 423.884Z" fill="#1C1F23"/>
<path fill-rule="evenodd" clip-rule="evenodd" d="M190.894 600.389C237.713 516.22 284.122 432.776 330.506 349.392C454.63 386.382 578.158 423.183 703.733 460.608C700.619 453.302 697.982 447.951 696.062 442.352C693.844 435.968 690.081 432.452 683.332 430.31C584.319 398.894 485.425 367.144 386.48 335.506C366.573 329.131 346.581 323.071 326.768 316.448C322.664 315.074 320.65 315.544 319.225 319.436C318.824 320.537 318.082 321.527 317.51 322.576C263.029 422.185 208.565 521.784 154.135 621.41C152.753 623.936 150.807 626.266 150.458 629.629C159.332 631.873 168.385 631.549 177.276 632.394C201.44 634.69 225.622 636.712 249.795 638.795C274.864 640.963 299.933 643.054 325.011 645.204C349.184 647.261 373.365 649.361 397.547 651.435C422.027 653.517 446.507 655.574 470.979 657.691C488.283 659.176 505.613 660.661 522.909 662.24C527.832 662.692 532.21 661.736 536.638 659.415C546.169 654.473 555.973 650.069 565.589 645.264C567.151 644.496 570.043 644.573 569.378 640.826C443.683 627.418 317.835 613.968 190.894 600.389Z" fill="#1C1F23"/>
<path fill-rule="evenodd" clip-rule="evenodd" d="M115.969 655.429C115.559 652.715 116.447 651.836 117.01 650.803C181.483 530.788 245.921 410.782 310.377 290.767C314.012 284.008 314.063 284.042 321.871 286.705C438.538 326.51 555.18 366.342 671.889 406.011C674.5 406.899 677.086 409.066 680.968 407.769C678.443 401.872 675.627 396.333 673.75 390.503C672 385.007 668.451 382.575 663.263 380.723C623.074 366.41 582.97 351.799 542.841 337.315C466.209 309.646 389.569 282.002 312.911 254.35C305.906 251.832 305.855 251.823 302.305 258.498C294.464 273.28 286.673 288.096 278.849 302.886C214.018 425.41 149.186 547.943 84.3808 670.458C82.7511 673.539 81.2664 676.68 79.3124 680.615C83.3399 681.016 86.5225 681.434 89.7138 681.622C102.88 682.347 116.054 683.013 129.229 683.67C181.321 686.23 233.413 688.688 285.496 691.36C338.185 694.065 390.857 696.941 443.53 699.852C449.639 700.193 455.219 699.536 460.757 696.472C468.564 692.119 476.773 688.492 484.785 684.532C486.227 683.815 488.625 683.824 487.789 680.768C363.834 672.148 239.718 664.143 115.969 655.429Z" fill="#1C1F23"/>
<path fill-rule="evenodd" clip-rule="evenodd" d="M53.3221 694.434C133.751 539.948 214.248 385.487 294.729 231.026C298.679 223.464 298.705 223.456 306.469 226.4C421.729 270.158 536.971 313.932 652.256 357.57C654.5 358.415 656.761 360.796 659.927 359.064C657.7 353.738 655.353 348.591 653.425 343.3C651.573 338.188 648.357 335.243 643.143 333.178C558.192 299.611 473.326 265.839 388.451 232.093C357.939 219.974 327.417 207.897 296.998 195.53C292.502 193.695 289.745 193.576 288.192 198.68C287.851 199.806 287.1 200.805 286.554 201.863C257.475 258.482 228.387 315.101 199.325 371.72C143.683 480.171 88.0672 588.655 32.3147 697.063C29.7378 702.064 28.3726 706.826 29.2771 712.451C29.7464 715.395 30.5655 716.65 33.6117 716.684C39.0043 716.735 44.397 717.179 49.7896 717.316C108.23 718.963 166.679 720.516 225.119 722.206C278.158 723.734 331.214 725.005 384.245 727.233C396.848 727.771 406.575 722.863 416.592 716.044C294.455 711.529 172.31 706.997 50.1394 702.457C50.2845 698.915 52.1105 696.773 53.3221 694.434Z" fill="#1C1F23"/>
<path fill-rule="evenodd" clip-rule="evenodd" d="M280.121 175.012C284.328 166.691 284.336 166.699 293.022 170.301C406.874 217.532 520.734 264.763 634.577 312.002C636.138 312.642 637.572 314.085 639.782 312.284C637.887 307.786 635.549 303.297 634.099 298.534C632.341 292.782 628.467 290.094 623.194 287.823C511.092 239.508 399.058 191.04 287.007 142.606C277.186 138.364 277.186 138.364 272.399 147.957C192.499 308.076 112.667 468.238 32.5284 628.229C27.0077 639.247 22.5281 649.711 25.6425 662.257C26.4787 665.637 25.7705 669.401 25.7705 673.736C29.5846 672.405 29.7382 669.947 30.6 668.24C113.828 503.87 196.979 339.433 280.121 175.012Z" fill="#1C1F23"/>
<path fill-rule="evenodd" clip-rule="evenodd" d="M621.88 270.771C619.261 264.532 617.273 260.504 615.882 256.279C613.962 250.467 610.199 247.318 604.576 244.715C494.829 194.044 385.175 143.126 275.496 92.2597C272.791 91.0051 270.104 89.6822 267.365 88.4873C265.539 87.6936 263.917 87.8131 262.928 89.9382C262.177 91.5598 261.23 93.0876 260.445 94.6921C181.287 257.44 102.146 420.171 23.0144 582.902C21.726 585.565 20.3352 588.142 20.4546 591.368C20.7447 599.271 21.4188 607.098 23.9786 615.171C106.276 448.096 188.574 281.047 271.025 113.656C387.641 165.888 503.805 217.899 621.88 270.771Z" fill="#1C1F23"/>
<path fill-rule="evenodd" clip-rule="evenodd" d="M742.626 550.795C740.68 546.221 739.648 541.501 733.214 540.195C711.26 535.714 689.433 530.636 667.572 525.712C602.289 510.981 537.014 496.173 471.722 481.459C435.287 473.249 398.802 465.269 362.401 456.862C358.382 455.932 356.573 456.589 354.602 460.029C347.512 472.498 340.105 484.771 332.528 497.616C335.677 499.433 338.348 499.749 340.993 500.27C367.717 505.331 394.441 510.443 421.166 515.564C466.688 524.269 512.192 532.966 557.714 541.689C603.219 550.403 648.758 559.023 694.228 567.933C715.697 572.157 715.637 572.431 734.87 563.025C736.209 562.377 737.574 561.779 738.905 561.105C745.612 557.777 745.604 557.777 742.626 550.795Z" fill="#1C1F23"/>
<path fill-rule="evenodd" clip-rule="evenodd" d="M430.645 146.165C487.746 173.45 544.829 200.795 603.85 229.045C602.015 224.667 600.787 222.337 600.044 219.853C597.416 211.029 591.827 205.814 583.346 201.683C500.903 161.561 418.682 120.962 336.41 80.4819C310.428 67.697 284.481 54.8608 258.499 42.0588C252.167 38.9436 252.159 38.9863 248.959 45.6177C248.694 46.1554 248.413 46.6846 248.157 47.2223C172.319 206.94 96.5569 366.676 20.4795 526.274C14.8906 538.018 17.8173 549.019 19.8652 560.635C99.3556 395.19 178.846 229.737 258.464 64.0271C316.41 91.6709 373.536 118.888 430.645 146.165Z" fill="#1C1F23"/>
<path fill-rule="evenodd" clip-rule="evenodd" d="M119.34 288.686C160.715 200.556 202.072 112.41 243.447 24.2811C246.664 17.4192 246.724 17.4363 253.49 20.7989C254.557 21.3281 255.658 21.8316 256.716 22.3693C359.893 74.5248 463.061 126.697 566.23 178.844C572.305 181.908 578.389 184.929 584.456 187.968C582.8 180.261 581.316 173.664 573.815 169.823C477.84 120.646 382.018 71.1792 286.153 21.7804C272.885 14.9356 259.583 8.15053 246.4 1.14356C243.166 -0.580449 241.05 -0.580449 238.959 2.71394C236.084 7.22879 232.432 11.1547 230.128 16.1646C211.16 57.4127 192.004 98.5585 172.891 139.738C120.577 252.43 68.263 365.122 15.9406 477.797C12.3825 485.478 12.3057 500.517 15.9833 508.556C16.8536 506.798 17.6728 505.219 18.4236 503.598C52.068 431.975 85.7123 360.334 119.34 288.686Z" fill="#1C1F23"/>
<path fill-rule="evenodd" clip-rule="evenodd" d="M180.843 76.9147C173.437 86.9941 164.179 95.7337 158.889 107.375C110.491 213.888 62.1451 320.435 13.3979 426.794C8.27828 437.958 10.0616 448.43 11.1965 460.72C25.9068 434.271 191.978 69.9845 192.448 63.1567C187.541 67.04 184.333 72.1694 180.843 76.9147Z" fill="#1C1F23"/>
<path fill-rule="evenodd" clip-rule="evenodd" d="M125.704 147.873C121.063 151.645 117.931 156.808 114.339 161.46C107.265 170.643 99.7736 179.408 94.9611 190.341C66.8545 254.215 38.4834 317.986 9.72824 381.578C5.05234 391.93 6.3749 401.651 9.13949 412.149C48.5775 324.489 88.0326 236.821 127.471 149.161C126.89 148.735 126.302 148.308 125.704 147.873Z" fill="#1C1F23"/>
<path fill-rule="evenodd" clip-rule="evenodd" d="M42.3405 256.296C30.719 283.121 19.4815 310.125 7.14325 336.616C2.62947 346.286 2.33936 355.307 5.00155 366.283C11.8106 356.229 67.8191 228.123 67.8532 221.398C59.1414 232.877 48.2451 242.692 42.3405 256.296Z" fill="#1C1F23"/>
<path fill-rule="evenodd" clip-rule="evenodd" d="M17.5103 284.589C12.2371 291.289 6.98102 298.005 1.69077 304.688C0.74364 305.891 -0.101095 307.146 0.00983003 308.699C0.376735 314.016 0.846029 319.342 1.2812 324.659C1.81022 324.702 2.32218 324.753 2.85121 324.813C8.42304 311.704 13.9949 298.603 19.5582 285.502C18.8756 285.195 18.193 284.888 17.5103 284.589Z" fill="#1C1F23"/>
</svg>
