<svg width="170" height="30" viewBox="0 0 170 30" fill="none" xmlns="http://www.w3.org/2000/svg">
<g clip-path="url(#clip0_1397_3758)">
<path d="M41.197 12.3952C41.197 12.7209 41.2289 12.9652 41.2929 13.128C41.3569 13.28 41.4741 13.3832 41.6447 13.4375C41.8259 13.4917 42.1084 13.5189 42.4922 13.5189C42.5135 13.5189 42.5241 13.5515 42.5241 13.6166C42.5241 13.6817 42.5135 13.7143 42.4922 13.7143C42.1511 13.7143 41.8845 13.7089 41.6927 13.698L40.5414 13.6817L39.4221 13.698C39.2195 13.7089 38.9424 13.7143 38.5906 13.7143C38.5693 13.7143 38.5586 13.6817 38.5586 13.6166C38.5586 13.5515 38.5693 13.5189 38.5906 13.5189C38.9743 13.5189 39.2569 13.4917 39.438 13.4375C39.6192 13.3832 39.7419 13.28 39.8058 13.128C39.8698 12.9652 39.9018 12.7209 39.9018 12.3952V4.85489C39.9018 4.52917 39.8698 4.29031 39.8058 4.13832C39.7419 3.98632 39.6192 3.88317 39.438 3.82889C39.2569 3.76374 38.9743 3.73117 38.5906 3.73117C38.5693 3.73117 38.5586 3.6986 38.5586 3.63346C38.5586 3.56832 38.5693 3.53574 38.5906 3.53574L39.4221 3.55203C39.8911 3.57374 40.2642 3.5846 40.5414 3.5846C40.8505 3.5846 41.2396 3.57374 41.7086 3.55203L42.4922 3.53574C42.5135 3.53574 42.5241 3.56832 42.5241 3.63346C42.5241 3.6986 42.5135 3.73117 42.4922 3.73117C42.1191 3.73117 41.8419 3.76374 41.6607 3.82889C41.4795 3.89403 41.3569 4.00803 41.2929 4.17089C41.2289 4.32288 41.197 4.56174 41.197 4.88746V12.3952ZM57.1225 13.5189C57.1438 13.5189 57.1545 13.5515 57.1545 13.6166C57.1545 13.6817 57.1438 13.7143 57.1225 13.7143C56.7813 13.7143 56.5095 13.7089 56.307 13.698L55.1717 13.6817L54.1004 13.698C53.9191 13.7089 53.6686 13.7143 53.3488 13.7143C53.3169 13.7143 53.3009 13.6817 53.3009 13.6166C53.3009 13.5515 53.3169 13.5189 53.3488 13.5189C53.8179 13.5189 54.1324 13.4646 54.2923 13.356C54.4628 13.2474 54.5481 13.0194 54.5481 12.672L54.5321 12.3952L54.2283 5.22946L50.6945 13.6003C50.6731 13.6438 50.6305 13.6655 50.5666 13.6655C50.5026 13.6655 50.4599 13.6438 50.4386 13.6003L46.4571 5.2946L46.3292 11.8415C46.3185 12.4169 46.4197 12.8403 46.633 13.1117C46.8462 13.3832 47.1927 13.5189 47.6724 13.5189C47.7043 13.5189 47.7203 13.5515 47.7203 13.6166C47.7203 13.6817 47.7043 13.7143 47.6724 13.7143C47.3845 13.7143 47.1607 13.7089 47.0008 13.698L46.1213 13.6817L45.2419 13.698C45.0926 13.7089 44.8741 13.7143 44.5863 13.7143C44.5649 13.7143 44.5543 13.6817 44.5543 13.6166C44.5543 13.5515 44.5649 13.5189 44.5863 13.5189C45.471 13.5189 45.9187 12.9598 45.9294 11.8415L46.0734 4.54546C45.7322 4.0026 45.2738 3.73117 44.6982 3.73117C44.6768 3.73117 44.6662 3.6986 44.6662 3.63346C44.6662 3.56832 44.6768 3.53574 44.6982 3.53574L45.3378 3.55203C45.4657 3.56289 45.6309 3.56832 45.8335 3.56832C46.068 3.56832 46.2598 3.56289 46.4091 3.55203C46.5584 3.54117 46.6756 3.53574 46.7609 3.53574C46.8995 3.53574 47.0114 3.5846 47.0967 3.68232C47.182 3.78003 47.3152 4.01346 47.4965 4.3826L51.0463 11.7275L54.3882 3.94289C54.4947 3.67146 54.6546 3.53574 54.8679 3.53574C54.9319 3.53574 55.0171 3.54117 55.1237 3.55203C55.2303 3.56289 55.3689 3.56832 55.5395 3.56832L56.355 3.55203C56.4829 3.54117 56.6694 3.53574 56.9146 3.53574C56.9466 3.53574 56.9626 3.56832 56.9626 3.63346C56.9626 3.6986 56.9466 3.73117 56.9146 3.73117C56.3923 3.73117 56.0138 3.81803 55.7793 3.99174C55.5555 4.16546 55.4489 4.46946 55.4595 4.90374L55.8113 12.3952C55.8326 12.7318 55.8753 12.9761 55.9392 13.128C56.0032 13.28 56.1204 13.3832 56.291 13.4375C56.4615 13.4917 56.7387 13.5189 57.1225 13.5189ZM61.4845 12.33C61.4845 12.6774 61.5272 12.9326 61.6124 13.0955C61.6977 13.2474 61.8576 13.356 62.0922 13.4212C62.3373 13.4863 62.7264 13.5189 63.2594 13.5189C63.2914 13.5189 63.3074 13.5515 63.3074 13.6166C63.3074 13.6817 63.2914 13.7143 63.2594 13.7143C62.8224 13.7143 62.4812 13.7089 62.2361 13.698L60.8449 13.6817L59.7416 13.698C59.539 13.7089 59.2619 13.7143 58.9101 13.7143C58.8888 13.7143 58.8781 13.6817 58.8781 13.6166C58.8781 13.5515 58.8888 13.5189 58.9101 13.5189C59.2939 13.5189 59.571 13.4917 59.7416 13.4375C59.9228 13.3832 60.0454 13.28 60.1094 13.128C60.1733 12.9652 60.2053 12.7209 60.2053 12.3952V4.85489C60.2053 4.52917 60.1733 4.29031 60.1094 4.13832C60.0454 3.98632 59.9228 3.88317 59.7416 3.82889C59.571 3.76374 59.2939 3.73117 58.9101 3.73117C58.8888 3.73117 58.8781 3.6986 58.8781 3.63346C58.8781 3.56832 58.8888 3.53574 58.9101 3.53574L59.7416 3.55203C60.1893 3.57374 60.5518 3.5846 60.8289 3.5846C61.0848 3.5846 61.3886 3.56832 61.7404 3.53574C61.8683 3.53574 62.0655 3.53032 62.332 3.51946C62.6091 3.49775 62.849 3.48689 63.0516 3.48689C64.0536 3.48689 64.8584 3.71489 65.4661 4.17089C66.0737 4.61603 66.3775 5.2946 66.3775 6.2066C66.3775 6.91231 66.2016 7.50946 65.8498 7.99803C65.5087 8.4866 65.0663 8.85029 64.5226 9.08917C63.9897 9.32806 63.4353 9.44746 62.8597 9.44746C62.5506 9.44746 62.2947 9.42029 62.0922 9.36603C62.0602 9.36603 62.0442 9.33886 62.0442 9.2846C62.0442 9.25203 62.0495 9.21946 62.0602 9.18689C62.0815 9.15432 62.1028 9.14343 62.1241 9.15432C62.2947 9.19777 62.4866 9.21946 62.6998 9.21946C63.3287 9.21946 63.8617 8.98606 64.2988 8.51917C64.7358 8.05231 64.9544 7.37917 64.9544 6.49974C64.9544 5.64203 64.7412 4.97431 64.3148 4.4966C63.8883 4.00803 63.3234 3.76374 62.6198 3.76374C62.3 3.76374 62.0602 3.79089 61.9003 3.84517C61.7511 3.8886 61.6444 3.99174 61.5805 4.1546C61.5165 4.3066 61.4845 4.55088 61.4845 4.88746V12.33ZM75.5222 11.2389C75.5222 11.2172 75.5435 11.2063 75.5862 11.2063C75.6182 11.2063 75.6448 11.2172 75.6661 11.2389C75.6981 11.2498 75.7141 11.2606 75.7141 11.2715C75.6075 12.0532 75.5542 12.786 75.5542 13.47C75.5542 13.5569 75.5382 13.622 75.5062 13.6655C75.4743 13.698 75.4103 13.7143 75.3144 13.7143H68.5026C68.4706 13.7143 68.4546 13.6817 68.4546 13.6166C68.4546 13.5515 68.4706 13.5189 68.5026 13.5189C68.8863 13.5189 69.1635 13.4917 69.3341 13.4375C69.5046 13.3832 69.6219 13.28 69.6858 13.128C69.7498 12.9652 69.7818 12.7209 69.7818 12.3952V4.85489C69.7818 4.52917 69.7498 4.29031 69.6858 4.13832C69.6219 3.98632 69.4993 3.88317 69.3181 3.82889C69.1475 3.76374 68.8757 3.73117 68.5026 3.73117C68.4706 3.73117 68.4546 3.6986 68.4546 3.63346C68.4546 3.56832 68.4706 3.53574 68.5026 3.53574H75.0265C75.1331 3.53574 75.1864 3.5846 75.1864 3.68232L75.2184 5.73432C75.2184 5.76689 75.1864 5.7886 75.1225 5.79946C75.0691 5.79946 75.0371 5.78317 75.0265 5.7506C74.9519 5.15346 74.744 4.70289 74.4029 4.39889C74.0617 4.08403 73.614 3.9266 73.0598 3.9266H72.2443C71.7752 3.9266 71.4608 3.99717 71.3008 4.13832C71.1409 4.2686 71.061 4.52917 71.061 4.92003V8.22603H72.8199C73.3636 8.22603 73.7633 8.13374 74.0192 7.94917C74.275 7.75374 74.4029 7.45518 74.4029 7.05346C74.4029 7.03175 74.4295 7.02089 74.4829 7.02089C74.5468 7.02089 74.5788 7.03175 74.5788 7.05346L74.5628 8.42146L74.5788 9.15432C74.6001 9.50172 74.6108 9.77317 74.6108 9.9686C74.6108 9.99029 74.5788 10.0012 74.5149 10.0012C74.4509 10.0012 74.4189 9.99029 74.4189 9.9686C74.4189 9.50172 74.2856 9.15972 74.0192 8.9426C73.7633 8.7146 73.3476 8.6006 72.7719 8.6006H71.061V12.33C71.061 12.7209 71.1303 12.9869 71.2689 13.128C71.4181 13.2692 71.7112 13.3397 72.1483 13.3397H73.1877C73.7953 13.3397 74.2963 13.1606 74.6908 12.8023C75.0958 12.4331 75.3729 11.912 75.5222 11.2389ZM88.3299 13.5189C88.3518 13.5189 88.3619 13.5515 88.3619 13.6166C88.3619 13.6817 88.3518 13.7143 88.3299 13.7143H86.0113C85.7555 13.7143 85.2707 13.2529 84.5562 12.33C83.8529 11.3963 83.0108 10.1206 82.03 8.50289C81.7849 8.55717 81.5503 8.58432 81.3265 8.58432C81.124 8.58432 80.8628 8.57343 80.543 8.55174V12.3952C80.543 12.7209 80.5749 12.9652 80.6389 13.128C80.7029 13.28 80.8202 13.3832 80.9907 13.4375C81.172 13.4917 81.4544 13.5189 81.8382 13.5189C81.8701 13.5189 81.8861 13.5515 81.8861 13.6166C81.8861 13.6817 81.8701 13.7143 81.8382 13.7143C81.5078 13.7143 81.2465 13.7089 81.0546 13.698L79.9034 13.6817L78.784 13.698C78.5816 13.7089 78.3097 13.7143 77.9686 13.7143C77.9366 13.7143 77.9206 13.6817 77.9206 13.6166C77.9206 13.5515 77.9366 13.5189 77.9686 13.5189C78.3523 13.5189 78.6348 13.4917 78.816 13.4375C78.9973 13.3832 79.1198 13.28 79.1838 13.128C79.2478 12.9652 79.2797 12.7209 79.2797 12.3952V4.85489C79.2797 4.52917 79.2478 4.29031 79.1838 4.13832C79.1198 3.98632 78.9973 3.88317 78.816 3.82889C78.6455 3.76374 78.3683 3.73117 77.9845 3.73117C77.9632 3.73117 77.9526 3.6986 77.9526 3.63346C77.9526 3.56832 77.9632 3.53574 77.9845 3.53574L78.784 3.55203C79.2531 3.57374 79.6262 3.5846 79.9034 3.5846C80.0952 3.5846 80.2765 3.57918 80.447 3.56832C80.6176 3.55746 80.7668 3.5466 80.8947 3.53574C81.2465 3.50317 81.577 3.48689 81.8861 3.48689C82.7923 3.48689 83.4905 3.67146 83.9808 4.0406C84.4712 4.39889 84.7161 4.89832 84.7161 5.53889C84.7161 6.04917 84.5672 6.53232 84.2684 6.98832C83.9702 7.44432 83.5811 7.81346 83.1014 8.09574C83.9968 9.47463 84.743 10.5549 85.3397 11.3366C85.9474 12.1074 86.486 12.6666 86.9547 13.014C87.4243 13.3506 87.8822 13.5189 88.3299 13.5189ZM80.543 8.12832C80.9481 8.17175 81.2625 8.19346 81.4864 8.19346C82.1686 8.19346 82.6536 8.04146 82.9415 7.73746C83.24 7.4226 83.3892 6.88518 83.3892 6.12517C83.3892 5.26746 83.2293 4.65946 82.9095 4.30117C82.5897 3.94289 82.1474 3.76374 81.5823 3.76374C81.3052 3.76374 81.092 3.79089 80.9427 3.84517C80.8042 3.89946 80.7029 4.00803 80.6389 4.17089C80.5749 4.32288 80.543 4.56174 80.543 4.88746V8.12832ZM92.2904 12.3952C92.2904 12.7209 92.3224 12.9652 92.3863 13.128C92.4503 13.28 92.5673 13.3832 92.7381 13.4375C92.919 13.4917 93.2018 13.5189 93.5856 13.5189C93.6066 13.5189 93.6176 13.5515 93.6176 13.6166C93.6176 13.6817 93.6066 13.7143 93.5856 13.7143C93.2447 13.7143 92.978 13.7089 92.7861 13.698L91.6348 13.6817L90.5155 13.698C90.3127 13.7089 90.0358 13.7143 89.684 13.7143C89.663 13.7143 89.652 13.6817 89.652 13.6166C89.652 13.5515 89.663 13.5189 89.684 13.5189C90.0678 13.5189 90.3505 13.4917 90.5315 13.4375C90.7124 13.3832 90.8353 13.28 90.8992 13.128C90.9632 12.9652 90.9952 12.7209 90.9952 12.3952V4.85489C90.9952 4.52917 90.9632 4.29031 90.8992 4.13832C90.8353 3.98632 90.7124 3.88317 90.5315 3.82889C90.3505 3.76374 90.0678 3.73117 89.684 3.73117C89.663 3.73117 89.652 3.6986 89.652 3.63346C89.652 3.56832 89.663 3.53574 89.684 3.53574L90.5155 3.55203C90.9842 3.57374 91.3579 3.5846 91.6348 3.5846C91.9436 3.5846 92.3333 3.57374 92.8021 3.55203L93.5856 3.53574C93.6066 3.53574 93.6176 3.56832 93.6176 3.63346C93.6176 3.6986 93.6066 3.73117 93.5856 3.73117C93.2128 3.73117 92.935 3.76374 92.7541 3.82889C92.5731 3.89403 92.4503 4.00803 92.3863 4.17089C92.3224 4.32288 92.2904 4.56174 92.2904 4.88746V12.3952ZM106.393 13.5189C106.436 13.5189 106.457 13.5515 106.457 13.6166C106.457 13.6817 106.436 13.7143 106.393 13.7143C106.191 13.7143 105.865 13.7034 105.417 13.6817C104.992 13.6601 104.677 13.6492 104.474 13.6492C104.229 13.6492 103.925 13.6601 103.563 13.6817C103.201 13.7034 102.929 13.7143 102.747 13.7143C102.705 13.7143 102.683 13.6817 102.683 13.6166C102.683 13.5515 102.705 13.5189 102.747 13.5189C103.11 13.5189 103.371 13.4863 103.531 13.4212C103.69 13.3451 103.77 13.2149 103.77 13.0303C103.77 12.8458 103.69 12.5906 103.531 12.2649L101.74 8.4866H98.7975L97.4863 11.5646C97.3374 11.9229 97.2625 12.2214 97.2625 12.4603C97.2625 13.166 97.78 13.5189 98.8135 13.5189C98.8674 13.5189 98.8934 13.5515 98.8934 13.6166C98.8934 13.6817 98.8674 13.7143 98.8135 13.7143C98.6216 13.7143 98.3447 13.7034 97.982 13.6817C97.5772 13.6601 97.2254 13.6492 96.9267 13.6492C96.6498 13.6492 96.319 13.6601 95.9353 13.6817C95.5944 13.7034 95.3176 13.7143 95.1038 13.7143C95.0617 13.7143 95.0398 13.6817 95.0398 13.6166C95.0398 13.5515 95.0617 13.5189 95.1038 13.5189C95.4026 13.5189 95.6534 13.4591 95.8553 13.3397C96.0691 13.2203 96.2711 13.014 96.463 12.7209C96.6548 12.4277 96.8736 11.9934 97.1185 11.418L100.524 3.42174C100.535 3.38917 100.572 3.37289 100.636 3.37289C100.7 3.36203 100.738 3.37831 100.748 3.42174L104.602 11.4832C104.965 12.2758 105.273 12.8132 105.529 13.0955C105.785 13.3777 106.073 13.5189 106.393 13.5189ZM98.9414 8.11203H101.564L100.189 5.1806L98.9414 8.11203ZM110.311 12.33C110.311 12.6341 110.338 12.8566 110.391 12.9977C110.455 13.128 110.567 13.2203 110.727 13.2746C110.887 13.3181 111.138 13.3397 111.478 13.3397H112.838C113.509 13.3397 114.064 13.1389 114.501 12.7372C114.948 12.3246 115.247 11.7709 115.396 11.076C115.396 11.0435 115.423 11.0326 115.476 11.0435C115.54 11.0435 115.572 11.0597 115.572 11.0923C115.476 12.0478 115.428 12.8403 115.428 13.47C115.428 13.5569 115.407 13.622 115.364 13.6655C115.332 13.698 115.274 13.7143 115.188 13.7143H107.737C107.716 13.7143 107.705 13.6817 107.705 13.6166C107.705 13.5515 107.716 13.5189 107.737 13.5189C108.121 13.5189 108.398 13.4917 108.568 13.4375C108.75 13.3832 108.872 13.28 108.936 13.128C109 12.9652 109.032 12.7209 109.032 12.3952V4.85489C109.032 4.52917 109 4.29031 108.936 4.13832C108.872 3.98632 108.75 3.88317 108.568 3.82889C108.398 3.76374 108.121 3.73117 107.737 3.73117C107.716 3.73117 107.705 3.6986 107.705 3.63346C107.705 3.56832 107.716 3.53574 107.737 3.53574L108.536 3.55203C109.006 3.57374 109.384 3.5846 109.672 3.5846C109.959 3.5846 110.338 3.57374 110.807 3.55203L111.606 3.53574C111.628 3.53574 111.638 3.56832 111.638 3.63346C111.638 3.6986 111.628 3.73117 111.606 3.73117C111.234 3.73117 110.957 3.76374 110.775 3.82889C110.594 3.88317 110.471 3.99174 110.407 4.1546C110.343 4.3066 110.311 4.54546 110.311 4.87117V12.33ZM44.5389 17.928C45.0293 17.928 45.5356 17.9769 46.058 18.0746C46.5803 18.1614 46.9961 18.2863 47.3052 18.4492C47.3904 18.4926 47.4438 18.5415 47.4651 18.5957C47.4971 18.6392 47.5237 18.7206 47.545 18.84L47.7209 20.8106C47.7209 20.8432 47.6942 20.8649 47.641 20.8757C47.5877 20.8757 47.5557 20.8595 47.545 20.8269C47.2679 19.98 46.8148 19.3503 46.1859 18.9377C45.557 18.5143 44.8 18.3026 43.9153 18.3026C43.1371 18.3026 42.4602 18.4871 41.8845 18.8563C41.3089 19.2146 40.8665 19.7249 40.5574 20.3872C40.2588 21.0495 40.1096 21.8149 40.1096 22.6835C40.1096 23.6932 40.3015 24.6215 40.6853 25.4683C41.069 26.3152 41.586 26.9883 42.2363 27.4877C42.8972 27.9763 43.6168 28.2206 44.395 28.2206C45.93 28.2206 47.028 27.3249 47.6889 25.5335C47.6889 25.5009 47.7102 25.4846 47.7529 25.4846C47.7849 25.4846 47.8116 25.49 47.8329 25.5009C47.8648 25.5118 47.8808 25.5281 47.8808 25.5497L47.657 27.5203C47.6357 27.6506 47.609 27.7374 47.577 27.7809C47.5557 27.8135 47.4971 27.8514 47.4011 27.8949C46.4204 28.2857 45.4183 28.4812 44.395 28.4812C43.1051 28.4812 42.0284 28.2206 41.165 27.6995C40.3015 27.1674 39.6672 26.4943 39.2622 25.68C38.8571 24.8657 38.6545 24.0135 38.6545 23.1232C38.6545 22.1135 38.9264 21.2177 39.47 20.436C40.0244 19.6434 40.7492 19.0301 41.6447 18.5957C42.5508 18.1506 43.5155 17.928 44.5389 17.928ZM60.6401 28.0903C60.6827 28.0903 60.704 28.1229 60.704 28.188C60.704 28.2532 60.6827 28.2857 60.6401 28.2857C60.4375 28.2857 60.1124 28.2749 59.6647 28.2532C59.2383 28.2315 58.9238 28.2206 58.7213 28.2206C58.476 28.2206 58.1722 28.2315 57.8098 28.2532C57.4474 28.2749 57.1755 28.2857 56.9943 28.2857C56.9517 28.2857 56.9304 28.2532 56.9304 28.188C56.9304 28.1229 56.9517 28.0903 56.9943 28.0903C57.3567 28.0903 57.618 28.0577 57.7779 27.9926C57.9378 27.9166 58.0177 27.7863 58.0177 27.6017C58.0177 27.4172 57.9378 27.162 57.7779 26.8363L55.987 23.058H53.0448L51.7336 26.136C51.5843 26.4943 51.5097 26.7929 51.5097 27.0317C51.5097 27.7374 52.0267 28.0903 53.0608 28.0903C53.114 28.0903 53.1407 28.1229 53.1407 28.188C53.1407 28.2532 53.114 28.2857 53.0608 28.2857C52.8689 28.2857 52.5917 28.2749 52.2293 28.2532C51.8241 28.2315 51.4724 28.2206 51.1739 28.2206C50.8967 28.2206 50.5663 28.2315 50.1826 28.2532C49.8414 28.2749 49.5642 28.2857 49.3511 28.2857C49.3084 28.2857 49.2871 28.2532 49.2871 28.188C49.2871 28.1229 49.3084 28.0903 49.3511 28.0903C49.6495 28.0903 49.9 28.0306 50.1026 27.9112C50.3158 27.7918 50.5183 27.5855 50.7102 27.2923C50.9021 26.9992 51.1206 26.5649 51.3658 25.9895L54.7717 17.9932C54.7823 17.9606 54.8197 17.9443 54.8836 17.9443C54.9476 17.9334 54.9849 17.9497 54.9956 17.9932L58.8492 26.0546C59.2116 26.8472 59.5208 27.3846 59.7766 27.6669C60.0325 27.9491 60.3203 28.0903 60.6401 28.0903ZM53.1887 22.6835H55.8111L54.4359 19.752L53.1887 22.6835ZM64.6544 26.9015C64.6544 27.2489 64.6971 27.504 64.7824 27.6669C64.8676 27.8189 65.0275 27.9275 65.2621 27.9926C65.5072 28.0577 65.8964 28.0903 66.4293 28.0903C66.4613 28.0903 66.4773 28.1229 66.4773 28.188C66.4773 28.2532 66.4613 28.2857 66.4293 28.2857C65.9923 28.2857 65.6511 28.2803 65.406 28.2695L64.0148 28.2532L62.9115 28.2695C62.7089 28.2803 62.4318 28.2857 62.08 28.2857C62.0587 28.2857 62.048 28.2532 62.048 28.188C62.048 28.1229 62.0587 28.0903 62.08 28.0903C62.4638 28.0903 62.7409 28.0631 62.9115 28.0089C63.0927 27.9546 63.2153 27.8514 63.2793 27.6995C63.3432 27.5366 63.3752 27.2923 63.3752 26.9666V19.4263C63.3752 19.1006 63.3432 18.8617 63.2793 18.7097C63.2153 18.5578 63.0927 18.4546 62.9115 18.4003C62.7409 18.3352 62.4638 18.3026 62.08 18.3026C62.0587 18.3026 62.048 18.27 62.048 18.2049C62.048 18.1397 62.0587 18.1072 62.08 18.1072L62.9115 18.1235C63.3592 18.1451 63.7217 18.156 63.9988 18.156C64.2547 18.156 64.5585 18.1397 64.9103 18.1072C65.0382 18.1072 65.2354 18.1018 65.5019 18.0909C65.779 18.0692 66.0189 18.0583 66.2215 18.0583C67.2235 18.0583 68.0283 18.2863 68.636 18.7423C69.2436 19.1874 69.5474 19.866 69.5474 20.778C69.5474 21.4837 69.3715 22.0809 69.0197 22.5695C68.6786 23.058 68.2362 23.4217 67.6926 23.6606C67.1596 23.8995 66.6052 24.0189 66.0296 24.0189C65.7205 24.0189 65.4646 23.9917 65.2621 23.9375C65.2301 23.9375 65.2141 23.9103 65.2141 23.856C65.2141 23.8235 65.2194 23.7909 65.2301 23.7583C65.2514 23.7257 65.2727 23.7149 65.294 23.7257C65.4646 23.7692 65.6565 23.7909 65.8697 23.7909C66.4986 23.7909 67.0317 23.5575 67.4687 23.0906C67.9057 22.6237 68.1243 21.9506 68.1243 21.0712C68.1243 20.2134 67.9111 19.5457 67.4847 19.068C67.0583 18.5795 66.4933 18.3352 65.7897 18.3352C65.4699 18.3352 65.2301 18.3623 65.0702 18.4166C64.921 18.4601 64.8143 18.5632 64.7504 18.726C64.6864 18.878 64.6544 19.1223 64.6544 19.4589V26.9015ZM74.3109 26.9666C74.3109 27.2923 74.3428 27.5366 74.4068 27.6995C74.4708 27.8514 74.588 27.9546 74.7586 28.0089C74.9398 28.0631 75.2223 28.0903 75.6061 28.0903C75.6273 28.0903 75.638 28.1229 75.638 28.188C75.638 28.2532 75.6273 28.2857 75.6061 28.2857C75.2649 28.2857 74.9984 28.2803 74.8065 28.2695L73.6553 28.2532L72.536 28.2695C72.3334 28.2803 72.0563 28.2857 71.7045 28.2857C71.6831 28.2857 71.6725 28.2532 71.6725 28.188C71.6725 28.1229 71.6831 28.0903 71.7045 28.0903C72.0882 28.0903 72.3707 28.0631 72.5519 28.0089C72.7331 27.9546 72.8558 27.8514 72.9197 27.6995C72.9837 27.5366 73.0157 27.2923 73.0157 26.9666V19.4263C73.0157 19.1006 72.9837 18.8617 72.9197 18.7097C72.8558 18.5578 72.7331 18.4546 72.5519 18.4003C72.3707 18.3352 72.0882 18.3026 71.7045 18.3026C71.6831 18.3026 71.6725 18.27 71.6725 18.2049C71.6725 18.1397 71.6831 18.1072 71.7045 18.1072L72.536 18.1235C73.005 18.1451 73.378 18.156 73.6553 18.156C73.9644 18.156 74.3534 18.1451 74.8225 18.1235L75.6061 18.1072C75.6273 18.1072 75.638 18.1397 75.638 18.2049C75.638 18.27 75.6273 18.3026 75.6061 18.3026C75.2329 18.3026 74.9558 18.3352 74.7746 18.4003C74.5933 18.4655 74.4708 18.5795 74.4068 18.7423C74.3428 18.8943 74.3109 19.1332 74.3109 19.4589V26.9666ZM80.3225 18.4329C79.6616 18.4329 79.1446 18.6229 78.7714 19.0029C78.3983 19.3721 78.1212 19.9691 77.9399 20.7943C77.9293 20.816 77.892 20.8269 77.828 20.8269C77.7747 20.8269 77.7481 20.816 77.7481 20.7943C77.7907 20.4795 77.8387 19.98 77.892 19.296C77.9453 18.612 77.9719 18.0963 77.9719 17.7489C77.9719 17.6946 78.0039 17.6675 78.0679 17.6675C78.1318 17.6675 78.1638 17.6946 78.1638 17.7489C78.1638 17.9878 78.457 18.1072 79.0433 18.1072C79.9494 18.1397 81.0207 18.156 82.2573 18.156C82.8863 18.156 83.5525 18.1451 84.2558 18.1235L85.3431 18.1072C85.7378 18.1072 86.0256 18.08 86.2066 18.0257C86.3883 17.9715 86.5053 17.8629 86.5583 17.7C86.5693 17.6566 86.6013 17.6349 86.6543 17.6349C86.7183 17.6349 86.7502 17.6566 86.7502 17.7C86.7183 18.0041 86.6812 18.4926 86.6383 19.1657C86.6063 19.8389 86.5903 20.3818 86.5903 20.7943C86.5903 20.816 86.5583 20.8269 86.4944 20.8269C86.4414 20.8269 86.4144 20.816 86.4144 20.7943C86.3404 19.9583 86.1266 19.3558 85.7748 18.9866C85.423 18.6174 84.9013 18.4329 84.2078 18.4329C83.8137 18.4329 83.5312 18.4601 83.3606 18.5143C83.1901 18.5578 83.0728 18.65 83.0088 18.7912C82.9448 18.9215 82.9129 19.1441 82.9129 19.4589V26.9666C82.9129 27.3032 82.9448 27.5475 83.0088 27.6995C83.0834 27.8514 83.2221 27.9546 83.4245 28.0089C83.6271 28.0631 83.9522 28.0903 84.3997 28.0903C84.4216 28.0903 84.4317 28.1229 84.4317 28.188C84.4317 28.2532 84.4216 28.2857 84.3997 28.2857C84.0269 28.2857 83.7337 28.2803 83.5205 28.2695L82.2573 28.2532L81.026 28.2695C80.8129 28.2803 80.5143 28.2857 80.1306 28.2857C80.0986 28.2857 80.0826 28.2532 80.0826 28.188C80.0826 28.1229 80.0986 28.0903 80.1306 28.0903C80.5677 28.0903 80.8875 28.0631 81.09 28.0089C81.2926 27.9546 81.4312 27.8514 81.5057 27.6995C81.5804 27.5366 81.6177 27.2923 81.6177 26.9666V19.4263C81.6177 19.1223 81.5857 18.9052 81.5217 18.7749C81.4578 18.6337 81.3405 18.5415 81.1699 18.498C80.9994 18.4546 80.7169 18.4329 80.3225 18.4329ZM98.2698 28.0903C98.3128 28.0903 98.3338 28.1229 98.3338 28.188C98.3338 28.2532 98.3128 28.2857 98.2698 28.2857C98.067 28.2857 97.7422 28.2749 97.2944 28.2532C96.8678 28.2315 96.5538 28.2206 96.351 28.2206C96.1061 28.2206 95.8023 28.2315 95.4396 28.2532C95.0769 28.2749 94.805 28.2857 94.6241 28.2857C94.5812 28.2857 94.5601 28.2532 94.5601 28.188C94.5601 28.1229 94.5812 28.0903 94.6241 28.0903C94.9868 28.0903 95.2477 28.0577 95.4076 27.9926C95.5675 27.9166 95.6475 27.7863 95.6475 27.6017C95.6475 27.4172 95.5675 27.162 95.4076 26.8363L93.6167 23.058H90.6745L89.3633 26.136C89.2144 26.4943 89.1395 26.7929 89.1395 27.0317C89.1395 27.7374 89.6562 28.0903 90.6905 28.0903C90.7435 28.0903 90.7705 28.1229 90.7705 28.188C90.7705 28.2532 90.7435 28.2857 90.6905 28.2857C90.4986 28.2857 90.2218 28.2749 89.859 28.2532C89.4542 28.2315 89.1025 28.2206 88.8037 28.2206C88.5268 28.2206 88.1961 28.2315 87.8123 28.2532C87.4715 28.2749 87.1937 28.2857 86.9808 28.2857C86.9379 28.2857 86.9169 28.2532 86.9169 28.188C86.9169 28.1229 86.9379 28.0903 86.9808 28.0903C87.2796 28.0903 87.5295 28.0306 87.7324 27.9112C87.9453 27.7918 88.1481 27.5855 88.34 27.2923C88.5319 26.9992 88.7507 26.5649 88.9956 25.9895L92.4015 17.9932C92.4124 17.9606 92.4494 17.9443 92.5134 17.9443C92.5774 17.9334 92.6144 17.9497 92.6253 17.9932L96.4789 26.0546C96.8417 26.8472 97.1505 27.3846 97.4064 27.6669C97.6622 27.9491 97.95 28.0903 98.2698 28.0903ZM90.8184 22.6835H93.4408L92.0657 19.752L90.8184 22.6835ZM102.188 26.9015C102.188 27.2055 102.215 27.428 102.268 27.5692C102.332 27.6995 102.444 27.7918 102.604 27.846C102.764 27.8895 103.015 27.9112 103.356 27.9112H104.715C105.386 27.9112 105.941 27.7103 106.378 27.3086C106.825 26.8961 107.124 26.3423 107.273 25.6475C107.273 25.6149 107.3 25.604 107.353 25.6149C107.417 25.6149 107.449 25.6312 107.449 25.6637C107.353 26.6192 107.305 27.4117 107.305 28.0415C107.305 28.1283 107.284 28.1934 107.241 28.2369C107.209 28.2695 107.15 28.2857 107.065 28.2857H99.6138C99.5928 28.2857 99.5819 28.2532 99.5819 28.188C99.5819 28.1229 99.5928 28.0903 99.6138 28.0903C99.9976 28.0903 100.274 28.0631 100.445 28.0089C100.626 27.9546 100.749 27.8514 100.813 27.6995C100.877 27.5366 100.909 27.2923 100.909 26.9666V19.4263C100.909 19.1006 100.877 18.8617 100.813 18.7097C100.749 18.5578 100.626 18.4546 100.445 18.4003C100.274 18.3352 99.9976 18.3026 99.6138 18.3026C99.5928 18.3026 99.5819 18.27 99.5819 18.2049C99.5819 18.1397 99.5928 18.1072 99.6138 18.1072L100.413 18.1235C100.882 18.1451 101.261 18.156 101.549 18.156C101.836 18.156 102.215 18.1451 102.684 18.1235L103.483 18.1072C103.504 18.1072 103.515 18.1397 103.515 18.2049C103.515 18.27 103.504 18.3026 103.483 18.3026C103.111 18.3026 102.833 18.3352 102.652 18.4003C102.471 18.4546 102.348 18.5632 102.284 18.726C102.22 18.878 102.188 19.1169 102.188 19.4426V26.9015ZM119.513 28.4812C118.352 28.4812 117.338 28.2532 116.475 27.7972C115.612 27.3412 114.951 26.7223 114.492 25.9406C114.034 25.1589 113.805 24.2849 113.805 23.3186C113.805 22.2654 114.066 21.3317 114.588 20.5175C115.122 19.7032 115.846 19.068 116.763 18.612C117.69 18.156 118.73 17.928 119.881 17.928C120.393 17.928 120.888 17.9769 121.368 18.0746C121.859 18.1723 122.258 18.3026 122.567 18.4655C122.653 18.5197 122.706 18.5686 122.727 18.612C122.749 18.6555 122.765 18.7314 122.775 18.84L122.983 20.8106C122.983 20.8432 122.951 20.8649 122.887 20.8757C122.834 20.8757 122.802 20.8595 122.791 20.8269C122.514 20.0235 122.061 19.4046 121.432 18.9703C120.803 18.536 120.047 18.3189 119.161 18.3189C117.904 18.3189 116.934 18.7097 116.251 19.4915C115.569 20.2732 115.228 21.348 115.228 22.716C115.228 23.78 115.431 24.7301 115.835 25.566C116.241 26.3912 116.795 27.0371 117.498 27.504C118.213 27.9709 119.017 28.2043 119.913 28.2043C120.425 28.2043 120.819 28.1555 121.096 28.0577C121.374 27.96 121.576 27.77 121.704 27.4877C121.832 27.2055 121.896 26.7875 121.896 26.2337C121.896 25.6691 121.859 25.2783 121.784 25.0612C121.72 24.8332 121.571 24.6812 121.336 24.6052C121.112 24.5291 120.718 24.4912 120.153 24.4912C120.089 24.4912 120.057 24.4477 120.057 24.3609C120.057 24.3283 120.063 24.3011 120.073 24.2795C120.095 24.2469 120.116 24.2306 120.137 24.2306C120.99 24.2849 121.683 24.312 122.215 24.312C122.717 24.312 123.25 24.2957 123.814 24.2632C123.836 24.2632 123.852 24.2795 123.862 24.312C123.884 24.3337 123.894 24.3555 123.894 24.3772C123.894 24.4532 123.868 24.4912 123.814 24.4912C123.58 24.4803 123.415 24.5183 123.319 24.6052C123.223 24.6812 123.159 24.8441 123.127 25.0937C123.106 25.3434 123.095 25.7777 123.095 26.3966C123.095 26.8852 123.111 27.2326 123.143 27.4389C123.186 27.6452 123.207 27.7755 123.207 27.8297C123.207 27.8949 123.191 27.9383 123.159 27.96C123.138 27.9709 123.09 27.9926 123.015 28.0252C121.704 28.3292 120.536 28.4812 119.513 28.4812ZM136.316 28.0903C136.337 28.0903 136.348 28.1229 136.348 28.188C136.348 28.2532 136.337 28.2857 136.316 28.2857H133.998C133.742 28.2857 133.257 27.8243 132.543 26.9015C131.839 25.9678 130.997 24.692 130.016 23.0743C129.771 23.1286 129.536 23.1557 129.313 23.1557C129.11 23.1557 128.849 23.1449 128.529 23.1232V26.9666C128.529 27.2923 128.561 27.5366 128.625 27.6995C128.689 27.8514 128.806 27.9546 128.977 28.0089C129.158 28.0631 129.44 28.0903 129.824 28.0903C129.856 28.0903 129.872 28.1229 129.872 28.188C129.872 28.2532 129.856 28.2857 129.824 28.2857C129.493 28.2857 129.233 28.2803 129.041 28.2695L127.889 28.2532L126.77 28.2695C126.567 28.2803 126.295 28.2857 125.955 28.2857C125.923 28.2857 125.907 28.2532 125.907 28.188C125.907 28.1229 125.923 28.0903 125.955 28.0903C126.338 28.0903 126.621 28.0631 126.802 28.0089C126.983 27.9546 127.106 27.8514 127.17 27.6995C127.234 27.5366 127.266 27.2923 127.266 26.9666V19.4263C127.266 19.1006 127.234 18.8617 127.17 18.7097C127.106 18.5578 126.983 18.4546 126.802 18.4003C126.631 18.3352 126.354 18.3026 125.971 18.3026C125.95 18.3026 125.939 18.27 125.939 18.2049C125.939 18.1397 125.95 18.1072 125.971 18.1072L126.77 18.1235C127.239 18.1451 127.613 18.156 127.889 18.156C128.081 18.156 128.262 18.1506 128.433 18.1397C128.604 18.1289 128.753 18.1181 128.881 18.1072C129.233 18.0746 129.563 18.0583 129.872 18.0583C130.779 18.0583 131.476 18.2429 131.967 18.612C132.458 18.9703 132.702 19.4698 132.702 20.1103C132.702 20.6206 132.553 21.1037 132.255 21.5597C131.956 22.0157 131.567 22.3849 131.087 22.6672C131.983 24.0461 132.729 25.1263 133.326 25.908C133.934 26.6789 134.472 27.2381 134.941 27.5855C135.41 27.9221 135.868 28.0903 136.316 28.0903ZM128.529 22.6997C128.934 22.7432 129.249 22.7649 129.472 22.7649C130.155 22.7649 130.64 22.6129 130.928 22.3089C131.226 21.9941 131.375 21.4566 131.375 20.6966C131.375 19.8389 131.215 19.2309 130.896 18.8726C130.576 18.5143 130.133 18.3352 129.568 18.3352C129.291 18.3352 129.078 18.3623 128.929 18.4166C128.79 18.4709 128.689 18.5795 128.625 18.7423C128.561 18.8943 128.529 19.1332 128.529 19.4589V22.6997ZM142.053 28.4812C141.062 28.4812 140.177 28.2478 139.399 27.7809C138.631 27.3032 138.035 26.6626 137.608 25.8592C137.192 25.0449 136.984 24.1601 136.984 23.2046C136.984 22.0863 137.261 21.1309 137.816 20.3383C138.37 19.5349 139.079 18.9323 139.943 18.5306C140.817 18.1289 141.707 17.928 142.613 17.928C143.625 17.928 144.516 18.1723 145.283 18.6609C146.051 19.1386 146.637 19.7737 147.042 20.5663C147.458 21.3589 147.666 22.2003 147.666 23.0906C147.666 24.0786 147.41 24.9851 146.898 25.8103C146.387 26.6355 145.699 27.2869 144.836 27.7646C143.983 28.2423 143.056 28.4812 142.053 28.4812ZM142.613 28.1229C143.295 28.1229 143.908 27.9437 144.452 27.5855C144.995 27.2272 145.422 26.706 145.731 26.022C146.051 25.3271 146.211 24.5021 146.211 23.5466C146.211 22.5369 146.035 21.6358 145.683 20.8432C145.342 20.0506 144.846 19.4317 144.196 18.9866C143.556 18.5415 142.81 18.3189 141.957 18.3189C140.849 18.3189 139.985 18.7043 139.367 19.4752C138.748 20.2352 138.439 21.2883 138.439 22.6346C138.439 23.666 138.615 24.5998 138.967 25.4357C139.319 26.2717 139.81 26.9286 140.438 27.4063C141.078 27.884 141.802 28.1229 142.613 28.1229ZM158.389 19.9963C158.389 19.4426 158.266 19.0246 158.021 18.7423C157.787 18.4492 157.435 18.3026 156.966 18.3026C156.934 18.3026 156.918 18.27 156.918 18.2049C156.918 18.1397 156.934 18.1072 156.966 18.1072L157.686 18.1235C158.069 18.1451 158.373 18.156 158.597 18.156C158.789 18.156 159.066 18.1451 159.429 18.1235L160.116 18.1072C160.137 18.1072 160.148 18.1397 160.148 18.2049C160.148 18.27 160.137 18.3026 160.116 18.3026C159.253 18.3026 158.821 18.8672 158.821 19.9963V24.5889C158.821 25.8049 158.469 26.7603 157.766 27.4552C157.072 28.1501 156.145 28.4975 154.983 28.4975C154.194 28.4975 153.501 28.3455 152.905 28.0415C152.307 27.7266 151.843 27.2814 151.513 26.706C151.183 26.1197 151.018 25.4357 151.018 24.654V19.4263C151.018 19.1006 150.986 18.8617 150.922 18.7097C150.858 18.5578 150.735 18.4546 150.554 18.4003C150.383 18.3352 150.106 18.3026 149.723 18.3026C149.691 18.3026 149.675 18.27 149.675 18.2049C149.675 18.1397 149.691 18.1072 149.723 18.1072L150.522 18.1235C150.991 18.1451 151.364 18.156 151.641 18.156C151.939 18.156 152.323 18.1451 152.793 18.1235L153.56 18.1072C153.592 18.1072 153.608 18.1397 153.608 18.2049C153.608 18.27 153.592 18.3026 153.56 18.3026C153.187 18.3026 152.91 18.3352 152.729 18.4003C152.558 18.4655 152.441 18.5795 152.377 18.7423C152.313 18.8943 152.281 19.1332 152.281 19.4589V24.084C152.281 25.3652 152.553 26.3369 153.097 26.9992C153.65 27.6506 154.424 27.9763 155.415 27.9763C156.343 27.9763 157.067 27.6832 157.59 27.0969C158.122 26.4997 158.389 25.6691 158.389 24.6052V19.9963ZM164.436 26.9015C164.436 27.2489 164.479 27.504 164.564 27.6669C164.65 27.8189 164.81 27.9275 165.044 27.9926C165.289 28.0577 165.678 28.0903 166.211 28.0903C166.243 28.0903 166.259 28.1229 166.259 28.188C166.259 28.2532 166.243 28.2857 166.211 28.2857C165.774 28.2857 165.433 28.2803 165.188 28.2695L163.796 28.2532L162.693 28.2695C162.491 28.2803 162.213 28.2857 161.862 28.2857C161.841 28.2857 161.83 28.2532 161.83 28.188C161.83 28.1229 161.841 28.0903 161.862 28.0903C162.245 28.0903 162.523 28.0631 162.693 28.0089C162.875 27.9546 162.997 27.8514 163.061 27.6995C163.125 27.5366 163.157 27.2923 163.157 26.9666V19.4263C163.157 19.1006 163.125 18.8617 163.061 18.7097C162.997 18.5578 162.875 18.4546 162.693 18.4003C162.523 18.3352 162.245 18.3026 161.862 18.3026C161.841 18.3026 161.83 18.27 161.83 18.2049C161.83 18.1397 161.841 18.1072 161.862 18.1072L162.693 18.1235C163.141 18.1451 163.504 18.156 163.78 18.156C164.036 18.156 164.34 18.1397 164.692 18.1072C164.82 18.1072 165.018 18.1018 165.284 18.0909C165.561 18.0692 165.801 18.0583 166.003 18.0583C167.005 18.0583 167.81 18.2863 168.418 18.7423C169.025 19.1874 169.329 19.866 169.329 20.778C169.329 21.4837 169.153 22.0809 168.801 22.5695C168.46 23.058 168.018 23.4217 167.474 23.6606C166.941 23.8995 166.387 24.0189 165.811 24.0189C165.502 24.0189 165.246 23.9917 165.044 23.9375C165.012 23.9375 164.996 23.9103 164.996 23.856C164.996 23.8235 165.002 23.7909 165.012 23.7583C165.034 23.7257 165.055 23.7149 165.076 23.7257C165.246 23.7692 165.438 23.7909 165.651 23.7909C166.281 23.7909 166.814 23.5575 167.25 23.0906C167.688 22.6237 167.906 21.9506 167.906 21.0712C167.906 20.2134 167.693 19.5457 167.266 19.068C166.84 18.5795 166.275 18.3352 165.571 18.3352C165.252 18.3352 165.012 18.3623 164.852 18.4166C164.703 18.4601 164.596 18.5632 164.532 18.726C164.468 18.878 164.436 19.1223 164.436 19.4589V26.9015Z" fill="#F2F4F5"/>
<path fill-rule="evenodd" clip-rule="evenodd" d="M13.6781 17.4852C13.7925 17.274 13.9295 17.3511 14.067 17.3873C18.2498 18.4801 22.433 19.5754 26.6151 20.671C27.3089 20.8522 28.0026 21.0333 28.7304 21.2234C28.6548 20.8783 28.4907 20.6185 28.3996 20.3308C28.3344 20.1238 28.2095 20.0271 28.0019 19.9676C23.2391 18.6094 18.4787 17.243 13.7179 15.8764C13.3429 15.7683 13.413 15.7658 13.2341 16.0929C12.2194 17.958 11.2068 19.825 10.1933 21.6909C9.86821 22.2901 9.54353 22.8896 9.20117 23.5194C9.85677 23.6068 10.4782 23.6881 11.0987 23.774C12.4605 23.9616 13.8216 24.1546 15.184 24.3408C16.5464 24.526 17.9092 24.702 19.2713 24.8879C20.8096 25.0981 22.3479 25.3072 23.8839 25.5332C24.2505 25.586 24.5719 25.5417 24.8963 25.3477C25.2547 25.1329 25.6409 24.9706 26.0106 24.7756C26.0987 24.7288 26.2175 24.7196 26.2722 24.576C21.2424 23.743 16.22 22.9111 11.1435 22.0704C12.0158 20.4953 12.8537 18.9941 13.6781 17.4852Z" fill="#F2F4F5"/>
<path fill-rule="evenodd" clip-rule="evenodd" d="M7.55288 24.766C9.40513 21.2941 11.2412 17.852 13.0762 14.4124C17.9868 15.9382 22.8739 17.4563 27.842 19C27.7188 18.6987 27.6144 18.4779 27.5385 18.247C27.4507 17.9837 27.3018 17.8386 27.0348 17.7502C23.1176 16.4543 19.2052 15.1447 15.2907 13.8396C14.5031 13.5766 13.7122 13.3267 12.9283 13.0535C12.766 12.9968 12.6863 13.0161 12.63 13.1767C12.6141 13.2221 12.5847 13.263 12.5621 13.3063C10.4067 17.4151 8.25199 21.5236 6.09862 25.6331C6.04393 25.7373 5.96696 25.8334 5.95312 25.9722C6.3042 26.0648 6.66236 26.0514 7.01411 26.0862C7.97012 26.1809 8.92677 26.2644 9.88315 26.3503C10.875 26.4397 11.8667 26.5259 12.8588 26.6147C13.8152 26.6995 14.7718 26.7861 15.7285 26.8717C16.697 26.9576 17.6655 27.0424 18.6337 27.1298C19.3182 27.191 20.0039 27.2523 20.6882 27.3174C20.8829 27.336 21.0561 27.2966 21.2313 27.2008C21.6083 26.997 21.9962 26.8154 22.3766 26.6171C22.4384 26.5855 22.5529 26.5887 22.5265 26.434C17.5538 25.881 12.575 25.3262 7.55288 24.766Z" fill="#F2F4F5"/>
<path fill-rule="evenodd" clip-rule="evenodd" d="M4.58888 27.0364C4.57268 26.9245 4.60778 26.8882 4.63007 26.8456C7.18076 21.895 9.73011 16.9448 12.2801 11.9942C12.4239 11.7153 12.426 11.7167 12.7348 11.8266C17.3505 13.4685 21.9651 15.1116 26.5823 16.748C26.6857 16.7846 26.7879 16.874 26.9415 16.8205C26.8416 16.5772 26.7302 16.3487 26.656 16.1083C26.5867 15.8816 26.4463 15.7812 26.2411 15.7048C24.6511 15.1144 23.0645 14.5117 21.4769 13.9142C18.4452 12.7729 15.4132 11.6325 12.3803 10.4919C12.1032 10.388 12.1012 10.3877 11.9608 10.663C11.6505 11.2728 11.3423 11.8839 11.0328 12.494C8.4679 17.5482 5.90305 22.6026 3.3392 27.6564C3.27471 27.7835 3.21598 27.913 3.13867 28.0754C3.29801 28.0919 3.42393 28.1091 3.55017 28.1168C4.07105 28.1468 4.59226 28.1743 5.11347 28.2014C7.17435 28.307 9.23526 28.4084 11.2958 28.5186C13.3802 28.6302 15.4641 28.7488 17.5479 28.8689C17.7896 28.883 18.0104 28.8559 18.2295 28.7294C18.5384 28.5499 18.8631 28.4003 19.1801 28.2369C19.2372 28.2074 19.332 28.2077 19.2989 28.0817C14.395 27.7261 9.4847 27.3959 4.58888 27.0364Z" fill="#F2F4F5"/>
<path fill-rule="evenodd" clip-rule="evenodd" d="M2.10881 28.6454C5.29077 22.2729 8.47545 15.9014 11.6594 9.52982C11.8157 9.2179 11.8167 9.21756 12.1239 9.33902C16.6838 11.144 21.243 12.9497 25.804 14.7498C25.8928 14.7846 25.9823 14.8828 26.1075 14.8114C26.0194 14.5917 25.9265 14.3794 25.8502 14.1611C25.777 13.9503 25.6497 13.8288 25.4435 13.7436C22.0826 12.359 18.7251 10.9659 15.3673 9.57388C14.1601 9.0739 12.9526 8.57573 11.7492 8.06565C11.5713 7.98995 11.4622 7.98502 11.4008 8.19556C11.3873 8.24203 11.3576 8.28322 11.336 8.32687C10.1856 10.6624 9.03477 12.998 7.88501 15.3334C5.6837 19.807 3.48341 24.282 1.27771 28.7539C1.17576 28.9601 1.12175 29.1566 1.15754 29.3886C1.1761 29.5101 1.20851 29.5618 1.32903 29.5632C1.54237 29.5654 1.75572 29.5836 1.96906 29.5893C4.28109 29.6572 6.59345 29.7213 8.9055 29.791C11.0038 29.854 13.1028 29.9065 15.2009 29.9984C15.6994 30.0206 16.0843 29.8181 16.4806 29.5368C11.6486 29.3506 6.81626 29.1636 1.9829 28.9763C1.98863 28.8303 2.06088 28.7419 2.10881 28.6454Z" fill="#F2F4F5"/>
<path fill-rule="evenodd" clip-rule="evenodd" d="M11.0829 7.21917C11.2492 6.87592 11.2496 6.87627 11.5933 7.02484C16.0974 8.97315 20.602 10.9214 25.1059 12.8701C25.1677 12.8965 25.2244 12.9559 25.3119 12.8816C25.2369 12.6961 25.1444 12.5109 25.087 12.3145C25.0175 12.0772 24.8642 11.9663 24.6556 11.8727C20.2206 9.87966 15.7882 7.88034 11.3553 5.88243C10.9667 5.70745 10.9667 5.70745 10.7774 6.10316C7.61632 12.7081 4.458 19.3147 1.28753 25.9144C1.06912 26.3689 0.891891 26.8005 1.01511 27.3181C1.04819 27.4574 1.02017 27.6127 1.02017 27.7915C1.17106 27.7366 1.17714 27.6352 1.21124 27.5648C4.50391 20.7846 7.79355 14.0016 11.0829 7.21917Z" fill="#F2F4F5"/>
<path fill-rule="evenodd" clip-rule="evenodd" d="M24.6026 11.1694C24.499 10.912 24.4203 10.7459 24.3653 10.5716C24.2894 10.3318 24.1405 10.2019 23.918 10.0945C19.5762 8.00437 15.238 5.904 10.8989 3.80575C10.7919 3.754 10.6856 3.69943 10.5772 3.65014C10.505 3.6174 10.4409 3.62233 10.4016 3.70999C10.3719 3.77688 10.3345 3.8399 10.3034 3.90609C7.17177 10.6194 4.04079 17.3321 0.910146 24.0448C0.85918 24.1546 0.804153 24.2609 0.808878 24.394C0.820356 24.7199 0.847027 25.0428 0.948295 25.3758C4.20417 18.4841 7.46005 11.5932 10.722 4.68836C15.3356 6.84294 19.9313 8.98837 24.6026 11.1694Z" fill="#F2F4F5"/>
<path fill-rule="evenodd" clip-rule="evenodd" d="M29.3806 22.7203C29.3036 22.5316 29.2628 22.3369 29.0083 22.2831C28.1397 22.0983 27.2762 21.8888 26.4114 21.6856C23.8286 21.078 21.2461 20.4671 18.6631 19.8602C17.2217 19.5215 15.7782 19.1924 14.3381 18.8456C14.1791 18.8072 14.1076 18.8343 14.0296 18.9762C13.7491 19.4906 13.456 19.9968 13.1562 20.5267C13.2808 20.6016 13.3865 20.6146 13.4911 20.6361C14.5484 20.8449 15.6057 21.0558 16.663 21.267C18.464 21.6261 20.2642 21.9849 22.0651 22.3447C23.8654 22.7041 25.667 23.0597 27.466 23.4273C28.3153 23.6015 28.3129 23.6127 29.0738 23.2248C29.1268 23.1981 29.1808 23.1734 29.2335 23.1456C29.4988 23.0083 29.4985 23.0083 29.3806 22.7203Z" fill="#F2F4F5"/>
<path fill-rule="evenodd" clip-rule="evenodd" d="M17.0366 6.02929C19.2957 7.15481 21.554 8.2828 23.889 9.44811C23.8164 9.26751 23.7678 9.17142 23.7384 9.06891C23.6345 8.70488 23.4134 8.48981 23.0778 8.31941C19.8162 6.6644 16.5633 4.98967 13.3085 3.31987C12.2806 2.79248 11.254 2.26299 10.2261 1.73491C9.97565 1.60641 9.97531 1.60817 9.84874 1.88172C9.83822 1.90389 9.82711 1.92572 9.81701 1.94791C6.81664 8.53628 3.81934 15.1254 0.809545 21.7088C0.588436 22.1932 0.704223 22.647 0.785241 23.1262C3.93006 16.3016 7.07488 9.47665 10.2248 2.6411C12.5172 3.78141 14.7772 4.90412 17.0366 6.02929Z" fill="#F2F4F5"/>
<path fill-rule="evenodd" clip-rule="evenodd" d="M4.72063 11.9083C6.35752 8.27295 7.99373 4.63692 9.63064 1.0016C9.75788 0.718542 9.76024 0.719247 10.028 0.857957C10.0701 0.87978 10.1137 0.900557 10.1555 0.922731C14.2375 3.07414 18.3191 5.22627 22.4006 7.37733C22.6409 7.50371 22.8816 7.62834 23.1217 7.75367C23.0562 7.43577 22.9974 7.16362 22.7007 7.00521C18.9037 4.97666 15.1128 2.93614 11.3202 0.89844C10.7952 0.616094 10.269 0.336209 9.74745 0.0471718C9.61944 -0.0239435 9.53579 -0.0239435 9.45306 0.11195C9.33928 0.298187 9.19478 0.460133 9.10364 0.666789C8.35325 2.36828 7.59539 4.06554 6.83924 5.76421C4.76958 10.4127 2.69993 15.0613 0.629942 19.7091C0.489174 20.0259 0.486136 20.6463 0.63163 20.978C0.666062 20.9055 0.698469 20.8403 0.728176 20.7734C2.05922 17.819 3.39027 14.8638 4.72063 11.9083Z" fill="#F2F4F5"/>
<path fill-rule="evenodd" clip-rule="evenodd" d="M7.15548 3.17274C6.86247 3.58851 6.4962 3.94902 6.28691 4.42922C4.3722 8.82291 2.45952 13.2179 0.530973 17.6053C0.32843 18.0657 0.398983 18.4977 0.443879 19.0047C1.02585 17.9137 7.59601 2.88686 7.61457 2.60522C7.42047 2.76541 7.29354 2.97699 7.15548 3.17274Z" fill="#F2F4F5"/>
<path fill-rule="evenodd" clip-rule="evenodd" d="M4.97229 6.09979C4.78865 6.25541 4.66477 6.4684 4.52265 6.66027C4.2428 7.03908 3.94641 7.40064 3.75602 7.85163C2.64406 10.4864 1.52164 13.117 0.384017 15.7402C0.199028 16.1672 0.251351 16.5682 0.360725 17.0012C1.92098 13.3853 3.48191 9.76889 5.04217 6.15295C5.01922 6.13536 4.99592 6.11775 4.97229 6.09979Z" fill="#F2F4F5"/>
<path fill-rule="evenodd" clip-rule="evenodd" d="M1.67526 10.5723C1.21548 11.6787 0.770903 12.7927 0.282774 13.8855C0.104199 14.2843 0.0927212 14.6565 0.198044 15.1092C0.467426 14.6944 2.68325 9.41006 2.68459 9.13269C2.33994 9.60618 1.90885 10.0111 1.67526 10.5723Z" fill="#F2F4F5"/>
<path fill-rule="evenodd" clip-rule="evenodd" d="M0.692748 11.7393C0.484129 12.0157 0.276185 12.2927 0.0668905 12.5683C0.0294201 12.618 -0.00399954 12.6697 0.000388898 12.7339C0.0149045 12.9532 0.0334708 13.1729 0.050687 13.3921C0.0716165 13.3939 0.0918707 13.3961 0.1128 13.3985C0.333235 12.8578 0.553669 12.3174 0.773766 11.7769C0.74676 11.7643 0.719754 11.7516 0.692748 11.7393Z" fill="#F2F4F5"/>
</g>
<defs>
<clipPath id="clip0_1397_3758">
<rect width="170" height="30" fill="white"/>
</clipPath>
</defs>
</svg>
