<svg width="23" height="28" viewBox="0 0 23 28" fill="none" xmlns="http://www.w3.org/2000/svg">
<mask id="mask0_1865_2223" style="mask-type:alpha" maskUnits="userSpaceOnUse" x="0" y="0" width="23" height="28">
<path fill-rule="evenodd" clip-rule="evenodd" d="M0.000366211 0.682129H22.7373V27.1535H0.000366211V0.682129Z" fill="white"/>
</mask>
<g mask="url(#mask0_1865_2223)">
<path fill-rule="evenodd" clip-rule="evenodd" d="M6.09784 2.68213C3.8885 2.68213 2.05384 4.47146 2.00184 6.67813V20.9381C1.9525 23.2221 3.7525 25.1035 6.01384 25.1541H16.7658C18.9912 25.0621 20.7538 23.2128 20.7378 20.9461V9.11946L14.5578 2.68213H6.11384H6.09784ZM6.11384 27.1541H5.9685C2.60584 27.0781 -0.0714959 24.2808 0.00183745 20.9168V6.65413C0.0791708 3.34613 2.81117 0.682129 6.09517 0.682129H6.11784H14.9845C15.2565 0.682129 15.5165 0.792796 15.7058 0.988796L22.4592 8.0248C22.6378 8.21013 22.7378 8.45946 22.7378 8.7168V20.9381C22.7618 24.2835 20.1565 27.0168 16.8058 27.1528L6.11384 27.1541Z" fill="#40454B"/>
</g>
<path fill-rule="evenodd" clip-rule="evenodd" d="M21.7313 9.97899H18.058C15.618 9.97233 13.634 7.98299 13.634 5.54566V1.66699C13.634 1.11499 14.082 0.666992 14.634 0.666992C15.186 0.666992 15.634 1.11499 15.634 1.66699V5.54566C15.634 6.88433 16.7233 7.97499 18.0606 7.97899H21.7313C22.2833 7.97899 22.7313 8.42699 22.7313 8.97899C22.7313 9.53099 22.2833 9.97899 21.7313 9.97899" fill="#40454B"/>
<path fill-rule="evenodd" clip-rule="evenodd" d="M14.3849 19.4778H7.18488C6.63288 19.4778 6.18488 19.0298 6.18488 18.4778C6.18488 17.9258 6.63288 17.4778 7.18488 17.4778H14.3849C14.9369 17.4778 15.3849 17.9258 15.3849 18.4778C15.3849 19.0298 14.9369 19.4778 14.3849 19.4778" fill="#40454B"/>
<path fill-rule="evenodd" clip-rule="evenodd" d="M11.6584 14.4751H7.18372C6.63172 14.4751 6.18372 14.0271 6.18372 13.4751C6.18372 12.9231 6.63172 12.4751 7.18372 12.4751H11.6584C12.2104 12.4751 12.6584 12.9231 12.6584 13.4751C12.6584 14.0271 12.2104 14.4751 11.6584 14.4751" fill="#40454B"/>
</svg>
