<svg width="60" height="80" viewBox="0 0 60 80" fill="none" xmlns="http://www.w3.org/2000/svg">
<path d="M3.75 80H56.25C58.3175 80 60 78.3175 60 76.25V23.75C60 23.7075 59.98 23.6725 59.9775 23.6325C59.9725 23.575 59.9575 23.525 59.945 23.47C59.9057 23.2963 59.8289 23.1333 59.72 22.9925C59.7025 22.97 59.705 22.9425 59.6875 22.92L39.6875 0.42C39.68 0.4125 39.67 0.4125 39.6625 0.405C39.5099 0.245526 39.3174 0.129848 39.105 0.07C39.0575 0.055 39.015 0.05 38.965 0.0425C38.8925 0.03 38.825 0 38.75 0H3.75C1.6825 0 0 1.6825 0 3.75V76.25C0 78.3175 1.6825 80 3.75 80ZM40 4.5375L55.9675 22.5H41.25C40.7 22.5 40 21.45 40 20.625V4.5375ZM2.5 3.75C2.5 3.41848 2.6317 3.10054 2.86612 2.86612C3.10054 2.6317 3.41848 2.5 3.75 2.5H37.5V20.625C37.5 22.6475 39.1375 25 41.25 25H57.5V76.25C57.5 76.5815 57.3683 76.8995 57.1339 77.1339C56.8995 77.3683 56.5815 77.5 56.25 77.5H3.75C3.05 77.5 2.5 76.95 2.5 76.25V3.75Z" fill="#8C8F90"/>
<path d="M13.75 35H46.25C46.5815 35 46.8995 34.8683 47.1339 34.6339C47.3683 34.3995 47.5 34.0815 47.5 33.75C47.5 33.4185 47.3683 33.1005 47.1339 32.8661C46.8995 32.6317 46.5815 32.5 46.25 32.5H13.75C13.4185 32.5 13.1005 32.6317 12.8661 32.8661C12.6317 33.1005 12.5 33.4185 12.5 33.75C12.5 34.0815 12.6317 34.3995 12.8661 34.6339C13.1005 34.8683 13.4185 35 13.75 35ZM13.75 45H46.25C46.5815 45 46.8995 44.8683 47.1339 44.6339C47.3683 44.3995 47.5 44.0815 47.5 43.75C47.5 43.4185 47.3683 43.1005 47.1339 42.8661C46.8995 42.6317 46.5815 42.5 46.25 42.5H13.75C13.4185 42.5 13.1005 42.6317 12.8661 42.8661C12.6317 43.1005 12.5 43.4185 12.5 43.75C12.5 44.0815 12.6317 44.3995 12.8661 44.6339C13.1005 44.8683 13.4185 45 13.75 45ZM13.75 25H28.75C29.0815 25 29.3995 24.8683 29.6339 24.6339C29.8683 24.3995 30 24.0815 30 23.75C30 23.4185 29.8683 23.1005 29.6339 22.8661C29.3995 22.6317 29.0815 22.5 28.75 22.5H13.75C13.4185 22.5 13.1005 22.6317 12.8661 22.8661C12.6317 23.1005 12.5 23.4185 12.5 23.75C12.5 24.0815 12.6317 24.3995 12.8661 24.6339C13.1005 24.8683 13.4185 25 13.75 25ZM13.75 55H46.25C46.5815 55 46.8995 54.8683 47.1339 54.6339C47.3683 54.3995 47.5 54.0815 47.5 53.75C47.5 53.4185 47.3683 53.1005 47.1339 52.8661C46.8995 52.6317 46.5815 52.5 46.25 52.5H13.75C13.4185 52.5 13.1005 52.6317 12.8661 52.8661C12.6317 53.1005 12.5 53.4185 12.5 53.75C12.5 54.0815 12.6317 54.3995 12.8661 54.6339C13.1005 54.8683 13.4185 55 13.75 55ZM13.75 65H46.25C46.5815 65 46.8995 64.8683 47.1339 64.6339C47.3683 64.3995 47.5 64.0815 47.5 63.75C47.5 63.4185 47.3683 63.1005 47.1339 62.8661C46.8995 62.6317 46.5815 62.5 46.25 62.5H13.75C13.4185 62.5 13.1005 62.6317 12.8661 62.8661C12.6317 63.1005 12.5 63.4185 12.5 63.75C12.5 64.0815 12.6317 64.3995 12.8661 64.6339C13.1005 64.8683 13.4185 65 13.75 65Z" fill="#8C8F90"/>
</svg>
