<svg width="40" height="40" viewBox="0 0 40 40" fill="none" xmlns="http://www.w3.org/2000/svg">
<circle cx="20" cy="20" r="20" fill="#F2F4F5"/>
<path d="M26.5425 24.9829C25.0546 24.9661 23.612 24.468 22.4303 23.5632C21.2486 22.6584 20.3913 21.3954 19.9864 19.9628C19.5815 18.5303 19.6508 17.0051 20.1839 15.6152C20.717 14.2253 21.6853 13.0453 22.9441 12.2514C22.3081 12.086 21.6537 12.0015 20.9964 12C18.8756 12 16.8417 12.8429 15.3421 14.3431C13.8425 15.8434 13 17.8783 13 20C13 22.1217 13.8425 24.1566 15.3421 25.6569C16.8417 27.1571 18.8756 28 20.9964 28C22.1979 27.9989 23.3832 27.7235 24.4621 27.1947C25.541 26.6659 26.485 25.8977 27.2222 24.9486C26.9964 24.9715 26.7695 24.983 26.5425 24.9829Z" fill="#15181B"/>
</svg>
