<svg width="48" height="48" viewBox="0 0 48 48" fill="none" xmlns="http://www.w3.org/2000/svg">
<path d="M47.7 2.19999L46.6 10.5C43.8667 10.3 41.8 10.8333 40.4 12.1C39 13.3667 38.1 15.1 37.7 17.3C37.3 19.5 37.2 21.9333 37.4 24.6H47.7V47.2H28.1V21.6C28.1 14.6 29.8 9.33333 33.2 5.79999C36.6667 2.19999 41.5 0.999992 47.7 2.19999ZM19.6 2.19999L18.5 10.5C15.7667 10.3 13.7 10.8333 12.3 12.1C10.9 13.3667 10 15.1 9.6 17.3C9.2 19.5 9.1 21.9333 9.3 24.6H19.6V47.2H1.13249e-06V21.6C1.13249e-06 14.6 1.7 9.33333 5.1 5.79999C8.56667 2.19999 13.4 0.999992 19.6 2.19999Z" fill="#15181B"/>
</svg>
