<svg width="40" height="40" viewBox="0 0 40 40" fill="none" xmlns="http://www.w3.org/2000/svg">
<circle cx="20" cy="20" r="20" fill="#15181B"/>
<path d="M20.1667 16C19.0616 16 18.0018 16.439 17.2204 17.2204C16.439 18.0018 16 19.0616 16 20.1667C16 21.2717 16.439 22.3315 17.2204 23.1129C18.0018 23.8943 19.0616 24.3333 20.1667 24.3333C21.2717 24.3333 22.3315 23.8943 23.1129 23.1129C23.8943 22.3315 24.3333 21.2717 24.3333 20.1667C24.3333 19.0616 23.8943 18.0018 23.1129 17.2204C22.3315 16.439 21.2717 16 20.1667 16V16Z" fill="#8C8F90"/>
<path fill-rule="evenodd" clip-rule="evenodd" d="M20.1667 11C20.3877 11 20.5996 11.0878 20.7559 11.2441C20.9122 11.4004 21 11.6123 21 11.8333V12.6667C21 12.8877 20.9122 13.0996 20.7559 13.2559C20.5996 13.4122 20.3877 13.5 20.1667 13.5C19.9457 13.5 19.7337 13.4122 19.5774 13.2559C19.4211 13.0996 19.3333 12.8877 19.3333 12.6667V11.8333C19.3333 11.6123 19.4211 11.4004 19.5774 11.2441C19.7337 11.0878 19.9457 11 20.1667 11V11ZM12.9108 12.9108C13.0671 12.7546 13.279 12.6668 13.5 12.6668C13.721 12.6668 13.9329 12.7546 14.0892 12.9108L15.3392 14.1608C15.491 14.318 15.575 14.5285 15.5731 14.747C15.5712 14.9655 15.4835 15.1745 15.329 15.329C15.1745 15.4835 14.9655 15.5712 14.747 15.5731C14.5285 15.575 14.318 15.491 14.1608 15.3392L12.9108 14.0892C12.7546 13.9329 12.6668 13.721 12.6668 13.5C12.6668 13.279 12.7546 13.0671 12.9108 12.9108V12.9108ZM27.4225 12.9108C27.5787 13.0671 27.6665 13.279 27.6665 13.5C27.6665 13.721 27.5787 13.9329 27.4225 14.0892L26.1725 15.3392C26.0956 15.4188 26.0037 15.4822 25.902 15.5259C25.8003 15.5696 25.691 15.5926 25.5803 15.5935C25.4697 15.5945 25.36 15.5734 25.2575 15.5315C25.1551 15.4896 25.0621 15.4277 24.9838 15.3495C24.9056 15.2713 24.8437 15.1782 24.8018 15.0758C24.7599 14.9734 24.7388 14.8636 24.7398 14.753C24.7408 14.6423 24.7637 14.533 24.8074 14.4313C24.8511 14.3297 24.9146 14.2377 24.9942 14.1608L26.2442 12.9108C26.4004 12.7546 26.6124 12.6668 26.8333 12.6668C27.0543 12.6668 27.2662 12.7546 27.4225 12.9108ZM11 20.1667C11 19.9457 11.0878 19.7337 11.2441 19.5774C11.4004 19.4211 11.6123 19.3333 11.8333 19.3333H12.6667C12.8877 19.3333 13.0996 19.4211 13.2559 19.5774C13.4122 19.7337 13.5 19.9457 13.5 20.1667C13.5 20.3877 13.4122 20.5996 13.2559 20.7559C13.0996 20.9122 12.8877 21 12.6667 21H11.8333C11.6123 21 11.4004 20.9122 11.2441 20.7559C11.0878 20.5996 11 20.3877 11 20.1667ZM26.8333 20.1667C26.8333 19.9457 26.9211 19.7337 27.0774 19.5774C27.2337 19.4211 27.4457 19.3333 27.6667 19.3333H28.5C28.721 19.3333 28.933 19.4211 29.0893 19.5774C29.2455 19.7337 29.3333 19.9457 29.3333 20.1667C29.3333 20.3877 29.2455 20.5996 29.0893 20.7559C28.933 20.9122 28.721 21 28.5 21H27.6667C27.4457 21 27.2337 20.9122 27.0774 20.7559C26.9211 20.5996 26.8333 20.3877 26.8333 20.1667ZM15.3392 24.9942C15.4954 25.1504 15.5832 25.3624 15.5832 25.5833C15.5832 25.8043 15.4954 26.0162 15.3392 26.1725L14.0892 27.4225C13.932 27.5743 13.7215 27.6583 13.503 27.6564C13.2845 27.6545 13.0755 27.5669 12.921 27.4123C12.7665 27.2578 12.6788 27.0488 12.6769 26.8303C12.675 26.6118 12.759 26.4013 12.9108 26.2442L14.1608 24.9942C14.3171 24.8379 14.529 24.7502 14.75 24.7502C14.971 24.7502 15.1829 24.8379 15.3392 24.9942V24.9942ZM24.9942 24.9942C25.1504 24.8379 25.3624 24.7502 25.5833 24.7502C25.8043 24.7502 26.0162 24.8379 26.1725 24.9942L27.4225 26.2442C27.5743 26.4013 27.6583 26.6118 27.6564 26.8303C27.6545 27.0488 27.5669 27.2578 27.4123 27.4123C27.2578 27.5669 27.0488 27.6545 26.8303 27.6564C26.6118 27.6583 26.4013 27.5743 26.2442 27.4225L24.9942 26.1725C24.8379 26.0162 24.7502 25.8043 24.7502 25.5833C24.7502 25.3624 24.8379 25.1504 24.9942 24.9942ZM20.1667 26.8333C20.3877 26.8333 20.5996 26.9211 20.7559 27.0774C20.9122 27.2337 21 27.4457 21 27.6667V28.5C21 28.721 20.9122 28.933 20.7559 29.0893C20.5996 29.2455 20.3877 29.3333 20.1667 29.3333C19.9457 29.3333 19.7337 29.2455 19.5774 29.0893C19.4211 28.933 19.3333 28.721 19.3333 28.5V27.6667C19.3333 27.4457 19.4211 27.2337 19.5774 27.0774C19.7337 26.9211 19.9457 26.8333 20.1667 26.8333V26.8333Z" fill="#8C8F90"/>
</svg>
